Dinish-CondensedMedium.ufo
<glyph name="quotedbl" format="2">
  <advance width="310"/>
  <unicode hex="0022"/>
  <outline>
    <contour>
      <point x="38" y="448.667" type="line"/>
      <point x="123" y="448.667" type="line"/>
      <point x="123" y="707" type="line"/>
      <point x="38" y="707" type="line"/>
    </contour>
    <contour>
      <point x="188" y="448.667" type="line"/>
      <point x="273.333" y="448.667" type="line"/>
      <point x="273.333" y="707" type="line"/>
      <point x="188" y="707" type="line"/>
    </contour>
  </outline>
</glyph>
<glyph name="numbersign" format="2">
  <advance width="473"/>
  <unicode hex="0023"/>
  <outline>
    <contour>
      <point x="63" y="0" type="line"/>
      <point x="138.667" y="0" type="line"/>
      <point x="163.333" y="224.667" type="line"/>
      <point x="274.333" y="224.667" type="line"/>
      <point x="249.667" y="0" type="line"/>
      <point x="325.333" y="0" type="line"/>
      <point x="349.333" y="224.667" type="line"/>
      <point x="434.333" y="224.667" type="line"/>
      <point x="434.333" y="294" type="line"/>
      <point x="357.333" y="294" type="line"/>
      <point x="372.667" y="430.667" type="line"/>
      <point x="455" y="430.667" type="line"/>
      <point x="455" y="500" type="line"/>
      <point x="379.333" y="500" type="line"/>
      <point x="402" y="707" type="line"/>
      <point x="325.667" y="707" type="line"/>
      <point x="303.667" y="500" type="line"/>
      <point x="192.667" y="500" type="line"/>
      <point x="215.333" y="707" type="line"/>
      <point x="139" y="707" type="line"/>
      <point x="117.333" y="500" type="line"/>
      <point x="39.667" y="500" type="line"/>
      <point x="39.667" y="430.667" type="line"/>
      <point x="109.667" y="430.667" type="line"/>
      <point x="94.333" y="294" type="line"/>
      <point x="18" y="294" type="line"/>
      <point x="18" y="224.667" type="line"/>
      <point x="87.333" y="224.667" type="line"/>
    </contour>
    <contour>
      <point x="170.667" y="294" type="line"/>
      <point x="185.667" y="430.667" type="line"/>
      <point x="296" y="430.667" type="line"/>
      <point x="281" y="294" type="line"/>
    </contour>
  </outline>
</glyph>
<glyph name="dollar" format="2">
  <advance width="399"/>
  <unicode hex="0024"/>
  <outline>
    <contour>
      <point x="166" y="-64.667" type="line"/>
      <point x="231" y="-64.667" type="line"/>
      <point x="231" y="30.333" type="line"/>
      <point x="313.201" y="44.268"/>
      <point x="357.667" y="106.207"/>
      <point x="357.667" y="206.667" type="curve" smooth="yes"/>
      <point x="357.667" y="301.792"/>
      <point x="319.601" y="357.385"/>
      <point x="229.667" y="393.667" type="curve" smooth="yes"/>
      <point x="177.667" y="414.667" type="line" smooth="yes"/>
      <point x="133.153" y="432.642"/>
      <point x="113.667" y="461.843"/>
      <point x="113.667" y="510.667" type="curve" smooth="yes"/>
      <point x="113.667" y="567.235"/>
      <point x="141.884" y="599.68"/>
      <point x="191.177" y="599.68" type="curve" smooth="yes"/>
      <point x="242.518" y="599.68"/>
      <point x="267.31" y="568.113"/>
      <point x="269.667" y="499.333" type="curve"/>
      <point x="350.667" y="499.333" type="line"/>
      <point x="346.001" y="600.153"/>
      <point x="305.054" y="660.097"/>
      <point x="231" y="674.333" type="curve"/>
      <point x="231" y="771.667" type="line"/>
      <point x="166" y="771.667" type="line"/>
      <point x="166" y="676.333" type="line"/>
      <point x="77.979" y="664.894"/>
      <point x="28" y="601.755"/>
      <point x="28" y="502" type="curve" smooth="yes"/>
      <point x="28" y="415.142"/>
      <point x="59.783" y="369.634"/>
      <point x="148.667" y="329.333" type="curve" smooth="yes"/>
      <point x="198.722" y="306.642" type="line"/>
      <point x="252.545" y="278.774"/>
      <point x="271" y="251.591"/>
      <point x="271" y="199.667" type="curve" smooth="yes"/>
      <point x="271" y="132.253"/>
      <point x="245.268" y="101.205"/>
      <point x="189.404" y="101.205" type="curve" smooth="yes"/>
      <point x="139.094" y="101.205"/>
      <point x="114.125" y="134.285"/>
      <point x="110.333" y="206" type="curve"/>
      <point x="24.333" y="206" type="line"/>
      <point x="28.665" y="95.264"/>
      <point x="76.188" y="35.448"/>
      <point x="166" y="27.667" type="curve"/>
    </contour>
  </outline>
</glyph>
<glyph name="percent" format="2">
  <advance width="733"/>
  <unicode hex="0025"/>
  <outline>
    <contour>
      <point x="202.333" y="0" type="line"/>
      <point x="273" y="0" type="line"/>
      <point x="531" y="709.667" type="line"/>
      <point x="460.333" y="709.667" type="line"/>
    </contour>
    <contour>
      <point x="142.333" y="270.667" type="curve" smooth="yes"/>
      <point x="216.925" y="270.667"/>
      <point x="252.333" y="310.708"/>
      <point x="252.333" y="395.667" type="curve" smooth="yes"/>
      <point x="252.333" y="590" type="line" smooth="yes"/>
      <point x="252.333" y="673.082"/>
      <point x="216.111" y="713.667"/>
      <point x="142.333" y="713.667" type="curve" smooth="yes"/>
      <point x="69.184" y="713.667"/>
      <point x="33.333" y="673.266"/>
      <point x="33.333" y="590" type="curve" smooth="yes"/>
      <point x="33.333" y="395.667" type="line" smooth="yes"/>
      <point x="33.333" y="312.124"/>
      <point x="69.697" y="270.667"/>
    </contour>
    <contour>
      <point x="142.333" y="338.667" type="curve" smooth="yes"/>
      <point x="116.396" y="338.637"/>
      <point x="108" y="357.835"/>
      <point x="108" y="399.667" type="curve" smooth="yes"/>
      <point x="108" y="586" type="line" smooth="yes"/>
      <point x="108" y="626.21"/>
      <point x="115.476" y="645.667"/>
      <point x="142.333" y="645.667" type="curve" smooth="yes"/>
      <point x="169.635" y="645.667"/>
      <point x="177.333" y="626.979"/>
      <point x="177.333" y="586" type="curve" smooth="yes"/>
      <point x="177.333" y="399.667" type="line" smooth="yes"/>
      <point x="177.333" y="358.492"/>
      <point x="167.528" y="338.696"/>
    </contour>
    <contour>
      <point x="589.333" y="-8.66633" type="curve" smooth="yes"/>
      <point x="663.925" y="-8.66633"/>
      <point x="699.333" y="31.3747"/>
      <point x="699.333" y="116.334" type="curve" smooth="yes"/>
      <point x="699.333" y="310.667" type="line" smooth="yes"/>
      <point x="699.333" y="393.749"/>
      <point x="663.111" y="434.334"/>
      <point x="589.333" y="434.334" type="curve" smooth="yes"/>
      <point x="516.184" y="434.334"/>
      <point x="480.333" y="393.933"/>
      <point x="480.333" y="310.667" type="curve" smooth="yes"/>
      <point x="480.333" y="116.334" type="line" smooth="yes"/>
      <point x="480.333" y="32.7907"/>
      <point x="516.697" y="-8.66633"/>
    </contour>
    <contour>
      <point x="589.333" y="59.3337" type="curve" smooth="yes"/>
      <point x="563.396" y="59.3037"/>
      <point x="555" y="78.5017"/>
      <point x="555" y="120.334" type="curve" smooth="yes"/>
      <point x="555" y="306.667" type="line" smooth="yes"/>
      <point x="555" y="346.877"/>
      <point x="562.476" y="366.334"/>
      <point x="589.333" y="366.334" type="curve" smooth="yes"/>
      <point x="616.635" y="366.334"/>
      <point x="624.333" y="347.646"/>
      <point x="624.333" y="306.667" type="curve" smooth="yes"/>
      <point x="624.333" y="120.334" type="line" smooth="yes"/>
      <point x="624.333" y="79.1587"/>
      <point x="614.528" y="59.3627"/>
    </contour>
  </outline>
</glyph>
<glyph name="ampersand" format="2">
  <advance width="529"/>
  <unicode hex="0026"/>
  <outline>
    <contour>
      <point x="359" y="227.333" type="line"/>
      <point x="274.333" y="371.333" type="line"/>
      <point x="349.242" y="451.096"/>
      <point x="380.333" y="509.677"/>
      <point x="380.333" y="570.333" type="curve" smooth="yes"/>
      <point x="380.333" y="657.807"/>
      <point x="321.955" y="717"/>
      <point x="235.333" y="717" type="curve" smooth="yes"/>
      <point x="149.55" y="717"/>
      <point x="90.333" y="657.352"/>
      <point x="90.333" y="570.333" type="curve" smooth="yes"/>
      <point x="90.333" y="506.95"/>
      <point x="131.63" y="435.725"/>
      <point x="168.333" y="381.667" type="curve"/>
      <point x="80.288" y="283.888"/>
      <point x="47" y="221.011"/>
      <point x="47" y="152.333" type="curve" smooth="yes"/>
      <point x="47" y="53.384"/>
      <point x="107.126" y="-10"/>
      <point x="201" y="-10" type="curve" smooth="yes"/>
      <point x="265.589" y="-10"/>
      <point x="312.938" y="15.45"/>
      <point x="352.667" y="72" type="curve"/>
      <point x="368.714" y="46.466" type="line" smooth="yes"/>
      <point x="390.999" y="12.21"/>
      <point x="405.244" y="-0.667"/>
      <point x="443" y="-0.667" type="curve" smooth="yes"/>
      <point x="482" y="-0.667" type="line"/>
      <point x="482" y="80.333" type="line"/>
      <point x="470.667" y="80.333" type="line" smooth="yes"/>
      <point x="452.775" y="80.333"/>
      <point x="441.256" y="89.09"/>
      <point x="429.333" y="109.333" type="curve" smooth="yes"/>
      <point x="404" y="152.333" type="line"/>
      <point x="477" y="270.333" type="line"/>
      <point x="412" y="314" type="line"/>
    </contour>
    <contour>
      <point x="229" y="447" type="curve"/>
      <point x="201.286" y="482.353"/>
      <point x="178.333" y="533.557"/>
      <point x="178.333" y="574.333" type="curve" smooth="yes"/>
      <point x="178.333" y="614.603"/>
      <point x="199.227" y="643.333"/>
      <point x="236.667" y="643.333" type="curve" smooth="yes"/>
      <point x="272.329" y="643.333"/>
      <point x="293.333" y="617.677"/>
      <point x="293.333" y="574.333" type="curve" smooth="yes"/>
      <point x="293.333" y="534.525"/>
      <point x="276.506" y="501.245"/>
    </contour>
    <contour>
      <point x="308.667" y="145.333" type="line"/>
      <point x="274.956" y="93.803"/>
      <point x="246.537" y="73"/>
      <point x="209.667" y="73" type="curve" smooth="yes"/>
      <point x="162.268" y="73"/>
      <point x="136.667" y="107.654"/>
      <point x="136.667" y="159" type="curve" smooth="yes"/>
      <point x="136.667" y="205.242"/>
      <point x="157.742" y="246.27"/>
      <point x="213" y="307.667" type="curve"/>
    </contour>
  </outline>
</glyph>
<glyph name="parenleft" format="2">
  <advance width="269"/>
  <unicode hex="0028"/>
  <outline>
    <contour>
      <point x="222.667" y="-86" type="line"/>
      <point x="164.599" y="47.632"/>
      <point x="133.333" y="195.039"/>
      <point x="133.333" y="336" type="curve" smooth="yes"/>
      <point x="133.333" y="476.517"/>
      <point x="164.412" y="623.065"/>
      <point x="222.667" y="758" type="curve"/>
      <point x="148.667" y="758" type="line"/>
      <point x="81.863" y="629.381"/>
      <point x="47" y="483.978"/>
      <point x="47" y="336" type="curve" smooth="yes"/>
      <point x="47" y="188.881"/>
      <point x="82.44" y="41.812"/>
      <point x="148.667" y="-86" type="curve"/>
    </contour>
  </outline>
</glyph>
<glyph name="parenright" format="2">
  <advance width="269"/>
  <unicode hex="0029"/>
  <outline>
    <contour>
      <point x="121.333" y="-86" type="line"/>
      <point x="187.473" y="43.389"/>
      <point x="222.667" y="189.394"/>
      <point x="222.667" y="336" type="curve" smooth="yes"/>
      <point x="222.667" y="483.05"/>
      <point x="187.268" y="629.901"/>
      <point x="121.333" y="758" type="curve"/>
      <point x="47" y="758" type="line"/>
      <point x="105.779" y="621.412"/>
      <point x="136.333" y="476.406"/>
      <point x="136.333" y="336" type="curve" smooth="yes"/>
      <point x="136.333" y="192.178"/>
      <point x="106.047" y="48.401"/>
      <point x="47" y="-86" type="curve"/>
    </contour>
  </outline>
</glyph>
<glyph name="asterisk" format="2">
  <advance width="352"/>
  <unicode hex="002A"/>
  <outline>
    <contour>
      <point x="73.333" y="473.667" type="line"/>
      <point x="148" y="517" type="line"/>
      <point x="148" y="413" type="line"/>
      <point x="204.667" y="413" type="line"/>
      <point x="204.667" y="516.333" type="line"/>
      <point x="279.333" y="473" type="line"/>
      <point x="305" y="517.333" type="line"/>
      <point x="226.667" y="562.333" type="line"/>
      <point x="304" y="606.667" type="line"/>
      <point x="279.333" y="650.667" type="line"/>
      <point x="204.667" y="607.333" type="line"/>
      <point x="204.667" y="707" type="line"/>
      <point x="148" y="707" type="line"/>
      <point x="148" y="608.667" type="line"/>
      <point x="73.333" y="652" type="line"/>
      <point x="47" y="606.667" type="line"/>
      <point x="124.333" y="562" type="line"/>
      <point x="47.333" y="517.667" type="line"/>
    </contour>
  </outline>
</glyph>
<glyph name="plus" format="2">
  <advance width="430"/>
  <unicode hex="002B"/>
  <outline>
    <contour>
      <point x="38.333" y="241" type="line"/>
      <point x="174" y="241" type="line"/>
      <point x="174" y="106" type="line"/>
      <point x="256.333" y="106" type="line"/>
      <point x="256.333" y="241" type="line"/>
      <point x="392" y="241" type="line"/>
      <point x="392" y="323.667" type="line"/>
      <point x="256.333" y="323.667" type="line"/>
      <point x="256.333" y="459.333" type="line"/>
      <point x="174" y="459.333" type="line"/>
      <point x="174" y="323.667" type="line"/>
      <point x="38.333" y="323.667" type="line"/>
    </contour>
  </outline>
</glyph>
<glyph name="zero" format="2">
  <advance width="414"/>
  <unicode hex="0030"/>
  <outline>
    <contour>
      <point x="207.667" y="-9.333" type="curve" smooth="yes"/>
      <point x="313.222" y="-9.333"/>
      <point x="366" y="54.222"/>
      <point x="366" y="182" type="curve" smooth="yes"/>
      <point x="366" y="525.333" type="line" smooth="yes"/>
      <point x="366" y="653.112"/>
      <point x="313.667" y="716.667"/>
      <point x="207.667" y="716.667" type="curve" smooth="yes"/>
      <point x="101.221" y="716.667"/>
      <point x="48.333" y="652.667"/>
      <point x="48.333" y="525.333" type="curve" smooth="yes"/>
      <point x="48.333" y="182" type="line" smooth="yes"/>
      <point x="48.333" y="54.222"/>
      <point x="101.222" y="-9.333"/>
    </contour>
    <contour>
      <point x="207.667" y="72.333" type="curve" smooth="yes"/>
      <point x="155.368" y="72.462"/>
      <point x="140.333" y="113.891"/>
      <point x="140.333" y="189.667" type="curve" smooth="yes"/>
      <point x="140.333" y="517" type="line" smooth="yes"/>
      <point x="140.333" y="593.44"/>
      <point x="154.79" y="634.129"/>
      <point x="207.667" y="634" type="curve" smooth="yes"/>
      <point x="260.298" y="633.871"/>
      <point x="275" y="594.146"/>
      <point x="275" y="517" type="curve" smooth="yes"/>
      <point x="275" y="189.667" type="line" smooth="yes"/>
      <point x="275" y="115.806"/>
      <point x="257.969" y="72.204"/>
    </contour>
  </outline>
</glyph>
<glyph name="one" format="2">
  <advance width="287"/>
  <unicode hex="0031"/>
  <outline>
    <contour>
      <point x="137.667" y="0" type="line"/>
      <point x="226.333" y="0" type="line"/>
      <point x="226.333" y="707" type="line"/>
      <point x="137.667" y="707" type="line"/>
      <point x="36" y="626" type="line"/>
      <point x="36" y="519" type="line"/>
      <point x="137.667" y="600" type="line"/>
    </contour>
  </outline>
</glyph>
<glyph name="three" format="2">
  <advance width="412"/>
  <unicode hex="0033"/>
  <outline>
    <contour>
      <point x="43.333" y="191" type="line"/>
      <point x="43.333" y="143.667" type="line" smooth="yes"/>
      <point x="43.333" y="46.231"/>
      <point x="101.073" y="-9.333"/>
      <point x="202.333" y="-9.333" type="curve" smooth="yes"/>
      <point x="305.944" y="-9.333"/>
      <point x="364" y="50.262"/>
      <point x="364" y="156.667" type="curve" smooth="yes"/>
      <point x="364" y="230" type="line" smooth="yes"/>
      <point x="364" y="309.108"/>
      <point x="344.104" y="346.315"/>
      <point x="289" y="370.333" type="curve"/>
      <point x="340.455" y="393.171"/>
      <point x="361.333" y="431.171"/>
      <point x="361.333" y="502" type="curve" smooth="yes"/>
      <point x="361.333" y="558" type="line" smooth="yes"/>
      <point x="361.333" y="659.323"/>
      <point x="304.682" y="716.333"/>
      <point x="204" y="716.333" type="curve" smooth="yes"/>
      <point x="103.055" y="716.333"/>
      <point x="44.667" y="658.938"/>
      <point x="44.667" y="559.667" type="curve" smooth="yes"/>
      <point x="44.667" y="515" type="line"/>
      <point x="134.667" y="515" type="line"/>
      <point x="134.667" y="556.667" type="line" smooth="yes"/>
      <point x="134.667" y="606.355"/>
      <point x="158.587" y="633.667"/>
      <point x="202" y="633.667" type="curve" smooth="yes"/>
      <point x="247.036" y="633.667"/>
      <point x="270.667" y="605.105"/>
      <point x="270.667" y="550.333" type="curve" smooth="yes"/>
      <point x="270.667" y="494" type="line" smooth="yes"/>
      <point x="270.667" y="432.83"/>
      <point x="248.942" y="406.667"/>
      <point x="198.333" y="406.667" type="curve" smooth="yes"/>
      <point x="168.667" y="406.667" type="line"/>
      <point x="168.667" y="325" type="line"/>
      <point x="197.667" y="325" type="line" smooth="yes"/>
      <point x="250.073" y="325"/>
      <point x="272.667" y="297.439"/>
      <point x="272.667" y="233" type="curve" smooth="yes"/>
      <point x="272.667" y="156.667" type="line" smooth="yes"/>
      <point x="272.667" y="100.229"/>
      <point x="249.322" y="72.333"/>
      <point x="202.667" y="72.333" type="curve" smooth="yes"/>
      <point x="158.389" y="72.333"/>
      <point x="133.333" y="100.243"/>
      <point x="133.333" y="149.667" type="curve" smooth="yes"/>
      <point x="133.333" y="191" type="line"/>
    </contour>
  </outline>
</glyph>
<glyph name="four" format="2">
  <advance width="429"/>
  <unicode hex="0034"/>
  <outline>
    <contour>
      <point x="34" y="134" type="line"/>
      <point x="248" y="134" type="line"/>
      <point x="248" y="0" type="line"/>
      <point x="340" y="0" type="line"/>
      <point x="340" y="134" type="line"/>
      <point x="396" y="134" type="line"/>
      <point x="396" y="216.333" type="line"/>
      <point x="340" y="216.333" type="line"/>
      <point x="340" y="391.667" type="line"/>
      <point x="248" y="391.667" type="line"/>
      <point x="248" y="216.333" type="line"/>
      <point x="124.667" y="216.333" type="line"/>
      <point x="271.333" y="707" type="line"/>
      <point x="179.333" y="707" type="line"/>
      <point x="34" y="216.333" type="line"/>
    </contour>
  </outline>
</glyph>
<glyph name="five" format="2">
  <advance width="410"/>
  <unicode hex="0035"/>
  <outline>
    <contour>
      <point x="48.333" y="177" type="line"/>
      <point x="48.333" y="154" type="line" smooth="yes"/>
      <point x="48.333" y="48.581"/>
      <point x="103.766" y="-9.333"/>
      <point x="204.667" y="-9.333" type="curve" smooth="yes"/>
      <point x="308.787" y="-9.333"/>
      <point x="361.667" y="48.677"/>
      <point x="361.667" y="163" type="curve" smooth="yes"/>
      <point x="361.667" y="290" type="line" smooth="yes"/>
      <point x="361.667" y="400.889"/>
      <point x="316.222" y="456.333"/>
      <point x="225.333" y="456.333" type="curve" smooth="yes"/>
      <point x="191.193" y="456.333"/>
      <point x="161.466" y="445.1"/>
      <point x="141.333" y="424.667" type="curve"/>
      <point x="141.333" y="622" type="line"/>
      <point x="357.667" y="622" type="line"/>
      <point x="357.667" y="707" type="line"/>
      <point x="56.333" y="707" type="line"/>
      <point x="56.333" y="329.667" type="line"/>
      <point x="137.333" y="329.667" type="line"/>
      <point x="152.507" y="360.141"/>
      <point x="174.526" y="375"/>
      <point x="204.333" y="375" type="curve" smooth="yes"/>
      <point x="249.453" y="375"/>
      <point x="270.333" y="347.354"/>
      <point x="270.333" y="287.667" type="curve" smooth="yes"/>
      <point x="270.333" y="161.667" type="line" smooth="yes"/>
      <point x="270.333" y="99.977"/>
      <point x="249.534" y="72"/>
      <point x="203.667" y="72" type="curve"/>
      <point x="158.923" y="72.444"/>
      <point x="137" y="100.114"/>
      <point x="137" y="156.333" type="curve" smooth="yes"/>
      <point x="137" y="177" type="line"/>
    </contour>
  </outline>
</glyph>
<glyph name="six" format="2">
  <advance width="406"/>
  <unicode hex="0036"/>
  <outline>
    <contour>
      <point x="203.667" y="707" type="line"/>
      <point x="77.333" y="411" type="line" smooth="yes"/>
      <point x="51.584" y="350.244"/>
      <point x="43.667" y="315.339"/>
      <point x="43.667" y="260.667" type="curve" smooth="yes"/>
      <point x="43.667" y="157.667" type="line" smooth="yes"/>
      <point x="43.667" y="53.202"/>
      <point x="103.237" y="-9.333"/>
      <point x="203.667" y="-9.333" type="curve" smooth="yes"/>
      <point x="301.815" y="-9.333"/>
      <point x="362.333" y="53.529"/>
      <point x="362.333" y="155" type="curve" smooth="yes"/>
      <point x="362.333" y="273" type="line" smooth="yes"/>
      <point x="362.333" y="369.038"/>
      <point x="310.299" y="427.333"/>
      <point x="224.667" y="427.333" type="curve" smooth="yes"/>
      <point x="204.333" y="427.333"/>
      <point x="184.667" y="422.833"/>
      <point x="174.333" y="415.667" type="curve"/>
      <point x="297" y="707" type="line"/>
    </contour>
    <contour>
      <point x="135.667" y="154.667" type="curve" smooth="yes"/>
      <point x="135.667" y="270.333" type="line" smooth="yes"/>
      <point x="135.667" y="319.111"/>
      <point x="160.123" y="346.667"/>
      <point x="203.667" y="346.667" type="curve"/>
      <point x="247.031" y="346.333"/>
      <point x="271" y="317.762"/>
      <point x="271" y="265.667" type="curve" smooth="yes"/>
      <point x="271" y="154.333" type="line" smooth="yes"/>
      <point x="271" y="102.009"/>
      <point x="246.81" y="72.333"/>
      <point x="203.667" y="72.333" type="curve"/>
      <point x="159.63" y="72.667"/>
      <point x="135.667" y="101.422"/>
    </contour>
  </outline>
</glyph>
<glyph name="seven" format="2">
  <advance width="376"/>
  <unicode hex="0037"/>
  <outline>
    <contour>
      <point x="71.333" y="0" type="line"/>
      <point x="162.667" y="0" type="line"/>
      <point x="347.667" y="624.333" type="line"/>
      <point x="347.667" y="624.624"/>
      <point x="347.667" y="704.784"/>
      <point x="347.667" y="707" type="curve"/>
      <point x="29.333" y="707" type="line"/>
      <point x="29.333" y="624.333" type="line"/>
      <point x="256.333" y="624.333" type="line"/>
    </contour>
  </outline>
</glyph>
<glyph name="eight" format="2">
  <advance width="414"/>
  <unicode hex="0038"/>
  <outline>
    <contour>
      <point x="115.667" y="370.667" type="curve"/>
      <point x="70.778" y="344.667"/>
      <point x="48.333" y="299.889"/>
      <point x="48.333" y="236.333" type="curve" smooth="yes"/>
      <point x="48.333" y="160.667" type="line" smooth="yes"/>
      <point x="48.333" y="53.104"/>
      <point x="106.696" y="-9.333"/>
      <point x="207.333" y="-9.333" type="curve" smooth="yes"/>
      <point x="308.476" y="-9.333"/>
      <point x="366.333" y="52.548"/>
      <point x="366.333" y="160.667" type="curve" smooth="yes"/>
      <point x="366.333" y="236.333" type="line" smooth="yes"/>
      <point x="366.333" y="301.103"/>
      <point x="344.25" y="345.608"/>
      <point x="299.667" y="370.667" type="curve"/>
      <point x="339.209" y="391.278"/>
      <point x="363.667" y="438.307"/>
      <point x="363.667" y="493.667" type="curve" smooth="yes"/>
      <point x="363.667" y="559.333" type="line" smooth="yes"/>
      <point x="363.667" y="655.814"/>
      <point x="303.427" y="716.333"/>
      <point x="207.333" y="716.333" type="curve" smooth="yes"/>
      <point x="112.367" y="716.333"/>
      <point x="51" y="654.703"/>
      <point x="51" y="559.333" type="curve" smooth="yes"/>
      <point x="51" y="493.667" type="line" smooth="yes"/>
      <point x="51" y="438.776"/>
      <point x="75.634" y="391.892"/>
    </contour>
    <contour>
      <point x="139.333" y="491.667" type="curve" smooth="yes"/>
      <point x="139.333" y="559" type="line" smooth="yes"/>
      <point x="139.333" y="607.768"/>
      <point x="164.478" y="636.333"/>
      <point x="207.333" y="636.333" type="curve" smooth="yes"/>
      <point x="250.769" y="636.333"/>
      <point x="276" y="607.95"/>
      <point x="276" y="559" type="curve" smooth="yes"/>
      <point x="276" y="491.667" type="line" smooth="yes"/>
      <point x="276" y="436.428"/>
      <point x="252.207" y="407.333"/>
      <point x="207.333" y="407.333" type="curve" smooth="yes"/>
      <point x="163.313" y="407.333"/>
      <point x="139.333" y="436.974"/>
    </contour>
    <contour>
      <point x="136.667" y="161.667" type="curve" smooth="yes"/>
      <point x="136.667" y="240.667" type="line" smooth="yes"/>
      <point x="136.667" y="299.085"/>
      <point x="160.813" y="329.333"/>
      <point x="207.333" y="329.333" type="curve" smooth="yes"/>
      <point x="254.833" y="329.333"/>
      <point x="278.667" y="299.702"/>
      <point x="278.667" y="240.667" type="curve" smooth="yes"/>
      <point x="278.667" y="161.667" type="line" smooth="yes"/>
      <point x="278.667" y="99.256"/>
      <point x="255.575" y="69.667"/>
      <point x="207.333" y="69.667" type="curve" smooth="yes"/>
      <point x="160.522" y="69.667"/>
      <point x="136.667" y="100.583"/>
    </contour>
  </outline>
</glyph>
<glyph name="nine" format="2">
  <advance width="406"/>
  <unicode hex="0039"/>
  <outline>
    <contour>
      <point x="109.667" y="0" type="line"/>
      <point x="203" y="0" type="line"/>
      <point x="329.667" y="295.333" type="line" smooth="yes"/>
      <point x="354.66" y="353.157"/>
      <point x="362.333" y="388.98"/>
      <point x="362.333" y="446" type="curve" smooth="yes"/>
      <point x="362.333" y="549.333" type="line" smooth="yes"/>
      <point x="362.333" y="655.078"/>
      <point x="304.512" y="716.333"/>
      <point x="204" y="716.333" type="curve" smooth="yes"/>
      <point x="103.793" y="716.333"/>
      <point x="43.667" y="654.758"/>
      <point x="43.667" y="552" type="curve" smooth="yes"/>
      <point x="43.667" y="433.333" type="line" smooth="yes"/>
      <point x="43.667" y="337.615"/>
      <point x="95.919" y="279.333"/>
      <point x="181.333" y="279.333" type="curve" smooth="yes"/>
      <point x="202.825" y="279.333"/>
      <point x="222.648" y="283.819"/>
      <point x="233" y="291" type="curve"/>
    </contour>
    <contour>
      <point x="135.667" y="440.333" type="curve" smooth="yes"/>
      <point x="135.667" y="552.667" type="line" smooth="yes"/>
      <point x="135.667" y="605.367"/>
      <point x="159.645" y="633.667"/>
      <point x="204" y="633.667" type="curve" smooth="yes"/>
      <point x="247.557" y="633.667"/>
      <point x="271" y="605.087"/>
      <point x="271" y="552.333" type="curve" smooth="yes"/>
      <point x="271" y="436" type="line" smooth="yes"/>
      <point x="271" y="387.315"/>
      <point x="246.664" y="359.667"/>
      <point x="204" y="359.667" type="curve" smooth="yes"/>
      <point x="159.645" y="359.667"/>
      <point x="135.667" y="387.967"/>
    </contour>
  </outline>
</glyph>
<glyph name="colon" format="2">
  <advance width="168"/>
  <unicode hex="003A"/>
  <outline>
    <contour>
      <point x="38" y="0" type="line"/>
      <point x="131.333" y="0" type="line"/>
      <point x="131.333" y="105.667" type="line"/>
      <point x="38" y="105.667" type="line"/>
    </contour>
    <contour>
      <point x="38" y="346" type="line"/>
      <point x="131.333" y="346" type="line"/>
      <point x="131.333" y="451.667" type="line"/>
      <point x="38" y="451.667" type="line"/>
    </contour>
  </outline>
</glyph>
<glyph name="equal" format="2">
  <advance width="430"/>
  <unicode hex="003D"/>
  <outline>
    <contour>
      <point x="38.333" y="340.333" type="line"/>
      <point x="387.667" y="340.333" type="line"/>
      <point x="387.667" y="417" type="line"/>
      <point x="38.333" y="417" type="line"/>
    </contour>
    <contour>
      <point x="38.333" y="147" type="line"/>
      <point x="387.667" y="147" type="line"/>
      <point x="387.667" y="224" type="line"/>
      <point x="38.333" y="224" type="line"/>
    </contour>
  </outline>
</glyph>
<glyph name="greater" format="2">
  <advance width="430"/>
  <unicode hex="003E"/>
  <outline>
    <contour>
      <point x="38.333" y="104" type="line"/>
      <point x="387.667" y="246" type="line"/>
      <point x="387.667" y="319.333" type="line"/>
      <point x="38.333" y="461.667" type="line"/>
      <point x="38.333" y="382" type="line"/>
      <point x="288.333" y="283" type="line"/>
      <point x="38.333" y="183.333" type="line"/>
    </contour>
  </outline>
</glyph>
<glyph name="question" format="2">
  <advance width="376"/>
  <unicode hex="003F"/>
  <outline>
    <contour>
      <point x="140.667" y="189" type="line"/>
      <point x="228.333" y="189" type="line"/>
      <point x="228.333" y="247.333" type="line" smooth="yes"/>
      <point x="228.333" y="290.029"/>
      <point x="233.688" y="309.492"/>
      <point x="254.667" y="342.667" type="curve" smooth="yes"/>
      <point x="293.333" y="404" type="line" smooth="yes"/>
      <point x="323.925" y="452.262"/>
      <point x="342" y="493.586"/>
      <point x="342" y="550.333" type="curve" smooth="yes"/>
      <point x="342" y="655.591"/>
      <point x="284.081" y="716.667"/>
      <point x="184.333" y="716.667" type="curve" smooth="yes"/>
      <point x="79.222" y="716.667"/>
      <point x="27.333" y="651.444"/>
      <point x="27.333" y="519" type="curve"/>
      <point x="116.333" y="519" type="line"/>
      <point x="116.333" y="593.644"/>
      <point x="134.3" y="636"/>
      <point x="184.667" y="636" type="curve" smooth="yes"/>
      <point x="231.282" y="636"/>
      <point x="251.667" y="604.546"/>
      <point x="251.667" y="549.333" type="curve" smooth="yes"/>
      <point x="251.667" y="510.238"/>
      <point x="245.269" y="486.15"/>
      <point x="219" y="443.333" type="curve" smooth="yes"/>
      <point x="178.333" y="377" type="line" smooth="yes"/>
      <point x="147.101" y="326.26"/>
      <point x="140.667" y="300.08"/>
      <point x="140.667" y="250.333" type="curve" smooth="yes"/>
    </contour>
    <contour>
      <point x="138.667" y="0" type="line"/>
      <point x="229.667" y="0" type="line"/>
      <point x="229.667" y="109.333" type="line"/>
      <point x="138.667" y="109.333" type="line"/>
    </contour>
  </outline>
</glyph>
<glyph name="at" format="2">
  <advance width="744"/>
  <unicode hex="0040"/>
  <outline>
    <contour>
      <point x="545.333" y="-8.667" type="line"/>
      <point x="492.4" y="-45.256"/>
      <point x="441.815" y="-60.333"/>
      <point x="372" y="-60.333" type="curve" smooth="yes"/>
      <point x="214.355" y="-60.333"/>
      <point x="126.333" y="37.892"/>
      <point x="126.333" y="214" type="curve" smooth="yes"/>
      <point x="126.333" y="373.333" type="line" smooth="yes"/>
      <point x="126.333" y="543.603"/>
      <point x="214.578" y="639"/>
      <point x="372" y="639" type="curve" smooth="yes"/>
      <point x="527.845" y="639"/>
      <point x="620" y="543.997"/>
      <point x="620" y="383.333" type="curve" smooth="yes"/>
      <point x="620" y="211.667" type="line" smooth="yes"/>
      <point x="620" y="155.058"/>
      <point x="602.509" y="129.333"/>
      <point x="564" y="129.333" type="curve" smooth="yes"/>
      <point x="530.966" y="129.333"/>
      <point x="510.667" y="153.312"/>
      <point x="510.667" y="192.333" type="curve" smooth="yes"/>
      <point x="510.667" y="503.667" type="line"/>
      <point x="428" y="503.667" type="line"/>
      <point x="428" y="464.667" type="line"/>
      <point x="409.069" y="496.634"/>
      <point x="381.8" y="511.667"/>
      <point x="343" y="511.667" type="curve" smooth="yes"/>
      <point x="268.228" y="511.667"/>
      <point x="232.667" y="464.179"/>
      <point x="232.667" y="364.333" type="curve" smooth="yes"/>
      <point x="232.667" y="210.333" type="line" smooth="yes"/>
      <point x="232.667" y="107.688"/>
      <point x="269.907" y="57"/>
      <point x="345.333" y="57" type="curve" smooth="yes"/>
      <point x="399.04" y="57"/>
      <point x="432.07" y="78.435"/>
      <point x="449.667" y="124.667" type="curve"/>
      <point x="468.626" y="81.419"/>
      <point x="509.507" y="57"/>
      <point x="563" y="57" type="curve" smooth="yes"/>
      <point x="650.112" y="57"/>
      <point x="697.333" y="114.639"/>
      <point x="697.333" y="221" type="curve" smooth="yes"/>
      <point x="697.333" y="381" type="line" smooth="yes"/>
      <point x="697.333" y="580.346"/>
      <point x="567.722" y="712.333"/>
      <point x="372" y="712.333" type="curve" smooth="yes"/>
      <point x="174.644" y="712.333"/>
      <point x="47" y="579.321"/>
      <point x="47" y="373.667" type="curve" smooth="yes"/>
      <point x="47" y="210" type="line" smooth="yes"/>
      <point x="47" y="-1.711"/>
      <point x="171.391" y="-133"/>
      <point x="372" y="-133" type="curve" smooth="yes"/>
      <point x="453.521" y="-133"/>
      <point x="521.738" y="-112.158"/>
      <point x="585" y="-68" type="curve"/>
    </contour>
    <contour>
      <point x="371.333" y="131.333" type="curve" smooth="yes"/>
      <point x="332.749" y="131.333"/>
      <point x="315" y="156.118"/>
      <point x="315" y="210" type="curve" smooth="yes"/>
      <point x="315" y="362" type="line" smooth="yes"/>
      <point x="315" y="413.804"/>
      <point x="332.761" y="437.667"/>
      <point x="371.333" y="437.667" type="curve" smooth="yes"/>
      <point x="410.569" y="437.667"/>
      <point x="428.667" y="413.574"/>
      <point x="428.667" y="361.333" type="curve" smooth="yes"/>
      <point x="428.667" y="211.667" type="line" smooth="yes"/>
      <point x="428.667" y="156.706"/>
      <point x="410.565" y="131.333"/>
    </contour>
  </outline>
</glyph>
<glyph name="A" format="2">
  <advance width="480"/>
  <unicode hex="0041"/>
  <anchor x="240.333" y="763.333" name="top"/>
  <anchor x="240.333" y="663.667" name="t.ring"/>
  <anchor x="240.333" y="-86" name="bottom"/>
  <anchor x="467.333" y="0" name="b.cedilla"/>
  <outline>
    <contour>
      <point x="8" y="0" type="line"/>
      <point x="103.667" y="0" type="line"/>
      <point x="143.333" y="165.667" type="line"/>
      <point x="336.333" y="165.667" type="line"/>
      <point x="375.667" y="0" type="line"/>
      <point x="472" y="0" type="line"/>
      <point x="283.333" y="707" type="line"/>
      <point x="197" y="707" type="line"/>
    </contour>
    <contour>
      <point x="161.667" y="246.667" type="line"/>
      <point x="240.333" y="575" type="line"/>
      <point x="318" y="246.667" type="line"/>
    </contour>
  </outline>
</glyph>
<glyph name="B" format="2">
  <advance width="476"/>
  <unicode hex="0042"/>
  <anchor x="204.667" y="763.333" name="top"/>
  <anchor x="204.667" y="-86" name="bottom"/>
  <outline>
    <contour>
      <point x="116.487" y="0" type="line"/>
      <point x="240" y="0" type="line" smooth="yes"/>
      <point x="369.145" y="0"/>
      <point x="428" y="62.027"/>
      <point x="428" y="198.333" type="curve" smooth="yes"/>
      <point x="428" y="293.667"/>
      <point x="398.444" y="347.222"/>
      <point x="335" y="368.333" type="curve"/>
      <point x="394" y="391.444"/>
      <point x="422.667" y="441.222"/>
      <point x="422.667" y="520" type="curve" smooth="yes"/>
      <point x="422.667" y="649.511"/>
      <point x="366.104" y="707"/>
      <point x="239.333" y="707" type="curve" smooth="yes"/>
      <point x="116.487" y="707" type="line"/>
      <point x="116.487" y="624.667" type="line"/>
      <point x="231.667" y="624.667" type="line" smooth="yes"/>
      <point x="302.874" y="624.667"/>
      <point x="330.667" y="593.688"/>
      <point x="330.667" y="514.667" type="curve" smooth="yes"/>
      <point x="330.667" y="441.109"/>
      <point x="299.333" y="407"/>
      <point x="231" y="407" type="curve" smooth="yes"/>
      <point x="116.487" y="407" type="line"/>
      <point x="116.487" y="326.667" type="line"/>
      <point x="231.333" y="326.667" type="line" smooth="yes"/>
      <point x="302.222" y="326.667"/>
      <point x="336" y="287.444"/>
      <point x="336" y="204.667" type="curve" smooth="yes"/>
      <point x="336" y="118.651"/>
      <point x="304.884" y="82.333"/>
      <point x="231.333" y="82.333" type="curve" smooth="yes"/>
      <point x="116.487" y="82.333" type="line"/>
    </contour>
    <contour>
      <point x="55" y="0" type="line"/>
      <point x="146.667" y="-0.003" type="line"/>
      <point x="146.667" y="707.27" type="line"/>
      <point x="55" y="707" type="line"/>
    </contour>
  </outline>
</glyph>
<glyph name="C" format="2">
  <advance width="486"/>
  <unicode hex="0043"/>
  <anchor x="244.333" y="763.333" name="top"/>
  <anchor x="215.333" y="0" name="b.cedilla"/>
  <anchor x="236" y="-86" name="bottom"/>
  <outline>
    <contour>
      <point x="345.333" y="209.667" type="line"/>
      <point x="345.333" y="197.667" type="line" smooth="yes"/>
      <point x="345.333" y="117.708"/>
      <point x="309.923" y="74.333"/>
      <point x="245" y="74.333" type="curve" smooth="yes"/>
      <point x="175.106" y="74.333"/>
      <point x="140.333" y="118.889"/>
      <point x="140.333" y="206.333" type="curve" smooth="yes"/>
      <point x="140.333" y="493.667" type="line" smooth="yes"/>
      <point x="140.333" y="587.379"/>
      <point x="174.646" y="633"/>
      <point x="245" y="633" type="curve" smooth="yes"/>
      <point x="309.863" y="633"/>
      <point x="345.333" y="588.827"/>
      <point x="345.333" y="508.333" type="curve" smooth="yes"/>
      <point x="345.333" y="496.667" type="line"/>
      <point x="437.333" y="496.667" type="line"/>
      <point x="437.333" y="510" type="line" smooth="yes"/>
      <point x="437.333" y="640.255"/>
      <point x="366.556" y="716.333"/>
      <point x="245.333" y="716.333" type="curve" smooth="yes"/>
      <point x="120.912" y="716.333"/>
      <point x="48.333" y="638.741"/>
      <point x="48.333" y="505" type="curve" smooth="yes"/>
      <point x="48.333" y="202.333" type="line" smooth="yes"/>
      <point x="48.333" y="69.366"/>
      <point x="120.41" y="-8"/>
      <point x="243.667" y="-8" type="curve" smooth="yes"/>
      <point x="364.444" y="-8"/>
      <point x="435.667" y="68.091"/>
      <point x="435.667" y="196.667" type="curve" smooth="yes"/>
      <point x="435.667" y="209.667" type="line"/>
    </contour>
  </outline>
</glyph>
<glyph name="D" format="2">
  <advance width="483"/>
  <unicode hex="0044"/>
  <anchor x="204.667" y="763.333" name="top"/>
  <anchor x="204.333" y="-86" name="bottom"/>
  <outline>
    <contour>
      <point x="55" y="0" type="line"/>
      <point x="240.667" y="0" type="line" smooth="yes"/>
      <point x="363.05" y="0"/>
      <point x="435" y="77.839"/>
      <point x="435" y="210.333" type="curve" smooth="yes"/>
      <point x="435" y="496.667" type="line" smooth="yes"/>
      <point x="435" y="630.273"/>
      <point x="365.111" y="707"/>
      <point x="243" y="707" type="curve" smooth="yes"/>
      <point x="55" y="707" type="line"/>
    </contour>
    <contour>
      <point x="146.667" y="82.333" type="line"/>
      <point x="146.667" y="624.333" type="line"/>
      <point x="242" y="624.333" type="line" smooth="yes"/>
      <point x="308.276" y="624.333"/>
      <point x="343" y="576.213"/>
      <point x="343" y="484" type="curve" smooth="yes"/>
      <point x="343" y="214.333" type="line" smooth="yes"/>
      <point x="343" y="128.522"/>
      <point x="307.667" y="82.333"/>
      <point x="242" y="82.333" type="curve" smooth="yes"/>
    </contour>
  </outline>
</glyph>
<glyph name="E" format="2">
  <advance width="403"/>
  <unicode hex="0045"/>
  <anchor x="227.667" y="763.333" name="top"/>
  <anchor x="227.667" y="-86" name="bottom"/>
  <anchor x="370" y="0" name="b.cedilla"/>
  <outline>
    <contour>
      <point x="55" y="0" type="line"/>
      <point x="370" y="0" type="line"/>
      <point x="370" y="82.333" type="line"/>
      <point x="146" y="82.333" type="line"/>
      <point x="146" y="318.333" type="line"/>
      <point x="338.667" y="318.333" type="line"/>
      <point x="338.667" y="400.667" type="line"/>
      <point x="146" y="400.667" type="line"/>
      <point x="146" y="624.333" type="line"/>
      <point x="370" y="624.333" type="line"/>
      <point x="370" y="707" type="line"/>
      <point x="55" y="707" type="line"/>
    </contour>
  </outline>
</glyph>
<glyph name="F" format="2">
  <advance width="397"/>
  <unicode hex="0046"/>
  <anchor x="225.667" y="763.333" name="top"/>
  <anchor x="236" y="-86" name="bottom"/>
  <outline>
    <contour>
      <point x="126.64" y="315" type="line"/>
      <point x="339.667" y="315" type="line"/>
      <point x="339.667" y="397.667" type="line"/>
      <point x="126.64" y="397.667" type="line"/>
    </contour>
    <contour>
      <point x="126.987" y="624.333" type="line"/>
      <point x="370" y="624.333" type="line"/>
      <point x="370" y="707" type="line"/>
      <point x="126.987" y="707" type="line"/>
    </contour>
    <contour>
      <point x="55" y="0" type="line"/>
      <point x="147" y="0" type="line"/>
      <point x="147" y="707.036" type="line"/>
      <point x="55" y="707" type="line"/>
    </contour>
  </outline>
</glyph>
<glyph name="G" format="2">
  <advance width="486"/>
  <unicode hex="0047"/>
  <anchor x="246" y="763.333" name="top"/>
  <anchor x="246" y="-86" name="bottom"/>
  <outline>
    <contour>
      <point x="243.333" y="292.667" type="line"/>
      <point x="345.333" y="292.667" type="line"/>
      <point x="345.333" y="202.333" type="line" smooth="yes"/>
      <point x="345.333" y="118.385"/>
      <point x="310.623" y="74.333"/>
      <point x="244.333" y="74.333" type="curve" smooth="yes"/>
      <point x="174.884" y="74.333"/>
      <point x="140.333" y="118.889"/>
      <point x="140.333" y="206.333" type="curve" smooth="yes"/>
      <point x="140.333" y="493.667" type="line" smooth="yes"/>
      <point x="140.333" y="586.778"/>
      <point x="174.889" y="633"/>
      <point x="244.333" y="633" type="curve" smooth="yes"/>
      <point x="307.247" y="633"/>
      <point x="345.333" y="589.996"/>
      <point x="345.333" y="519.333" type="curve" smooth="yes"/>
      <point x="345.333" y="504.333" type="line"/>
      <point x="437.333" y="504.333" type="line"/>
      <point x="437.333" y="519.333" type="line" smooth="yes"/>
      <point x="437.333" y="641.749"/>
      <point x="364.943" y="716.333"/>
      <point x="245.333" y="716.333" type="curve" smooth="yes"/>
      <point x="120.912" y="716.333"/>
      <point x="48.333" y="638.741"/>
      <point x="48.333" y="505" type="curve" smooth="yes"/>
      <point x="48.333" y="202.333" type="line" smooth="yes"/>
      <point x="48.333" y="68.848"/>
      <point x="119.694" y="-8"/>
      <point x="243" y="-8" type="curve" smooth="yes"/>
      <point x="364.913" y="-8"/>
      <point x="437.333" y="70.04"/>
      <point x="437.333" y="201.667" type="curve" smooth="yes"/>
      <point x="437.333" y="367" type="line"/>
      <point x="243.333" y="367" type="line"/>
    </contour>
  </outline>
</glyph>
<glyph name="H" format="2">
  <advance width="483"/>
  <unicode hex="0048"/>
  <anchor x="241.667" y="763.333" name="top"/>
  <anchor x="241" y="-86" name="bottom"/>
  <outline>
    <contour>
      <point x="126.64" y="319" type="line"/>
      <point x="356.36" y="319" type="line"/>
      <point x="356.36" y="400.667" type="line"/>
      <point x="126.64" y="400.667" type="line"/>
    </contour>
    <contour>
      <point x="336" y="0" type="line"/>
      <point x="428" y="0" type="line"/>
      <point x="428" y="707" type="line"/>
      <point x="336" y="707" type="line"/>
    </contour>
    <contour>
      <point x="55" y="0" type="line"/>
      <point x="147" y="0" type="line"/>
      <point x="147" y="707" type="line"/>
      <point x="55" y="707" type="line"/>
    </contour>
  </outline>
</glyph>
<glyph name="I" format="2">
  <advance width="212"/>
  <unicode hex="0049"/>
  <anchor x="106.667" y="763.333" name="top"/>
  <anchor x="153" y="0" name="b.cedilla"/>
  <anchor x="106.667" y="-86" name="bottom"/>
  <outline>
    <contour>
      <point x="60.332" y="0" type="line"/>
      <point x="153.001" y="0" type="line"/>
      <point x="153.001" y="707" type="line"/>
      <point x="60.332" y="707" type="line"/>
    </contour>
  </outline>
</glyph>
<glyph name="J" format="2">
  <advance width="270"/>
  <unicode hex="004A"/>
  <anchor x="164" y="763.333" name="top"/>
  <anchor x="236" y="-86" name="bottom"/>
  <outline>
    <contour>
      <point x="22.333" y="0" type="line"/>
      <point x="54" y="0" type="line" smooth="yes"/>
      <point x="156.438" y="0"/>
      <point x="209.667" y="51.099"/>
      <point x="209.667" y="149.333" type="curve" smooth="yes"/>
      <point x="209.667" y="707" type="line"/>
      <point x="117.667" y="707" type="line"/>
      <point x="117.667" y="159.333" type="line" smooth="yes"/>
      <point x="117.667" y="108.913"/>
      <point x="93.621" y="82.667"/>
      <point x="47.333" y="82.667" type="curve" smooth="yes"/>
      <point x="22.333" y="82.667" type="line"/>
    </contour>
  </outline>
</glyph>
<glyph name="K" format="2">
  <advance width="472"/>
  <unicode hex="004B"/>
  <anchor x="230.667" y="763.333" name="top"/>
  <anchor x="235" y="-86" name="bottom"/>
  <outline>
    <contour>
      <point x="55" y="0" type="line"/>
      <point x="146.667" y="0" type="line"/>
      <point x="146.667" y="179.333" type="line"/>
      <point x="225.667" y="319.667" type="line"/>
      <point x="367" y="0" type="line"/>
      <point x="466.333" y="0" type="line"/>
      <point x="279.667" y="418" type="line"/>
      <point x="442" y="707" type="line"/>
      <point x="347.333" y="707" type="line"/>
      <point x="146.667" y="333.333" type="line"/>
      <point x="146.667" y="707" type="line"/>
      <point x="55" y="707" type="line"/>
    </contour>
  </outline>
</glyph>
<glyph name="L" format="2">
  <advance width="392"/>
  <unicode hex="004C"/>
  <anchor x="100.667" y="763.333" name="top"/>
  <anchor x="212" y="-86" name="bottom"/>
  <anchor x="297" y="397" name="dot"/>
  <outline>
    <contour>
      <point x="55" y="0" type="line"/>
      <point x="370" y="0" type="line"/>
      <point x="370" y="82.333" type="line"/>
      <point x="147" y="82.333" type="line"/>
      <point x="147" y="707" type="line"/>
      <point x="55" y="707" type="line"/>
    </contour>
  </outline>
</glyph>
<glyph name="M" format="2">
  <advance width="603"/>
  <unicode hex="004D"/>
  <anchor x="302" y="763.333" name="top"/>
  <anchor x="236" y="-86" name="bottom"/>
  <outline>
    <contour>
      <point x="55" y="0" type="line"/>
      <point x="147" y="0" type="line"/>
      <point x="147" y="497" type="line"/>
      <point x="274" y="155" type="line"/>
      <point x="329.333" y="155" type="line"/>
      <point x="456" y="500" type="line"/>
      <point x="456" y="0" type="line"/>
      <point x="548" y="0" type="line"/>
      <point x="548" y="707" type="line"/>
      <point x="456" y="707" type="line"/>
      <point x="302" y="291.333" type="line"/>
      <point x="147" y="707" type="line"/>
      <point x="55" y="707" type="line"/>
    </contour>
  </outline>
</glyph>
<glyph name="N" format="2">
  <advance width="504"/>
  <unicode hex="004E"/>
  <anchor x="251" y="763.333" name="top"/>
  <anchor x="251" y="-86" name="bottom"/>
  <outline>
    <contour>
      <point x="55" y="0" type="line"/>
      <point x="147" y="0" type="line"/>
      <point x="147" y="487.667" type="line"/>
      <point x="357.333" y="0" type="line"/>
      <point x="449.333" y="0" type="line"/>
      <point x="449.333" y="707" type="line"/>
      <point x="357.333" y="707" type="line"/>
      <point x="357.333" y="213" type="line"/>
      <point x="147" y="707" type="line"/>
      <point x="55" y="707" type="line"/>
    </contour>
  </outline>
</glyph>
<glyph name="O" format="2">
  <advance width="486"/>
  <unicode hex="004F"/>
  <anchor x="244.667" y="763.333" name="top"/>
  <anchor x="244.667" y="-86" name="bottom"/>
  <anchor x="212" y="0" name="b.cedilla"/>
  <outline>
    <contour>
      <point x="242.333" y="-8" type="curve" smooth="yes"/>
      <point x="364.27" y="-8"/>
      <point x="437.333" y="70.731"/>
      <point x="437.333" y="202.333" type="curve" smooth="yes"/>
      <point x="437.333" y="505" type="line" smooth="yes"/>
      <point x="437.333" y="639.525"/>
      <point x="367.309" y="716.333"/>
      <point x="244.667" y="716.333" type="curve" smooth="yes"/>
      <point x="120.071" y="716.333"/>
      <point x="48.333" y="639.41"/>
      <point x="48.333" y="505" type="curve" smooth="yes"/>
      <point x="48.333" y="202.333" type="line" smooth="yes"/>
      <point x="48.333" y="68.987"/>
      <point x="119.574" y="-8"/>
    </contour>
    <contour>
      <point x="244.333" y="74.333" type="curve" smooth="yes"/>
      <point x="174.884" y="74.333"/>
      <point x="140.333" y="118.889"/>
      <point x="140.333" y="206.333" type="curve" smooth="yes"/>
      <point x="140.333" y="493.667" type="line" smooth="yes"/>
      <point x="140.333" y="587.222"/>
      <point x="174.548" y="633"/>
      <point x="244.333" y="633" type="curve" smooth="yes"/>
      <point x="311.11" y="633"/>
      <point x="345.333" y="585.663"/>
      <point x="345.333" y="493.667" type="curve" smooth="yes"/>
      <point x="345.333" y="206.333" type="line" smooth="yes"/>
      <point x="345.333" y="122.299"/>
      <point x="308.721" y="74.333"/>
    </contour>
  </outline>
</glyph>
<glyph name="P" format="2">
  <advance width="448"/>
  <unicode hex="0050"/>
  <anchor x="228.333" y="763.333" name="top"/>
  <anchor x="236" y="-86" name="bottom"/>
  <outline>
    <contour>
      <point x="55" y="0" type="line"/>
      <point x="146.667" y="0" type="line"/>
      <point x="146.667" y="286.333" type="line"/>
      <point x="241" y="286.333" type="line" smooth="yes"/>
      <point x="366.111" y="286.333"/>
      <point x="426.333" y="354.222"/>
      <point x="426.333" y="495.333" type="curve" smooth="yes"/>
      <point x="426.333" y="640.265"/>
      <point x="367.653" y="707"/>
      <point x="241" y="707" type="curve" smooth="yes"/>
      <point x="55" y="707" type="line"/>
    </contour>
    <contour>
      <point x="146.667" y="369" type="line"/>
      <point x="146.667" y="624.667" type="line"/>
      <point x="237" y="624.667" type="line" smooth="yes"/>
      <point x="305.264" y="624.667"/>
      <point x="335" y="585.279"/>
      <point x="335" y="495.333" type="curve" smooth="yes"/>
      <point x="335" y="408.038"/>
      <point x="304.613" y="369"/>
      <point x="237" y="369" type="curve" smooth="yes"/>
    </contour>
  </outline>
</glyph>
<glyph name="Q" format="2">
  <advance width="486"/>
  <unicode hex="0051"/>
  <anchor x="243" y="763.333" name="top"/>
  <anchor x="236" y="-86" name="bottom"/>
  <outline>
    <contour>
      <point x="242.974" y="-8.06" type="curve" smooth="yes"/>
      <point x="364.942" y="-8.06"/>
      <point x="437.333" y="70.202"/>
      <point x="437.333" y="202.333" type="curve" smooth="yes"/>
      <point x="437.333" y="505" type="line" smooth="yes"/>
      <point x="437.333" y="639.536"/>
      <point x="367.299" y="716.333"/>
      <point x="244.667" y="716.333" type="curve" smooth="yes"/>
      <point x="119.967" y="716.333"/>
      <point x="48.333" y="639.306"/>
      <point x="48.333" y="505" type="curve" smooth="yes"/>
      <point x="48.333" y="202.333" type="line" smooth="yes"/>
      <point x="48.333" y="68.724"/>
      <point x="119.373" y="-8.06"/>
    </contour>
    <contour>
      <point x="244.333" y="74.333" type="curve" smooth="yes"/>
      <point x="175.164" y="74.333"/>
      <point x="140.333" y="118.534"/>
      <point x="140.333" y="206.333" type="curve" smooth="yes"/>
      <point x="140.333" y="493.667" type="line" smooth="yes"/>
      <point x="140.333" y="587.192"/>
      <point x="174.527" y="633"/>
      <point x="244.333" y="633" type="curve" smooth="yes"/>
      <point x="311.073" y="633"/>
      <point x="345.333" y="585.718"/>
      <point x="345.333" y="493.667" type="curve" smooth="yes"/>
      <point x="345.333" y="206.333" type="line" smooth="yes"/>
      <point x="345.333" y="120.529"/>
      <point x="310.005" y="74.333"/>
    </contour>
    <contour>
      <point x="324" y="-146.667" type="line"/>
      <point x="400" y="-118" type="line"/>
      <point x="341.026" y="30.949" type="line"/>
      <point x="263.049" y="8.292" type="line"/>
    </contour>
  </outline>
</glyph>
<glyph name="S" format="2">
  <advance width="436"/>
  <unicode hex="0053"/>
  <anchor x="216.333" y="763.333" name="top"/>
  <anchor x="193.667" y="0" name="b.cedilla"/>
  <anchor x="216.333" y="-86" name="bottom"/>
  <outline>
    <contour>
      <point x="24.333" y="196.667" type="line"/>
      <point x="26.787" y="62.899"/>
      <point x="91.391" y="-7.333"/>
      <point x="212" y="-7.333" type="curve" smooth="yes"/>
      <point x="334.286" y="-7.333"/>
      <point x="402.333" y="63.375"/>
      <point x="402.333" y="190.333" type="curve" smooth="yes"/>
      <point x="402.333" y="295.051"/>
      <point x="361.347" y="353.804"/>
      <point x="260.667" y="394" type="curve" smooth="yes"/>
      <point x="217.333" y="411.333" type="line" smooth="yes"/>
      <point x="147.79" y="438.889"/>
      <point x="122" y="470.858"/>
      <point x="122" y="530.667" type="curve" smooth="yes"/>
      <point x="122" y="600.222"/>
      <point x="154.021" y="636.333"/>
      <point x="215.667" y="636.333" type="curve" smooth="yes"/>
      <point x="276.778" y="636.333"/>
      <point x="308.222" y="599.111"/>
      <point x="312.333" y="521.667" type="curve"/>
      <point x="397.333" y="521.667" type="line"/>
      <point x="392.547" y="648.867"/>
      <point x="329.208" y="717.333"/>
      <point x="216.333" y="717.333" type="curve" smooth="yes"/>
      <point x="102.749" y="717.333"/>
      <point x="31.333" y="643.453"/>
      <point x="31.333" y="526" type="curve" smooth="yes"/>
      <point x="31.333" y="431.392"/>
      <point x="71.005" y="376.364"/>
      <point x="167" y="336.667" type="curve" smooth="yes"/>
      <point x="210.333" y="318.667" type="line" smooth="yes"/>
      <point x="286.319" y="287.615"/>
      <point x="312" y="254.807"/>
      <point x="312" y="189" type="curve" smooth="yes"/>
      <point x="312" y="110.667"/>
      <point x="280.415" y="72.667"/>
      <point x="215" y="72.667" type="curve" smooth="yes"/>
      <point x="148.504" y="72.667"/>
      <point x="114.89" y="113.312"/>
      <point x="112" y="196.667" type="curve"/>
    </contour>
  </outline>
</glyph>
<glyph name="U" format="2">
  <advance width="484"/>
  <unicode hex="0055"/>
  <anchor x="242.667" y="763.333" name="top"/>
  <anchor x="242.667" y="-86" name="bottom"/>
  <anchor x="278" y="0" name="b.cedilla"/>
  <outline>
    <contour>
      <point x="55" y="707" type="line"/>
      <point x="55" y="181.667" type="line" smooth="yes"/>
      <point x="55" y="70.587"/>
      <point x="132.759" y="-8"/>
      <point x="242.667" y="-8" type="curve" smooth="yes"/>
      <point x="354.163" y="-8"/>
      <point x="429.333" y="68.24"/>
      <point x="429.333" y="181.667" type="curve" smooth="yes"/>
      <point x="429.333" y="707" type="line"/>
      <point x="336.667" y="707" type="line"/>
      <point x="336.667" y="185.333" type="line" smooth="yes"/>
      <point x="336.667" y="117.61"/>
      <point x="305.17" y="74.333"/>
      <point x="242.667" y="74.333" type="curve" smooth="yes"/>
      <point x="182.061" y="74.333"/>
      <point x="147.667" y="115.175"/>
      <point x="147.667" y="185.333" type="curve" smooth="yes"/>
      <point x="147.667" y="707" type="line"/>
    </contour>
  </outline>
</glyph>
<glyph name="V" format="2">
  <advance width="442"/>
  <unicode hex="0056"/>
  <anchor x="221" y="763.333" name="top"/>
  <anchor x="221" y="-86" name="bottom"/>
  <outline>
    <contour>
      <point x="175.667" y="0" type="line"/>
      <point x="267" y="0" type="line"/>
      <point x="434" y="707" type="line"/>
      <point x="334.333" y="707" type="line"/>
      <point x="221" y="137.333" type="line"/>
      <point x="107.333" y="707" type="line"/>
      <point x="8" y="707" type="line"/>
    </contour>
  </outline>
</glyph>
<glyph name="W" format="2">
  <advance width="677"/>
  <unicode hex="0057"/>
  <anchor x="339" y="763.333" name="top"/>
  <anchor x="339" y="-86" name="bottom"/>
  <outline>
    <contour>
      <point x="142.667" y="0" type="line"/>
      <point x="241" y="0" type="line"/>
      <point x="339" y="542" type="line"/>
      <point x="436.667" y="0" type="line"/>
      <point x="535.333" y="0" type="line"/>
      <point x="669.333" y="707" type="line"/>
      <point x="578" y="707" type="line"/>
      <point x="487.667" y="134.667" type="line"/>
      <point x="399" y="707" type="line"/>
      <point x="282.333" y="707" type="line"/>
      <point x="193.667" y="134.667" type="line"/>
      <point x="102.667" y="707" type="line"/>
      <point x="8" y="707" type="line"/>
    </contour>
  </outline>
</glyph>
<glyph name="X" format="2">
  <advance width="425"/>
  <unicode hex="0058"/>
  <anchor x="214" y="763.333" name="top"/>
  <anchor x="236" y="-86" name="bottom"/>
  <outline>
    <contour>
      <point x="8" y="0" type="line"/>
      <point x="105.333" y="0" type="line"/>
      <point x="213" y="277.667" type="line"/>
      <point x="319.667" y="0" type="line"/>
      <point x="417.667" y="0" type="line"/>
      <point x="261.333" y="367.667" type="line"/>
      <point x="405" y="707" type="line"/>
      <point x="307.667" y="707" type="line"/>
      <point x="213.667" y="455.667" type="line"/>
      <point x="117.333" y="707" type="line"/>
      <point x="20.667" y="707" type="line"/>
      <point x="163.667" y="367" type="line"/>
    </contour>
  </outline>
</glyph>
<glyph name="Y" format="2">
  <advance width="409"/>
  <unicode hex="0059"/>
  <anchor x="204.667" y="763.333" name="top"/>
  <anchor x="204.667" y="-86" name="bottom"/>
  <outline>
    <contour>
      <point x="159.333" y="0" type="line"/>
      <point x="250.333" y="0" type="line"/>
      <point x="250.333" y="287.667" type="line"/>
      <point x="401" y="707" type="line"/>
      <point x="300" y="707" type="line"/>
      <point x="204.667" y="400.667" type="line"/>
      <point x="108.667" y="707" type="line"/>
      <point x="8" y="707" type="line"/>
      <point x="159.333" y="288.667" type="line"/>
    </contour>
  </outline>
</glyph>
<glyph name="Z" format="2">
  <advance width="385"/>
  <unicode hex="005A"/>
  <anchor x="198" y="763.333" name="top"/>
  <anchor x="196.333" y="-86" name="bottom"/>
  <outline>
    <contour>
      <point x="28" y="0" type="line"/>
      <point x="360.667" y="0" type="line"/>
      <point x="360.667" y="82.667" type="line"/>
      <point x="117.333" y="82.667" type="line"/>
      <point x="354" y="624.333" type="line"/>
      <point x="354" y="707" type="line"/>
      <point x="38.667" y="707" type="line"/>
      <point x="38.667" y="624.333" type="line"/>
      <point x="264" y="624.333" type="line"/>
      <point x="28" y="82.667" type="line"/>
    </contour>
  </outline>
</glyph>
<glyph name="bracketleft" format="2">
  <advance width="269"/>
  <unicode hex="005B"/>
  <outline>
    <contour>
      <point x="55" y="-86" type="line"/>
      <point x="222.333" y="-86" type="line"/>
      <point x="222.333" y="-3.333" type="line"/>
      <point x="141.333" y="-3.333" type="line"/>
      <point x="141.333" y="675.333" type="line"/>
      <point x="222.333" y="675.333" type="line"/>
      <point x="222.333" y="758" type="line"/>
      <point x="55" y="758" type="line"/>
    </contour>
  </outline>
</glyph>
<glyph name="backslash" format="2">
  <advance width="304"/>
  <unicode hex="005C"/>
  <outline>
    <contour>
      <point x="180.667" y="-10" type="line"/>
      <point x="256.667" y="-10" type="line"/>
      <point x="122.667" y="709.667" type="line"/>
      <point x="47" y="709.667" type="line"/>
    </contour>
  </outline>
</glyph>
<glyph name="bracketright" format="2">
  <advance width="268"/>
  <unicode hex="005D"/>
  <outline>
    <contour>
      <point x="47" y="-86" type="line"/>
      <point x="213.667" y="-86" type="line"/>
      <point x="213.667" y="758" type="line"/>
      <point x="47" y="758" type="line"/>
      <point x="47" y="675.333" type="line"/>
      <point x="127" y="675.333" type="line"/>
      <point x="127" y="-3.333" type="line"/>
      <point x="47" y="-3.333" type="line"/>
    </contour>
  </outline>
</glyph>
<glyph name="asciicircum" format="2">
  <advance width="430"/>
  <unicode hex="005E"/>
  <outline>
    <contour>
      <point x="35" y="286.667" type="line"/>
      <point x="110" y="286.667" type="line"/>
      <point x="213.333" y="600.333" type="line"/>
      <point x="316" y="286.667" type="line"/>
      <point x="391.667" y="286.667" type="line"/>
      <point x="251" y="709.667" type="line"/>
      <point x="175" y="709.667" type="line"/>
    </contour>
  </outline>
</glyph>
<glyph name="grave" format="2">
  <advance width="513"/>
  <unicode hex="0060"/>
  <outline>
    <contour>
      <point x="272.667" y="594.667" type="line"/>
      <point x="345.333" y="594.667" type="line"/>
      <point x="249.333" y="729" type="line"/>
      <point x="156.667" y="729" type="line"/>
    </contour>
  </outline>
</glyph>
<glyph name="a" format="2">
  <advance width="411"/>
  <unicode hex="0061"/>
  <anchor x="209" y="594.667" name="top"/>
  <anchor x="209" y="578" name="t.ring"/>
  <anchor x="209" y="-86" name="bottom"/>
  <anchor x="357.667" y="0" name="b.cedilla"/>
  <outline>
    <contour>
      <point x="276.667" y="0" type="line"/>
      <point x="357.667" y="0" type="line"/>
      <point x="357.667" y="381.667" type="line" smooth="yes"/>
      <point x="357.667" y="483.931"/>
      <point x="301.314" y="541.667"/>
      <point x="201.667" y="541.667" type="curve" smooth="yes"/>
      <point x="108.197" y="541.667"/>
      <point x="51" y="486.008"/>
      <point x="51" y="395" type="curve" smooth="yes"/>
      <point x="51" y="387.667" type="line"/>
      <point x="131.667" y="387.667" type="line"/>
      <point x="131.667" y="395.667" type="line" smooth="yes"/>
      <point x="131.667" y="439.786"/>
      <point x="156.789" y="465.333"/>
      <point x="200.667" y="465.333" type="curve" smooth="yes"/>
      <point x="249.507" y="465.333"/>
      <point x="272" y="437.523"/>
      <point x="272" y="386.667" type="curve" smooth="yes"/>
      <point x="272" y="307" type="line"/>
      <point x="266.195" y="307"/>
      <point x="208.139" y="307"/>
      <point x="202.333" y="307" type="curve" smooth="yes"/>
      <point x="96.515" y="307"/>
      <point x="37.667" y="251.923"/>
      <point x="37.667" y="153" type="curve" smooth="yes"/>
      <point x="37.667" y="49.336"/>
      <point x="85.852" y="-8"/>
      <point x="173" y="-8" type="curve" smooth="yes"/>
      <point x="220.215" y="-8"/>
      <point x="251.405" y="11.088"/>
      <point x="276.667" y="47.667" type="curve"/>
    </contour>
    <contour>
      <point x="272" y="244.667" type="line"/>
      <point x="272" y="155.333" type="line" smooth="yes"/>
      <point x="272" y="99.632"/>
      <point x="243.617" y="66.333"/>
      <point x="196" y="66.333" type="curve" smooth="yes"/>
      <point x="148.22" y="66.333"/>
      <point x="124" y="96.778"/>
      <point x="124" y="155.333" type="curve" smooth="yes"/>
      <point x="124" y="215.333"/>
      <point x="152.778" y="244.667"/>
      <point x="211.667" y="244.667" type="curve" smooth="yes"/>
    </contour>
  </outline>
</glyph>
<glyph name="b" format="2">
  <advance width="420"/>
  <unicode hex="0062"/>
  <anchor x="240" y="590" name="top"/>
  <anchor x="240" y="-86" name="bottom"/>
  <outline>
    <contour>
      <point x="54" y="0" type="line"/>
      <point x="139" y="0" type="line"/>
      <point x="139" y="44.667" type="line"/>
      <point x="163.556" y="9.111"/>
      <point x="195.333" y="-8"/>
      <point x="237.333" y="-8" type="curve" smooth="yes"/>
      <point x="324.79" y="-8"/>
      <point x="374.333" y="56.537"/>
      <point x="374.333" y="170.281" type="curve" smooth="yes"/>
      <point x="374.333" y="362.561" type="line" smooth="yes"/>
      <point x="374.333" y="477.027"/>
      <point x="324.853" y="541.509"/>
      <point x="237.333" y="541.509" type="curve" smooth="yes"/>
      <point x="194.774" y="541.509"/>
      <point x="161.556" y="521.452"/>
      <point x="140.333" y="484.667" type="curve"/>
      <point x="140.333" y="707" type="line"/>
      <point x="54" y="707" type="line"/>
    </contour>
    <contour>
      <point x="215.667" y="68.667" type="curve" smooth="yes"/>
      <point x="165.803" y="68.667"/>
      <point x="139.667" y="107.462"/>
      <point x="139.667" y="181.484" type="curve" smooth="yes"/>
      <point x="139.667" y="350.356" type="line" smooth="yes"/>
      <point x="139.667" y="425.37"/>
      <point x="165.821" y="464.509"/>
      <point x="215.667" y="464.509" type="curve" smooth="yes"/>
      <point x="263.889" y="464.509"/>
      <point x="288" y="426.792"/>
      <point x="288" y="351.023" type="curve" smooth="yes"/>
      <point x="288" y="182.152" type="line" smooth="yes"/>
      <point x="288" y="106.607"/>
      <point x="263.742" y="68.667"/>
    </contour>
  </outline>
</glyph>
<glyph name="c" format="2">
  <advance width="417"/>
  <unicode hex="0063"/>
  <anchor x="205" y="594.667" name="top"/>
  <anchor x="183" y="0" name="b.cedilla"/>
  <anchor x="236" y="-86" name="bottom"/>
  <outline>
    <contour>
      <point x="286.333" y="179.333" type="line"/>
      <point x="286.333" y="164.333" type="line" smooth="yes"/>
      <point x="286.333" y="100.444"/>
      <point x="261" y="68.667"/>
      <point x="210.667" y="68.667" type="curve" smooth="yes"/>
      <point x="157.873" y="68.667"/>
      <point x="133.333" y="104.622"/>
      <point x="133.333" y="182" type="curve" smooth="yes"/>
      <point x="133.333" y="350.667" type="line" smooth="yes"/>
      <point x="133.333" y="428.359"/>
      <point x="157.852" y="464"/>
      <point x="211.667" y="464" type="curve" smooth="yes"/>
      <point x="261.556" y="464"/>
      <point x="286.333" y="432.444"/>
      <point x="286.333" y="369.667" type="curve" smooth="yes"/>
      <point x="286.333" y="353.333" type="line"/>
      <point x="371.333" y="353.333" type="line"/>
      <point x="371.333" y="370.333" type="line" smooth="yes"/>
      <point x="371.333" y="482.659"/>
      <point x="316.095" y="541.667"/>
      <point x="211" y="541.667" type="curve" smooth="yes"/>
      <point x="101.684" y="541.667"/>
      <point x="47" y="479.544"/>
      <point x="47" y="355.667" type="curve" smooth="yes"/>
      <point x="47" y="177" type="line" smooth="yes"/>
      <point x="47" y="54.179"/>
      <point x="102.201" y="-8"/>
      <point x="211.667" y="-8" type="curve" smooth="yes"/>
      <point x="315.889" y="-8"/>
      <point x="371.333" y="52.048"/>
      <point x="371.333" y="165" type="curve" smooth="yes"/>
      <point x="371.333" y="179.333" type="line"/>
    </contour>
  </outline>
</glyph>
<glyph name="d" format="2">
  <advance width="420"/>
  <unicode hex="0064"/>
  <anchor x="185.333" y="590" name="top"/>
  <anchor x="193" y="-86" name="bottom"/>
  <outline>
    <contour>
      <point x="282.667" y="0" type="line"/>
      <point x="366.667" y="0" type="line"/>
      <point x="366.667" y="707" type="line"/>
      <point x="281.333" y="707" type="line"/>
      <point x="281.333" y="484.667" type="line"/>
      <point x="259.778" y="522.333"/>
      <point x="226.444" y="541.667"/>
      <point x="183" y="541.667" type="curve" smooth="yes"/>
      <point x="96.718" y="541.667"/>
      <point x="47" y="476.326"/>
      <point x="47" y="362.667" type="curve" smooth="yes"/>
      <point x="47" y="170.333" type="line" smooth="yes"/>
      <point x="47" y="58.432"/>
      <point x="97.826" y="-8"/>
      <point x="183.667" y="-8" type="curve" smooth="yes"/>
      <point x="225.444" y="-8"/>
      <point x="258.444" y="9.444"/>
      <point x="282.667" y="44.667" type="curve"/>
    </contour>
    <contour>
      <point x="206" y="68.667" type="curve" smooth="yes"/>
      <point x="151.92" y="68.667"/>
      <point x="133.333" y="112.004"/>
      <point x="133.333" y="182" type="curve" smooth="yes"/>
      <point x="133.333" y="350.667" type="line" smooth="yes"/>
      <point x="133.333" y="425.667"/>
      <point x="157.778" y="464"/>
      <point x="205.667" y="464" type="curve" smooth="yes"/>
      <point x="256.444" y="464"/>
      <point x="282" y="425.778"/>
      <point x="282" y="350" type="curve" smooth="yes"/>
      <point x="282" y="181.333" type="line" smooth="yes"/>
      <point x="282" y="107.896"/>
      <point x="255.521" y="68.667"/>
    </contour>
  </outline>
</glyph>
<glyph name="e" format="2">
  <advance width="418"/>
  <unicode hex="0065"/>
  <anchor x="208.667" y="594.667" name="top"/>
  <anchor x="210.333" y="-86" name="bottom"/>
  <anchor x="265.667" y="0" name="b.cedilla"/>
  <outline>
    <contour>
      <point x="133.333" y="238.667" type="line"/>
      <point x="372" y="238.667" type="line"/>
      <point x="372" y="346" type="line" smooth="yes"/>
      <point x="372" y="472.236"/>
      <point x="313.655" y="541.667"/>
      <point x="208" y="541.667" type="curve" smooth="yes"/>
      <point x="103.115" y="541.667"/>
      <point x="47" y="473.729"/>
      <point x="47" y="346" type="curve" smooth="yes"/>
      <point x="47" y="188" type="line" smooth="yes"/>
      <point x="47" y="56.778"/>
      <point x="101.222" y="-8"/>
      <point x="211" y="-8" type="curve" smooth="yes"/>
      <point x="314.127" y="-8"/>
      <point x="370" y="51.009"/>
      <point x="370" y="160.667" type="curve" smooth="yes"/>
      <point x="370" y="164.667" type="line"/>
      <point x="285.667" y="164.667" type="line"/>
      <point x="285.667" y="160.333" type="line" smooth="yes"/>
      <point x="285.667" y="97.889"/>
      <point x="261.333" y="66.667"/>
      <point x="212.333" y="66.667" type="curve" smooth="yes"/>
      <point x="158.923" y="66.667"/>
      <point x="133.333" y="103.469"/>
      <point x="133.333" y="180.333" type="curve" smooth="yes"/>
    </contour>
    <contour>
      <point x="133.333" y="302.667" type="line"/>
      <point x="133.333" y="350.667" type="line" smooth="yes"/>
      <point x="133.333" y="426.133"/>
      <point x="158.796" y="464"/>
      <point x="209.333" y="464" type="curve" smooth="yes"/>
      <point x="261.484" y="464"/>
      <point x="286.333" y="427.738"/>
      <point x="286.333" y="352" type="curve" smooth="yes"/>
      <point x="286.333" y="302.667" type="line"/>
    </contour>
  </outline>
</glyph>
<glyph name="g" format="2">
  <advance width="420"/>
  <unicode hex="0067"/>
  <anchor x="203" y="594.667" name="top"/>
  <anchor x="236" y="-86" name="bottom"/>
  <outline>
    <contour>
      <point x="54" y="-27.333" type="line"/>
      <point x="56.026" y="-115.747"/>
      <point x="112.705" y="-168"/>
      <point x="207.333" y="-168" type="curve" smooth="yes"/>
      <point x="309.157" y="-168"/>
      <point x="366.667" y="-102.798"/>
      <point x="366.667" y="12.667" type="curve" smooth="yes"/>
      <point x="366.667" y="533" type="line"/>
      <point x="281.333" y="533" type="line"/>
      <point x="281.333" y="484.667" type="line"/>
      <point x="260" y="522.333"/>
      <point x="226.667" y="541.667"/>
      <point x="183" y="541.667" type="curve" smooth="yes"/>
      <point x="97.568" y="541.667"/>
      <point x="47" y="475.471"/>
      <point x="47" y="363.333" type="curve" smooth="yes"/>
      <point x="47" y="213.667" type="line" smooth="yes"/>
      <point x="47" y="102.302"/>
      <point x="97.92" y="36"/>
      <point x="183.667" y="36" type="curve" smooth="yes"/>
      <point x="225.873" y="36"/>
      <point x="258.771" y="53.167"/>
      <point x="282.667" y="88" type="curve"/>
      <point x="282.667" y="5" type="line" smooth="yes"/>
      <point x="282.667" y="-61.073"/>
      <point x="258.026" y="-93.333"/>
      <point x="207.667" y="-93.333" type="curve" smooth="yes"/>
      <point x="164.758" y="-93.333"/>
      <point x="136.951" y="-68.217"/>
      <point x="135.667" y="-27.333" type="curve"/>
    </contour>
    <contour>
      <point x="206" y="112.667" type="curve"/>
      <point x="157.258" y="112.667"/>
      <point x="133.333" y="149.83"/>
      <point x="133.333" y="225.667" type="curve" smooth="yes"/>
      <point x="133.333" y="351.333" type="line" smooth="yes"/>
      <point x="133.333" y="425.922"/>
      <point x="157.756" y="464"/>
      <point x="205.667" y="464" type="curve" smooth="yes"/>
      <point x="256.556" y="464"/>
      <point x="282" y="426.159"/>
      <point x="282" y="350.667" type="curve" smooth="yes"/>
      <point x="282" y="225.667" type="line" smooth="yes"/>
      <point x="282" y="152.01"/>
      <point x="255.675" y="113"/>
    </contour>
  </outline>
</glyph>
<glyph name="h" format="2">
  <advance width="423"/>
  <unicode hex="0068"/>
  <anchor x="214" y="763.333" name="top"/>
  <anchor x="214" y="-86" name="bottom"/>
  <outline>
    <contour>
      <point x="54" y="0" type="line"/>
      <point x="140.333" y="0" type="line"/>
      <point x="140.333" y="381.667" type="line" smooth="yes"/>
      <point x="140.333" y="431.832"/>
      <point x="165.747" y="464"/>
      <point x="212" y="464" type="curve" smooth="yes"/>
      <point x="258.109" y="464"/>
      <point x="283.667" y="431.893"/>
      <point x="283.667" y="381.667" type="curve" smooth="yes"/>
      <point x="283.667" y="0" type="line"/>
      <point x="370" y="0" type="line"/>
      <point x="370" y="384" type="line" smooth="yes"/>
      <point x="370" y="485.944"/>
      <point x="322.766" y="541.667"/>
      <point x="236.667" y="541.667" type="curve" smooth="yes"/>
      <point x="197.903" y="541.667"/>
      <point x="162.287" y="522.674"/>
      <point x="140.333" y="490.667" type="curve"/>
      <point x="140.333" y="707" type="line"/>
      <point x="54" y="707" type="line"/>
    </contour>
  </outline>
</glyph>
<glyph name="j" format="2">
  <advance width="203"/>
  <unicode hex="006A"/>
  <outline>
    <contour>
      <point x="56.667" y="611" type="line"/>
      <point x="143.667" y="611" type="line"/>
      <point x="143.667" y="706.333" type="line"/>
      <point x="56.667" y="706.333" type="line"/>
    </contour>
    <contour>
      <point x="-25.667" y="-158" type="line"/>
      <point x="-11.333" y="-158" type="line" smooth="yes"/>
      <point x="90.222" y="-158"/>
      <point x="143.667" y="-106.222"/>
      <point x="143.667" y="-8" type="curve" smooth="yes"/>
      <point x="143.667" y="533" type="line"/>
      <point x="56.667" y="533" type="line"/>
      <point x="56.667" y="-3.667" type="line" smooth="yes"/>
      <point x="56.667" y="-55.003"/>
      <point x="34.111" y="-80.333"/>
      <point x="-13" y="-80.333" type="curve" smooth="yes"/>
      <point x="-25.667" y="-80.333" type="line"/>
    </contour>
  </outline>
</glyph>
<glyph name="k" format="2">
  <advance width="422"/>
  <unicode hex="006B"/>
  <anchor x="203" y="763.333" name="top"/>
  <anchor x="221.333" y="-86" name="bottom"/>
  <outline>
    <contour>
      <point x="54" y="0" type="line"/>
      <point x="140.333" y="0" type="line"/>
      <point x="140.333" y="707" type="line"/>
      <point x="54" y="707" type="line"/>
    </contour>
    <contour>
      <point x="131.763" y="142.921" type="line"/>
      <point x="394" y="533" type="line"/>
      <point x="301.333" y="533" type="line"/>
      <point x="132.201" y="263.306" type="line"/>
    </contour>
    <contour>
      <point x="312" y="0" type="line"/>
      <point x="408.333" y="0" type="line"/>
      <point x="248.481" y="340.905" type="line"/>
      <point x="195.776" y="260.37" type="line"/>
    </contour>
  </outline>
</glyph>
<glyph name="l" format="2">
  <advance width="241"/>
  <unicode hex="006C"/>
  <anchor x="97.667" y="763.333" name="top"/>
  <anchor x="148.333" y="-86" name="bottom"/>
  <anchor x="233.333" y="397" name="dot"/>
  <outline>
    <contour>
      <point x="223" y="0" type="line"/>
      <point x="223" y="76.667" type="line"/>
      <point x="211.333" y="76.667" type="line" smooth="yes"/>
      <point x="164.556" y="76.667"/>
      <point x="141" y="102.333"/>
      <point x="141" y="153.667" type="curve" smooth="yes"/>
      <point x="141" y="707" type="line"/>
      <point x="54" y="707" type="line"/>
      <point x="54" y="149.333" type="line" smooth="yes"/>
      <point x="54" y="51.8"/>
      <point x="107.94" y="0"/>
      <point x="209.667" y="0" type="curve" smooth="yes"/>
    </contour>
  </outline>
</glyph>
<glyph name="m" format="2">
  <advance width="653"/>
  <unicode hex="006D"/>
  <anchor x="328" y="594.667" name="top"/>
  <anchor x="236" y="-86" name="bottom"/>
  <outline>
    <contour>
      <point x="54" y="0" type="line"/>
      <point x="141" y="0" type="line"/>
      <point x="141" y="381.667" type="line" smooth="yes"/>
      <point x="141" y="431.617"/>
      <point x="166.346" y="464"/>
      <point x="212" y="464" type="curve" smooth="yes"/>
      <point x="257.721" y="464"/>
      <point x="283.667" y="431.448"/>
      <point x="283.667" y="381.667" type="curve" smooth="yes"/>
      <point x="283.667" y="0" type="line"/>
      <point x="370" y="0" type="line"/>
      <point x="370" y="382.333" type="line" smooth="yes"/>
      <point x="370" y="431.287"/>
      <point x="396.596" y="464"/>
      <point x="442.333" y="464" type="curve" smooth="yes"/>
      <point x="487.496" y="464"/>
      <point x="512" y="432.01"/>
      <point x="512" y="381.667" type="curve" smooth="yes"/>
      <point x="512" y="0" type="line"/>
      <point x="599" y="0" type="line"/>
      <point x="599" y="384" type="line" smooth="yes"/>
      <point x="599" y="488.749"/>
      <point x="552.958" y="541.667"/>
      <point x="462.333" y="541.667" type="curve" smooth="yes"/>
      <point x="416.831" y="541.667"/>
      <point x="374.583" y="518.157"/>
      <point x="348.667" y="478.333" type="curve"/>
      <point x="325.515" y="518.57"/>
      <point x="284.315" y="541.667"/>
      <point x="237" y="541.667" type="curve" smooth="yes"/>
      <point x="196.119" y="541.667"/>
      <point x="159.879" y="521.812"/>
      <point x="138" y="487.667" type="curve"/>
      <point x="138" y="533" type="line"/>
      <point x="54" y="533" type="line"/>
    </contour>
  </outline>
</glyph>
<glyph name="n" format="2">
  <advance width="423"/>
  <unicode hex="006E"/>
  <anchor x="208" y="594.667" name="top"/>
  <anchor x="208" y="-86" name="bottom"/>
  <anchor x="0" y="760" name="dot"/>
  <outline>
    <contour>
      <point x="54" y="0" type="line"/>
      <point x="140.333" y="0" type="line"/>
      <point x="140.333" y="381.667" type="line" smooth="yes"/>
      <point x="140.333" y="431.387"/>
      <point x="166.135" y="464"/>
      <point x="212" y="464" type="curve" smooth="yes"/>
      <point x="258.109" y="464"/>
      <point x="283.667" y="431.893"/>
      <point x="283.667" y="381.667" type="curve" smooth="yes"/>
      <point x="283.667" y="0" type="line"/>
      <point x="370" y="0" type="line"/>
      <point x="370" y="384" type="line" smooth="yes"/>
      <point x="370" y="485.166"/>
      <point x="322.049" y="541.667"/>
      <point x="236.667" y="541.667" type="curve" smooth="yes"/>
      <point x="195.916" y="541.667"/>
      <point x="159.115" y="521.644"/>
      <point x="137.333" y="487.667" type="curve"/>
      <point x="137.333" y="533" type="line"/>
      <point x="54" y="533" type="line"/>
    </contour>
  </outline>
</glyph>
<glyph name="o" format="2">
  <advance width="419"/>
  <unicode hex="006F"/>
  <anchor x="211" y="594.667" name="top"/>
  <anchor x="211" y="-86" name="bottom"/>
  <anchor x="181.333" y="0" name="b.cedilla"/>
  <outline>
    <contour>
      <point x="211" y="-8" type="curve" smooth="yes"/>
      <point x="318.553" y="-8"/>
      <point x="372.667" y="55.737"/>
      <point x="372.667" y="172" type="curve" smooth="yes"/>
      <point x="372.667" y="360.667" type="line" smooth="yes"/>
      <point x="372.667" y="477.916"/>
      <point x="318.742" y="541.667"/>
      <point x="211" y="541.667" type="curve" smooth="yes"/>
      <point x="101.684" y="541.667"/>
      <point x="47" y="477.878"/>
      <point x="47" y="360.667" type="curve" smooth="yes"/>
      <point x="47" y="172" type="line" smooth="yes"/>
      <point x="47" y="56.105"/>
      <point x="102.204" y="-8"/>
    </contour>
    <contour>
      <point x="210" y="68.667" type="curve" smooth="yes"/>
      <point x="157.894" y="68.667"/>
      <point x="133.333" y="103.277"/>
      <point x="133.333" y="183.667" type="curve" smooth="yes"/>
      <point x="133.333" y="355.667" type="line" smooth="yes"/>
      <point x="133.333" y="429.39"/>
      <point x="157.894" y="464"/>
      <point x="210" y="464" type="curve" smooth="yes"/>
      <point x="261.885" y="464"/>
      <point x="286.333" y="429.253"/>
      <point x="286.333" y="355.667" type="curve" smooth="yes"/>
      <point x="286.333" y="183.667" type="line" smooth="yes"/>
      <point x="286.333" y="104.783"/>
      <point x="260.929" y="68.667"/>
    </contour>
  </outline>
</glyph>
<glyph name="p" format="2">
  <advance width="420"/>
  <unicode hex="0070"/>
  <anchor x="218.667" y="594.667" name="top"/>
  <anchor x="236" y="-86" name="bottom"/>
  <outline>
    <contour>
      <point x="54" y="-158" type="line"/>
      <point x="140.333" y="-158" type="line"/>
      <point x="140.333" y="42.333" type="line"/>
      <point x="163.333" y="8.667"/>
      <point x="195.333" y="-8"/>
      <point x="237.333" y="-8" type="curve" smooth="yes"/>
      <point x="324.667" y="-8"/>
      <point x="374.333" y="56.333"/>
      <point x="374.333" y="170.333" type="curve" smooth="yes"/>
      <point x="374.333" y="362.667" type="line" smooth="yes"/>
      <point x="374.333" y="477"/>
      <point x="325" y="541.667"/>
      <point x="237.333" y="541.667" type="curve" smooth="yes"/>
      <point x="195.333" y="541.667"/>
      <point x="162" y="522"/>
      <point x="139" y="484.667" type="curve"/>
      <point x="139" y="533" type="line"/>
      <point x="54" y="533" type="line"/>
    </contour>
    <contour>
      <point x="215.667" y="68.667" type="curve" smooth="yes"/>
      <point x="166" y="68.667"/>
      <point x="139.667" y="107.667"/>
      <point x="139.667" y="181.333" type="curve" smooth="yes"/>
      <point x="139.667" y="350" type="line" smooth="yes"/>
      <point x="139.667" y="424.667"/>
      <point x="165.667" y="464"/>
      <point x="215.667" y="464" type="curve" smooth="yes"/>
      <point x="263.667" y="464"/>
      <point x="288" y="426.333"/>
      <point x="288" y="350.667" type="curve" smooth="yes"/>
      <point x="288" y="182" type="line" smooth="yes"/>
      <point x="288" y="106.333"/>
      <point x="263.667" y="68.667"/>
    </contour>
  </outline>
</glyph>
<glyph name="q" format="2">
  <advance width="420"/>
  <unicode hex="0071"/>
  <anchor x="203.333" y="594.667" name="top"/>
  <anchor x="236" y="-86" name="bottom"/>
  <outline>
    <contour>
      <point x="281.333" y="-158" type="line"/>
      <point x="366.667" y="-158" type="line"/>
      <point x="366.667" y="533" type="line"/>
      <point x="282.667" y="533" type="line"/>
      <point x="282.667" y="484.667" type="line"/>
      <point x="258.778" y="522.667"/>
      <point x="226" y="541.667"/>
      <point x="183.667" y="541.667" type="curve" smooth="yes"/>
      <point x="96.717" y="541.667"/>
      <point x="47" y="476.644"/>
      <point x="47" y="362.667" type="curve" smooth="yes"/>
      <point x="47" y="170.333" type="line" smooth="yes"/>
      <point x="47" y="57.205"/>
      <point x="96.879" y="-8"/>
      <point x="183.667" y="-8" type="curve" smooth="yes"/>
      <point x="225.444" y="-8"/>
      <point x="258.111" y="8.889"/>
      <point x="281.333" y="42.333" type="curve"/>
    </contour>
    <contour>
      <point x="206" y="68.667" type="curve" smooth="yes"/>
      <point x="156.317" y="68.667"/>
      <point x="133.333" y="104.564"/>
      <point x="133.333" y="182" type="curve" smooth="yes"/>
      <point x="133.333" y="350.667" type="line" smooth="yes"/>
      <point x="133.333" y="425.667"/>
      <point x="157.778" y="464"/>
      <point x="205.667" y="464" type="curve" smooth="yes"/>
      <point x="256.444" y="464"/>
      <point x="282" y="425.778"/>
      <point x="282" y="350" type="curve" smooth="yes"/>
      <point x="282" y="181.333" type="line" smooth="yes"/>
      <point x="282" y="107.896"/>
      <point x="255.521" y="68.667"/>
    </contour>
  </outline>
</glyph>
<glyph name="r" format="2">
  <advance width="302"/>
  <unicode hex="0072"/>
  <anchor x="176.333" y="594.667" name="top"/>
  <anchor x="175.667" y="-86" name="bottom"/>
  <outline>
    <contour>
      <point x="54" y="0" type="line"/>
      <point x="140.333" y="0" type="line"/>
      <point x="140.333" y="364" type="line" smooth="yes"/>
      <point x="140.333" y="424.444"/>
      <point x="177.444" y="460.667"/>
      <point x="231.667" y="460.667" type="curve" smooth="yes"/>
      <point x="247.667" y="460.667"/>
      <point x="265" y="457.556"/>
      <point x="283.667" y="451.333" type="curve"/>
      <point x="283.667" y="538.333" type="line"/>
      <point x="273.222" y="541"/>
      <point x="260.889" y="542.333"/>
      <point x="246.667" y="542.333" type="curve" smooth="yes"/>
      <point x="199.556" y="542.333"/>
      <point x="161.333" y="523.556"/>
      <point x="137.333" y="481.333" type="curve"/>
      <point x="137.333" y="533" type="line"/>
      <point x="54" y="533" type="line"/>
    </contour>
  </outline>
</glyph>
<glyph name="s" format="2">
  <advance width="394"/>
  <unicode hex="0073"/>
  <anchor x="199.333" y="594.667" name="top"/>
  <anchor x="178" y="0" name="b.cedilla"/>
  <anchor x="199" y="-86" name="bottom"/>
  <outline>
    <contour>
      <point x="37.667" y="152.667" type="line"/>
      <point x="37.667" y="146.667" type="line" smooth="yes"/>
      <point x="37.667" y="51.826"/>
      <point x="99.454" y="-8"/>
      <point x="198" y="-8" type="curve" smooth="yes"/>
      <point x="299.251" y="-8"/>
      <point x="361.333" y="50.433"/>
      <point x="361.333" y="146" type="curve" smooth="yes"/>
      <point x="361.333" y="218.889"/>
      <point x="331.168" y="261.375"/>
      <point x="252.667" y="294" type="curve" smooth="yes"/>
      <point x="186" y="321.667" type="line" smooth="yes"/>
      <point x="143.209" y="339.408"/>
      <point x="126.667" y="362.333"/>
      <point x="126.667" y="398.333" type="curve" smooth="yes"/>
      <point x="126.667" y="442.049"/>
      <point x="153.709" y="468.333"/>
      <point x="198.667" y="468.333" type="curve" smooth="yes"/>
      <point x="247.177" y="468.333"/>
      <point x="274.333" y="437.835"/>
      <point x="274.333" y="384" type="curve" smooth="yes"/>
      <point x="274.333" y="378" type="line"/>
      <point x="355.333" y="378" type="line"/>
      <point x="355.333" y="390" type="line" smooth="yes"/>
      <point x="355.333" y="482.585"/>
      <point x="294.742" y="541.667"/>
      <point x="199.667" y="541.667" type="curve" smooth="yes"/>
      <point x="104.604" y="541.667"/>
      <point x="42" y="482.818"/>
      <point x="42" y="393.333" type="curve" smooth="yes"/>
      <point x="42" y="326.062"/>
      <point x="75.079" y="280.773"/>
      <point x="145.667" y="250.667" type="curve" smooth="yes"/>
      <point x="211" y="223" type="line" smooth="yes"/>
      <point x="259.083" y="202.727"/>
      <point x="276.667" y="180.917"/>
      <point x="276.667" y="142" type="curve" smooth="yes"/>
      <point x="276.667" y="92.384"/>
      <point x="249.563" y="65.667"/>
      <point x="200" y="65.667" type="curve" smooth="yes"/>
      <point x="148.586" y="65.667"/>
      <point x="118.333" y="95.6"/>
      <point x="118.333" y="146.667" type="curve" smooth="yes"/>
      <point x="118.333" y="152.667" type="line"/>
    </contour>
  </outline>
</glyph>
<glyph name="t" format="2">
  <advance width="304"/>
  <unicode hex="0074"/>
  <anchor x="166" y="-86" name="bottom"/>
  <anchor x="133.333" y="763.333" name="top"/>
  <outline>
    <contour>
      <point x="262.333" y="0" type="line"/>
      <point x="262.333" y="76" type="line"/>
      <point x="251.667" y="76" type="line" smooth="yes"/>
      <point x="201.117" y="76"/>
      <point x="176.333" y="101.217"/>
      <point x="176.333" y="153" type="curve" smooth="yes"/>
      <point x="176.333" y="469.333" type="line"/>
      <point x="272.333" y="469.333" type="line"/>
      <point x="272.333" y="533" type="line"/>
      <point x="176.333" y="533" type="line"/>
      <point x="176.333" y="676" type="line"/>
      <point x="90" y="638.667" type="line"/>
      <point x="90" y="533" type="line"/>
      <point x="25" y="533" type="line"/>
      <point x="25" y="469.333" type="line"/>
      <point x="90" y="469.333" type="line"/>
      <point x="90" y="148.667" type="line" smooth="yes"/>
      <point x="90" y="49.554"/>
      <point x="143.889" y="0"/>
      <point x="249.667" y="0" type="curve" smooth="yes"/>
    </contour>
  </outline>
</glyph>
<glyph name="u" format="2">
  <advance width="423"/>
  <unicode hex="0075"/>
  <anchor x="212" y="594.667" name="top"/>
  <anchor x="212" y="-86" name="bottom"/>
  <anchor x="243" y="0" name="b.cedilla"/>
  <outline>
    <contour>
      <point x="54" y="533" type="line"/>
      <point x="54" y="169" type="line" smooth="yes"/>
      <point x="54" y="59.273"/>
      <point x="95.386" y="-8"/>
      <point x="212" y="-8" type="curve" smooth="yes"/>
      <point x="330.135" y="-8"/>
      <point x="370" y="57.794"/>
      <point x="370" y="169" type="curve" smooth="yes"/>
      <point x="370" y="533" type="line"/>
      <point x="283.667" y="533" type="line"/>
      <point x="283.667" y="187.189" type="line" smooth="yes"/>
      <point x="283.667" y="114.766"/>
      <point x="273.852" y="68.667"/>
      <point x="212.667" y="68.667" type="curve" smooth="yes"/>
      <point x="151.482" y="68.667"/>
      <point x="140.333" y="115.283"/>
      <point x="140.333" y="187.189" type="curve" smooth="yes"/>
      <point x="140.333" y="533" type="line"/>
    </contour>
  </outline>
</glyph>
<glyph name="v" format="2">
  <advance width="392"/>
  <unicode hex="0076"/>
  <anchor x="196.667" y="594.667" name="top"/>
  <anchor x="196.667" y="-86" name="bottom"/>
  <outline>
    <contour>
      <point x="152" y="0" type="line"/>
      <point x="240" y="0" type="line"/>
      <point x="379.333" y="533" type="line"/>
      <point x="284.667" y="533" type="line"/>
      <point x="196.667" y="137" type="line"/>
      <point x="108" y="533" type="line"/>
      <point x="13.667" y="533" type="line"/>
    </contour>
  </outline>
</glyph>
<glyph name="w" format="2">
  <advance width="601"/>
  <unicode hex="0077"/>
  <anchor x="299.667" y="594.667" name="top"/>
  <anchor x="299.667" y="-86" name="bottom"/>
  <anchor x="299.667" y="578" name="t.ring"/>
  <outline>
    <contour>
      <point x="134.667" y="0" type="line"/>
      <point x="218.333" y="0" type="line"/>
      <point x="299.667" y="377" type="line"/>
      <point x="382.333" y="0" type="line"/>
      <point x="465.333" y="0" type="line"/>
      <point x="587.333" y="533" type="line"/>
      <point x="492.667" y="533" type="line"/>
      <point x="421.333" y="138.333" type="line"/>
      <point x="336" y="533" type="line"/>
      <point x="263.333" y="533" type="line"/>
      <point x="179.667" y="138.333" type="line"/>
      <point x="108" y="533" type="line"/>
      <point x="13.667" y="533" type="line"/>
    </contour>
  </outline>
</glyph>
<glyph name="x" format="2">
  <advance width="368"/>
  <unicode hex="0078"/>
  <anchor x="181.333" y="594.667" name="top"/>
  <anchor x="236" y="-86" name="bottom"/>
  <outline>
    <contour>
      <point x="13.667" y="0" type="line"/>
      <point x="103.667" y="0" type="line"/>
      <point x="181.333" y="182" type="line"/>
      <point x="263.667" y="0" type="line"/>
      <point x="354" y="0" type="line"/>
      <point x="227" y="281" type="line"/>
      <point x="345.333" y="533" type="line"/>
      <point x="254.667" y="533" type="line"/>
      <point x="186.667" y="370.667" type="line"/>
      <point x="112.333" y="533" type="line"/>
      <point x="22.667" y="533" type="line"/>
      <point x="138.333" y="277" type="line"/>
    </contour>
  </outline>
</glyph>
<glyph name="y" format="2">
  <advance width="392"/>
  <unicode hex="0079"/>
  <anchor x="195" y="594.667" name="top"/>
  <anchor x="320" y="-107" name="dot"/>
  <anchor x="195" y="578" name="t.ring"/>
  <outline>
    <contour>
      <point x="47.333" y="-159.333" type="line"/>
      <point x="55.333" y="-159.333" type="line" smooth="yes"/>
      <point x="157.947" y="-159.333"/>
      <point x="205.758" y="-127.378"/>
      <point x="227" y="-46.333" type="curve" smooth="yes"/>
      <point x="379.333" y="533" type="line"/>
      <point x="287" y="533" type="line"/>
      <point x="199" y="154" type="line"/>
      <point x="108" y="533" type="line"/>
      <point x="13.667" y="533" type="line"/>
      <point x="160" y="-18" type="line"/>
      <point x="156.287" y="-30.83" type="line" smooth="yes"/>
      <point x="144.917" y="-67.226"/>
      <point x="120.027" y="-82.333"/>
      <point x="73" y="-82.333" type="curve" smooth="yes"/>
      <point x="47.333" y="-82.333" type="line"/>
    </contour>
  </outline>
</glyph>
<glyph name="z" format="2">
  <advance width="388"/>
  <unicode hex="007A"/>
  <anchor x="186" y="594.667" name="top"/>
  <anchor x="186" y="-86" name="bottom"/>
  <outline>
    <contour>
      <point x="47" y="0" type="line"/>
      <point x="340.667" y="0" type="line"/>
      <point x="340.667" y="75.333" type="line"/>
      <point x="137.667" y="75.333" type="line"/>
      <point x="340.667" y="457.333" type="line"/>
      <point x="340.667" y="533" type="line"/>
      <point x="47" y="533" type="line"/>
      <point x="47" y="457.333" type="line"/>
      <point x="251.333" y="457.333" type="line"/>
      <point x="47" y="75.333" type="line"/>
    </contour>
  </outline>
</glyph>
<glyph name="braceleft" format="2">
  <advance width="314"/>
  <unicode hex="007B"/>
  <outline>
    <contour>
      <point x="269.333" y="-86" type="line"/>
      <point x="269.333" y="-6.333" type="line"/>
      <point x="245.667" y="-6.333" type="line" smooth="yes"/>
      <point x="215.852" y="-6.333"/>
      <point x="201.333" y="11.497"/>
      <point x="201.333" y="43" type="curve" smooth="yes"/>
      <point x="201.333" y="207.333" type="line" smooth="yes"/>
      <point x="201.333" y="279.634"/>
      <point x="187.491" y="317.721"/>
      <point x="141.333" y="339" type="curve"/>
      <point x="188.241" y="357.116"/>
      <point x="201.333" y="395.571"/>
      <point x="201.333" y="469.667" type="curve" smooth="yes"/>
      <point x="201.333" y="629" type="line" smooth="yes"/>
      <point x="201.333" y="661.556"/>
      <point x="216.333" y="678"/>
      <point x="245.667" y="678" type="curve" smooth="yes"/>
      <point x="269.333" y="678" type="line"/>
      <point x="269.333" y="758" type="line"/>
      <point x="223.333" y="758" type="line" smooth="yes"/>
      <point x="150" y="758"/>
      <point x="112.667" y="717.385"/>
      <point x="112.667" y="638.333" type="curve" smooth="yes"/>
      <point x="112.667" y="456" type="line" smooth="yes"/>
      <point x="112.667" y="398.797"/>
      <point x="95.183" y="377.667"/>
      <point x="45" y="377.667" type="curve"/>
      <point x="45" y="299.333" type="line"/>
      <point x="94.826" y="299.333"/>
      <point x="112.667" y="278.15"/>
      <point x="112.667" y="222.667" type="curve" smooth="yes"/>
      <point x="112.667" y="33.667" type="line" smooth="yes"/>
      <point x="112.667" y="-45.645"/>
      <point x="149.767" y="-86"/>
      <point x="223.333" y="-86" type="curve" smooth="yes"/>
    </contour>
  </outline>
</glyph>
<glyph name="asciitilde" format="2">
  <advance width="430"/>
  <unicode hex="007E"/>
  <outline>
    <contour>
      <point x="90.333" y="212.667" type="line"/>
      <point x="108.827" y="248.17"/>
      <point x="125.434" y="266.333"/>
      <point x="152.333" y="266.333" type="curve" smooth="yes"/>
      <point x="188.493" y="266.333"/>
      <point x="225.978" y="216.333"/>
      <point x="281.333" y="216.333" type="curve" smooth="yes"/>
      <point x="330.556" y="216.333"/>
      <point x="365.556" y="244.667"/>
      <point x="397.667" y="311" type="curve"/>
      <point x="337" y="348" type="line"/>
      <point x="318.582" y="310.785"/>
      <point x="303.032" y="293.333"/>
      <point x="275.667" y="293.333" type="curve" smooth="yes"/>
      <point x="235.632" y="293.333"/>
      <point x="202.483" y="344"/>
      <point x="145.333" y="344" type="curve" smooth="yes"/>
      <point x="98.222" y="344"/>
      <point x="60.897" y="313.673"/>
      <point x="29.333" y="249.333" type="curve"/>
    </contour>
  </outline>
</glyph>
<glyph name="cent" format="2">
  <advance width="430"/>
  <unicode hex="00A2"/>
  <outline>
    <contour>
      <point x="191.333" y="-102" type="line"/>
      <point x="248" y="-102" type="line"/>
      <point x="248" y="-5" type="line"/>
      <point x="328.128" y="7.689"/>
      <point x="371.333" y="67.252"/>
      <point x="371.333" y="165" type="curve" smooth="yes"/>
      <point x="371.333" y="179.333" type="line"/>
      <point x="286.333" y="179.333" type="line"/>
      <point x="286.333" y="164.333" type="line" smooth="yes"/>
      <point x="286.333" y="100.974"/>
      <point x="260.091" y="67.915"/>
      <point x="209.85" y="67.915" type="curve" smooth="yes"/>
      <point x="159.807" y="67.915"/>
      <point x="133.333" y="107.376"/>
      <point x="133.333" y="182" type="curve" smooth="yes"/>
      <point x="133.333" y="350.667" type="line" smooth="yes"/>
      <point x="133.333" y="426.464"/>
      <point x="159.037" y="464.635"/>
      <point x="210.123" y="464.635" type="curve" smooth="yes"/>
      <point x="260.934" y="464.635"/>
      <point x="286.333" y="432.986"/>
      <point x="286.333" y="369.667" type="curve" smooth="yes"/>
      <point x="286.333" y="353.333" type="line"/>
      <point x="371.333" y="353.333" type="line"/>
      <point x="371.333" y="370.333" type="line" smooth="yes"/>
      <point x="371.333" y="467.428"/>
      <point x="328.608" y="525.669"/>
      <point x="248" y="538.667" type="curve"/>
      <point x="248" y="634.667" type="line"/>
      <point x="191.333" y="634.667" type="line"/>
      <point x="191.333" y="541" type="line"/>
      <point x="95.974" y="534.513"/>
      <point x="47" y="471.608"/>
      <point x="47" y="355.667" type="curve" smooth="yes"/>
      <point x="47" y="177" type="line" smooth="yes"/>
      <point x="47" y="60.874"/>
      <point x="95.192" y="-0.667"/>
      <point x="191.333" y="-7.333" type="curve"/>
    </contour>
  </outline>
</glyph>
<glyph name="sterling" format="2">
  <advance width="405"/>
  <unicode hex="00A3"/>
  <outline>
    <contour>
      <point x="41.667" y="0" type="line"/>
      <point x="378" y="0" type="line"/>
      <point x="378" y="83.333" type="line"/>
      <point x="141.667" y="83.333" type="line"/>
      <point x="167.956" y="106.343"/>
      <point x="179.333" y="135.514"/>
      <point x="179.333" y="180" type="curve" smooth="yes"/>
      <point x="179.333" y="305.333" type="line"/>
      <point x="300.333" y="305.333" type="line"/>
      <point x="300.333" y="388" type="line"/>
      <point x="179.333" y="388" type="line"/>
      <point x="179.333" y="568.333" type="line" smooth="yes"/>
      <point x="179.333" y="615.895"/>
      <point x="197.14" y="638.667"/>
      <point x="234.333" y="638.667" type="curve" smooth="yes"/>
      <point x="271.312" y="638.667"/>
      <point x="287.667" y="612.942"/>
      <point x="287.667" y="554.667" type="curve"/>
      <point x="375" y="554.667" type="line"/>
      <point x="375" y="660.728"/>
      <point x="325.369" y="717"/>
      <point x="231.667" y="717" type="curve" smooth="yes"/>
      <point x="138.01" y="717"/>
      <point x="86.667" y="659.427"/>
      <point x="86.667" y="554.667" type="curve" smooth="yes"/>
      <point x="86.667" y="388" type="line"/>
      <point x="24.333" y="388" type="line"/>
      <point x="24.333" y="305.333" type="line"/>
      <point x="86.667" y="305.333" type="line"/>
      <point x="86.667" y="181.333" type="line" smooth="yes"/>
      <point x="86.667" y="124.635"/>
      <point x="74.976" y="99.622"/>
      <point x="41.667" y="85.333" type="curve"/>
    </contour>
  </outline>
</glyph>
<glyph name="currency" format="2">
  <advance width="593"/>
  <unicode hex="00A4"/>
  <outline>
    <contour>
      <point x="114" y="88.333" type="line"/>
      <point x="182.333" y="156.333" type="line"/>
      <point x="216.556" y="134.333"/>
      <point x="254.778" y="123.333"/>
      <point x="296.667" y="123.333" type="curve" smooth="yes"/>
      <point x="337.782" y="123.333"/>
      <point x="375.667" y="134"/>
      <point x="410.667" y="156.333" type="curve"/>
      <point x="479.333" y="87.333" type="line"/>
      <point x="539.667" y="147.333" type="line"/>
      <point x="470.333" y="217" type="line"/>
      <point x="491.889" y="249.889"/>
      <point x="502.667" y="287.222"/>
      <point x="502.667" y="329.333" type="curve" smooth="yes"/>
      <point x="502.667" y="371.222"/>
      <point x="491.667" y="408.889"/>
      <point x="469.333" y="442.333" type="curve"/>
      <point x="538.667" y="510.667" type="line"/>
      <point x="478.667" y="570.333" type="line"/>
      <point x="409.667" y="502" type="line"/>
      <point x="375.556" y="524"/>
      <point x="337.889" y="535"/>
      <point x="296.667" y="535" type="curve" smooth="yes"/>
      <point x="254.662" y="535"/>
      <point x="216.444" y="524.333"/>
      <point x="182.333" y="502" type="curve"/>
      <point x="115" y="570.333" type="line"/>
      <point x="54.667" y="510.667" type="line"/>
      <point x="124" y="441.333" type="line"/>
      <point x="102" y="409"/>
      <point x="91" y="371.889"/>
      <point x="91" y="329.333" type="curve" smooth="yes"/>
      <point x="91" y="287.556"/>
      <point x="101.778" y="250.222"/>
      <point x="123" y="217" type="curve"/>
      <point x="54" y="149" type="line"/>
    </contour>
    <contour>
      <point x="296.667" y="205.667" type="curve" smooth="yes"/>
      <point x="226.882" y="205.667"/>
      <point x="176.333" y="257.719"/>
      <point x="176.333" y="329.333" type="curve" smooth="yes"/>
      <point x="176.333" y="400.653"/>
      <point x="227.119" y="452.667"/>
      <point x="296.667" y="452.667" type="curve" smooth="yes"/>
      <point x="366.118" y="452.667"/>
      <point x="417.333" y="400.216"/>
      <point x="417.333" y="329.333" type="curve" smooth="yes"/>
      <point x="417.333" y="258.579"/>
      <point x="365.944" y="205.667"/>
    </contour>
  </outline>
</glyph>
<glyph name="yen" format="2">
  <advance width="405"/>
  <unicode hex="00A5"/>
  <outline>
    <contour>
      <point x="39" y="138.333" type="line"/>
      <point x="156.667" y="138.333" type="line"/>
      <point x="156.667" y="0" type="line"/>
      <point x="248.667" y="0" type="line"/>
      <point x="248.667" y="138.333" type="line"/>
      <point x="366" y="138.333" type="line"/>
      <point x="366" y="207.333" type="line"/>
      <point x="248.667" y="207.333" type="line"/>
      <point x="248.667" y="271.333" type="line"/>
      <point x="366" y="271.333" type="line"/>
      <point x="366" y="341" type="line"/>
      <point x="263" y="341" type="line"/>
      <point x="398" y="707" type="line"/>
      <point x="299" y="707" type="line"/>
      <point x="204.667" y="400.333" type="line"/>
      <point x="108" y="707" type="line"/>
      <point x="7" y="707" type="line"/>
      <point x="142" y="341" type="line"/>
      <point x="39" y="341" type="line"/>
      <point x="39" y="271.333" type="line"/>
      <point x="156.667" y="271.333" type="line"/>
      <point x="156.667" y="207.333" type="line"/>
      <point x="39" y="207.333" type="line"/>
    </contour>
  </outline>
</glyph>
<glyph name="section" format="2">
  <advance width="431"/>
  <unicode hex="00A7"/>
  <outline>
    <contour>
      <point x="68.667" y="-2.667" type="line"/>
      <point x="68.667" y="-120.894"/>
      <point x="112.523" y="-172"/>
      <point x="214" y="-172" type="curve" smooth="yes"/>
      <point x="312.942" y="-172"/>
      <point x="365" y="-118.095"/>
      <point x="365" y="-15.667" type="curve" smooth="yes"/>
      <point x="365" y="60.414"/>
      <point x="342.167" y="103.902"/>
      <point x="291.333" y="124.667" type="curve"/>
      <point x="348.379" y="144.642"/>
      <point x="376.667" y="196.567"/>
      <point x="376.667" y="281.333" type="curve" smooth="yes"/>
      <point x="376.667" y="390.983"/>
      <point x="341.677" y="446.509"/>
      <point x="259" y="468" type="curve" smooth="yes"/>
      <point x="182.571" y="487.86"/>
      <point x="159.667" y="515.685"/>
      <point x="159.667" y="577" type="curve" smooth="yes"/>
      <point x="159.667" y="632.178"/>
      <point x="176.886" y="655"/>
      <point x="218.333" y="655" type="curve" smooth="yes"/>
      <point x="260.417" y="655"/>
      <point x="277.333" y="628.301"/>
      <point x="277.333" y="562.333" type="curve"/>
      <point x="359.667" y="562.333" type="line"/>
      <point x="359.667" y="679.116"/>
      <point x="316.293" y="730.333"/>
      <point x="217.333" y="730.333" type="curve" smooth="yes"/>
      <point x="122.402" y="730.333"/>
      <point x="71.333" y="676.687"/>
      <point x="71.333" y="577" type="curve" smooth="yes"/>
      <point x="71.333" y="502.279"/>
      <point x="93.752" y="458.766"/>
      <point x="142.333" y="439.333" type="curve"/>
      <point x="83.267" y="417.907"/>
      <point x="55" y="366.844"/>
      <point x="55" y="281.333" type="curve" smooth="yes"/>
      <point x="55" y="179.713"/>
      <point x="92.471" y="116.288"/>
      <point x="174" y="95" type="curve" smooth="yes"/>
      <point x="257.277" y="73.254"/>
      <point x="277" y="48.281"/>
      <point x="277" y="-18.333" type="curve" smooth="yes"/>
      <point x="277" y="-71.499"/>
      <point x="256.855" y="-96.667"/>
      <point x="214.333" y="-96.667" type="curve" smooth="yes"/>
      <point x="169.269" y="-96.667"/>
      <point x="151.333" y="-69.58"/>
      <point x="151.333" y="-2.667" type="curve"/>
    </contour>
    <contour>
      <point x="216.333" y="169.333" type="curve" smooth="yes"/>
      <point x="164.359" y="169.333"/>
      <point x="142" y="202.679"/>
      <point x="142" y="281.333" type="curve" smooth="yes"/>
      <point x="142" y="360.601"/>
      <point x="164.101" y="393.667"/>
      <point x="216.333" y="393.667" type="curve" smooth="yes"/>
      <point x="268.097" y="393.667"/>
      <point x="289.667" y="360.842"/>
      <point x="289.667" y="281.333" type="curve" smooth="yes"/>
      <point x="289.667" y="203.649"/>
      <point x="267.002" y="169.333"/>
    </contour>
  </outline>
</glyph>
<glyph name="dieresis" format="2">
  <advance width="513"/>
  <unicode hex="00A8"/>
  <outline>
    <contour>
      <point x="136" y="597" type="line"/>
      <point x="219" y="597" type="line"/>
      <point x="219" y="694.667" type="line"/>
      <point x="136" y="694.667" type="line"/>
    </contour>
    <contour>
      <point x="293.333" y="597" type="line"/>
      <point x="376.333" y="597" type="line"/>
      <point x="376.333" y="694.667" type="line"/>
      <point x="293.333" y="694.667" type="line"/>
    </contour>
  </outline>
</glyph>
<glyph name="copyright" format="2">
  <advance width="748"/>
  <unicode hex="00A9"/>
  <outline>
    <contour>
      <point x="374.667" y="-8.667" type="curve" smooth="yes"/>
      <point x="578" y="-8.667"/>
      <point x="701" y="126"/>
      <point x="701" y="349" type="curve" smooth="yes"/>
      <point x="701" y="572"/>
      <point x="577.667" y="707.667"/>
      <point x="374.667" y="707.667" type="curve" smooth="yes"/>
      <point x="171.333" y="707.667"/>
      <point x="48.333" y="572.667"/>
      <point x="48.333" y="349" type="curve" smooth="yes"/>
      <point x="48.333" y="126.667"/>
      <point x="172" y="-8.667"/>
    </contour>
    <contour>
      <point x="374.667" y="47.667" type="curve" smooth="yes"/>
      <point x="207.333" y="47.667"/>
      <point x="112.333" y="156.667"/>
      <point x="112.333" y="349" type="curve" smooth="yes"/>
      <point x="112.333" y="542.333"/>
      <point x="206.333" y="650.333"/>
      <point x="374.667" y="650.333" type="curve" smooth="yes"/>
      <point x="543" y="650.333"/>
      <point x="637.667" y="542.333"/>
      <point x="637.667" y="349" type="curve" smooth="yes"/>
      <point x="637.667" y="156.333"/>
      <point x="543" y="47.667"/>
    </contour>
    <contour>
      <point x="431" y="289.333" type="line"/>
      <point x="431" y="277.333" type="line" smooth="yes"/>
      <point x="431" y="230.667"/>
      <point x="412.667" y="207.333"/>
      <point x="377" y="207.333" type="curve" smooth="yes"/>
      <point x="338" y="207.333"/>
      <point x="320" y="233.667"/>
      <point x="320" y="290.667" type="curve" smooth="yes"/>
      <point x="320" y="411.667" type="line" smooth="yes"/>
      <point x="320" y="468"/>
      <point x="338.333" y="494"/>
      <point x="377" y="494" type="curve" smooth="yes"/>
      <point x="412.333" y="494"/>
      <point x="431" y="470.333"/>
      <point x="431" y="424" type="curve" smooth="yes"/>
      <point x="431" y="413.333" type="line"/>
      <point x="495" y="413.333" type="line"/>
      <point x="495" y="425.333" type="line" smooth="yes"/>
      <point x="495" y="507.667"/>
      <point x="454.333" y="551"/>
      <point x="376.333" y="551" type="curve" smooth="yes"/>
      <point x="295.333" y="551"/>
      <point x="255.667" y="506.333"/>
      <point x="255.667" y="415.333" type="curve" smooth="yes"/>
      <point x="255.667" y="287" type="line" smooth="yes"/>
      <point x="255.667" y="195.333"/>
      <point x="295.333" y="149.667"/>
      <point x="376.333" y="149.667" type="curve" smooth="yes"/>
      <point x="453.667" y="149.667"/>
      <point x="495" y="194.667"/>
      <point x="495" y="277.333" type="curve" smooth="yes"/>
      <point x="495" y="289.333" type="line"/>
    </contour>
  </outline>
</glyph>
<glyph name="ordfeminine" format="2">
  <advance width="305"/>
  <unicode hex="00AA"/>
  <outline>
    <contour>
      <point x="189.667" y="440" type="line"/>
      <point x="257" y="440" type="line"/>
      <point x="257" y="661" type="line" smooth="yes"/>
      <point x="257" y="727.667"/>
      <point x="218" y="765.333"/>
      <point x="149.667" y="765.333" type="curve" smooth="yes"/>
      <point x="84.333" y="765.333"/>
      <point x="46.333" y="729.667"/>
      <point x="46.333" y="669" type="curve" smooth="yes"/>
      <point x="46.333" y="666" type="line"/>
      <point x="112" y="666" type="line"/>
      <point x="112" y="670.333" type="line" smooth="yes"/>
      <point x="112" y="690.667"/>
      <point x="126" y="703.667"/>
      <point x="148.667" y="703.667" type="curve" smooth="yes"/>
      <point x="174" y="703.667"/>
      <point x="186.333" y="691.333"/>
      <point x="186.333" y="666" type="curve" smooth="yes"/>
      <point x="186.333" y="629" type="line"/>
      <point x="147.667" y="629" type="line" smooth="yes"/>
      <point x="77.333" y="629"/>
      <point x="37.333" y="595.333"/>
      <point x="37.333" y="535.333" type="curve" smooth="yes"/>
      <point x="37.333" y="470"/>
      <point x="68.667" y="435"/>
      <point x="126.333" y="435" type="curve" smooth="yes"/>
      <point x="153" y="435"/>
      <point x="170.333" y="444.333"/>
      <point x="189.667" y="468" type="curve"/>
    </contour>
    <contour>
      <point x="186.333" y="578.667" type="line"/>
      <point x="186.333" y="540.667" type="line" smooth="yes"/>
      <point x="186.333" y="513.667"/>
      <point x="171" y="498"/>
      <point x="145.333" y="498" type="curve" smooth="yes"/>
      <point x="121" y="498"/>
      <point x="107.667" y="511.667"/>
      <point x="107.667" y="537.667" type="curve" smooth="yes"/>
      <point x="107.667" y="565.333"/>
      <point x="123.667" y="578.667"/>
      <point x="157.333" y="578.667" type="curve" smooth="yes"/>
    </contour>
  </outline>
</glyph>
<glyph name="guillemotleft" format="2">
  <advance width="439"/>
  <unicode hex="00AB"/>
  <outline>
    <contour>
      <point x="207" y="78" type="line"/>
      <point x="207" y="167.333" type="line"/>
      <point x="106.333" y="270" type="line"/>
      <point x="207" y="373.333" type="line"/>
      <point x="207" y="463" type="line"/>
      <point x="18" y="270" type="line"/>
    </contour>
    <contour>
      <point x="385" y="78" type="line"/>
      <point x="385" y="167.333" type="line"/>
      <point x="284.667" y="270" type="line"/>
      <point x="385" y="373.333" type="line"/>
      <point x="385" y="463" type="line"/>
      <point x="196.667" y="270" type="line"/>
    </contour>
  </outline>
</glyph>
<glyph name="logicalnot" format="2">
  <advance width="430"/>
  <unicode hex="00AC"/>
  <outline>
    <contour>
      <point x="40.667" y="267.333" type="line"/>
      <point x="303" y="267.333" type="line"/>
      <point x="303" y="159" type="line"/>
      <point x="389.333" y="159" type="line"/>
      <point x="389.333" y="345" type="line"/>
      <point x="40.667" y="345" type="line"/>
    </contour>
  </outline>
</glyph>
<glyph name="registered" format="2">
  <advance width="468"/>
  <unicode hex="00AE"/>
  <outline>
    <contour>
      <point x="234" y="317" type="curve" smooth="yes"/>
      <point x="344.807" y="317"/>
      <point x="413" y="391.668"/>
      <point x="413" y="513" type="curve" smooth="yes"/>
      <point x="413" y="633.261"/>
      <point x="344.579" y="707.667"/>
      <point x="234" y="707.667" type="curve" smooth="yes"/>
      <point x="124.117" y="707.667"/>
      <point x="55" y="632.523"/>
      <point x="55" y="513" type="curve" smooth="yes"/>
      <point x="55" y="392.319"/>
      <point x="123.801" y="317"/>
    </contour>
    <contour>
      <point x="234" y="351.667" type="curve" smooth="yes"/>
      <point x="143.998" y="351.667"/>
      <point x="93" y="410.003"/>
      <point x="93" y="513" type="curve" smooth="yes"/>
      <point x="93" y="613.966"/>
      <point x="144.864" y="672.667"/>
      <point x="234" y="672.667" type="curve" smooth="yes"/>
      <point x="322.437" y="672.667"/>
      <point x="374.333" y="613.649"/>
      <point x="374.333" y="513" type="curve" smooth="yes"/>
      <point x="374.333" y="411.154"/>
      <point x="322.568" y="351.667"/>
    </contour>
    <contour>
      <point x="175.667" y="405.333" type="line"/>
      <point x="215.333" y="405.333" type="line"/>
      <point x="215.333" y="493.667" type="line"/>
      <point x="236" y="493.667" type="line"/>
      <point x="265.667" y="405.333" type="line"/>
      <point x="308" y="405.333" type="line"/>
      <point x="274" y="502.667" type="line"/>
      <point x="292.638" y="513.836"/>
      <point x="301.79" y="532.346"/>
      <point x="301.667" y="558.667" type="curve" smooth="yes"/>
      <point x="301.458" y="601.495"/>
      <point x="280.287" y="623"/>
      <point x="238.333" y="623" type="curve" smooth="yes"/>
      <point x="175.667" y="623" type="line"/>
    </contour>
    <contour>
      <point x="215.333" y="529" type="line"/>
      <point x="215.333" y="587.333" type="line"/>
      <point x="234.667" y="587.333" type="line" smooth="yes"/>
      <point x="254.816" y="587.333"/>
      <point x="262" y="579.888"/>
      <point x="262" y="559" type="curve" smooth="yes"/>
      <point x="262" y="537.181"/>
      <point x="254.548" y="529"/>
      <point x="234.667" y="529" type="curve" smooth="yes"/>
    </contour>
  </outline>
</glyph>
<glyph name="degree" format="2">
  <advance width="351"/>
  <unicode hex="00B0"/>
  <outline>
    <contour>
      <point x="48.333" y="590.333" type="curve" smooth="yes"/>
      <point x="48.333" y="518.578"/>
      <point x="103.199" y="464"/>
      <point x="175.333" y="464" type="curve" smooth="yes"/>
      <point x="248.131" y="464"/>
      <point x="302.667" y="517.917"/>
      <point x="302.667" y="590.333" type="curve" smooth="yes"/>
      <point x="302.667" y="663.281"/>
      <point x="248.281" y="717.333"/>
      <point x="175.333" y="717.333" type="curve" smooth="yes"/>
      <point x="103.053" y="717.333"/>
      <point x="48.333" y="662.614"/>
    </contour>
    <contour>
      <point x="175.333" y="519.667" type="curve" smooth="yes"/>
      <point x="135.698" y="519.667"/>
      <point x="108" y="548.852"/>
      <point x="108" y="590.333" type="curve" smooth="yes"/>
      <point x="108" y="632.012"/>
      <point x="135.55" y="661.333"/>
      <point x="175.333" y="661.333" type="curve" smooth="yes"/>
      <point x="214.977" y="661.333"/>
      <point x="243.667" y="631.473"/>
      <point x="243.667" y="590.333" type="curve" smooth="yes"/>
      <point x="243.667" y="548.975"/>
      <point x="215.567" y="519.667"/>
    </contour>
  </outline>
</glyph>
<glyph name="plusminus" format="2">
  <advance width="430"/>
  <unicode hex="00B1"/>
  <outline>
    <contour>
      <point x="80" y="250" type="line"/>
      <point x="211.667" y="250" type="line"/>
      <point x="211.667" y="198.333" type="line"/>
      <point x="298" y="198.333" type="line"/>
      <point x="298" y="329.667" type="line"/>
      <point x="350.333" y="329.667" type="line"/>
      <point x="350.333" y="416" type="line"/>
      <point x="218.667" y="416" type="line"/>
      <point x="218.667" y="468.333" type="line"/>
      <point x="132.333" y="468.333" type="line"/>
      <point x="132.333" y="336.333" type="line"/>
      <point x="80" y="336.333" type="line"/>
    </contour>
    <contour>
      <point x="38.333" y="19.667" type="line"/>
      <point x="392" y="19.667" type="line"/>
      <point x="392" y="102.333" type="line"/>
      <point x="38.333" y="102.333" type="line"/>
    </contour>
  </outline>
</glyph>
<glyph name="twosuperior" format="2">
  <advance width="281"/>
  <unicode hex="00B2"/>
  <outline>
    <contour>
      <point x="32.667" y="440" type="line"/>
      <point x="248.333" y="440" type="line"/>
      <point x="248.333" y="508" type="line"/>
      <point x="118.667" y="508" type="line"/>
      <point x="214.333" y="652.333" type="line" smooth="yes"/>
      <point x="240.295" y="691.425"/>
      <point x="248" y="714.367"/>
      <point x="248" y="748.667" type="curve" smooth="yes"/>
      <point x="248" y="775" type="line" smooth="yes"/>
      <point x="248" y="835.799"/>
      <point x="206.532" y="875"/>
      <point x="142" y="875" type="curve" smooth="yes"/>
      <point x="76.954" y="875"/>
      <point x="35" y="836.168"/>
      <point x="35" y="776.333" type="curve" smooth="yes"/>
      <point x="35" y="742.333" type="line"/>
      <point x="107.667" y="742.333" type="line"/>
      <point x="107.667" y="768.333" type="line" smooth="yes"/>
      <point x="107.667" y="794.95"/>
      <point x="118.75" y="808"/>
      <point x="140" y="808" type="curve" smooth="yes"/>
      <point x="161.212" y="808"/>
      <point x="173.333" y="794.994"/>
      <point x="173.333" y="770.667" type="curve" smooth="yes"/>
      <point x="173.333" y="750" type="line" smooth="yes"/>
      <point x="173.333" y="725.707"/>
      <point x="168.728" y="711.395"/>
      <point x="151.667" y="685.667" type="curve" smooth="yes"/>
      <point x="32.667" y="504.667" type="line"/>
    </contour>
  </outline>
</glyph>
<glyph name="threesuperior" format="2">
  <advance width="277"/>
  <unicode hex="00B3"/>
  <outline>
    <contour>
      <point x="30.333" y="554.333" type="line"/>
      <point x="30.333" y="527" type="line" smooth="yes"/>
      <point x="30.333" y="463.491"/>
      <point x="68.978" y="427"/>
      <point x="136.667" y="427" type="curve" smooth="yes"/>
      <point x="203.778" y="427"/>
      <point x="245.667" y="467.889"/>
      <point x="245.667" y="533.667" type="curve" smooth="yes"/>
      <point x="245.667" y="573.333" type="line" smooth="yes"/>
      <point x="245.667" y="620.357"/>
      <point x="232.982" y="643.242"/>
      <point x="198.667" y="657.333" type="curve"/>
      <point x="230.98" y="673.208"/>
      <point x="244.333" y="696.378"/>
      <point x="244.333" y="736.667" type="curve" smooth="yes"/>
      <point x="244.333" y="765" type="line" smooth="yes"/>
      <point x="244.333" y="829.556"/>
      <point x="204.222" y="868"/>
      <point x="136.667" y="868" type="curve" smooth="yes"/>
      <point x="71.282" y="868"/>
      <point x="30.333" y="829.496"/>
      <point x="30.333" y="767.667" type="curve" smooth="yes"/>
      <point x="30.333" y="740" type="line"/>
      <point x="103" y="740" type="line"/>
      <point x="103" y="764" type="line" smooth="yes"/>
      <point x="103" y="788.314"/>
      <point x="113.85" y="800.667"/>
      <point x="135.667" y="800.667" type="curve" smooth="yes"/>
      <point x="158.865" y="800.667"/>
      <point x="169" y="787.336"/>
      <point x="169" y="760" type="curve" smooth="yes"/>
      <point x="169" y="728.333" type="line" smooth="yes"/>
      <point x="169" y="700.542"/>
      <point x="157.563" y="686.667"/>
      <point x="132" y="686.667" type="curve" smooth="yes"/>
      <point x="114" y="686.667" type="line"/>
      <point x="114" y="620.333" type="line"/>
      <point x="131.333" y="620.333" type="line" smooth="yes"/>
      <point x="161.043" y="620.333"/>
      <point x="170.333" y="607.104"/>
      <point x="170.333" y="574.333" type="curve" smooth="yes"/>
      <point x="170.333" y="536.333" type="line" smooth="yes"/>
      <point x="170.333" y="507.657"/>
      <point x="160.238" y="494.333"/>
      <point x="135.667" y="494.333" type="curve" smooth="yes"/>
      <point x="114.363" y="494.333"/>
      <point x="102.333" y="507.617"/>
      <point x="102.333" y="531" type="curve" smooth="yes"/>
      <point x="102.333" y="554.333" type="line"/>
    </contour>
  </outline>
</glyph>
<glyph name="acute" format="2">
  <advance width="513"/>
  <unicode hex="00B4"/>
  <outline>
    <contour>
      <point x="167.333" y="594.667" type="line"/>
      <point x="240" y="594.667" type="line"/>
      <point x="356" y="729" type="line"/>
      <point x="263.333" y="729" type="line"/>
    </contour>
  </outline>
</glyph>
<glyph name="mu" format="2">
  <advance width="421"/>
  <unicode hex="00B5"/>
  <outline>
    <contour>
      <point x="54" y="-159.333" type="line"/>
      <point x="138" y="-159.333" type="line"/>
      <point x="138" y="13.333" type="line"/>
      <point x="153.222" y="-0.222"/>
      <point x="173.222" y="-7"/>
      <point x="198" y="-7" type="curve" smooth="yes"/>
      <point x="235.877" y="-7"/>
      <point x="269.119" y="12.8"/>
      <point x="285.333" y="45.333" type="curve"/>
      <point x="285.333" y="0" type="line"/>
      <point x="367.333" y="0" type="line"/>
      <point x="367.333" y="533" type="line"/>
      <point x="281.667" y="533" type="line"/>
      <point x="281.667" y="150" type="line" smooth="yes"/>
      <point x="281.667" y="99.821"/>
      <point x="254.102" y="68"/>
      <point x="210.667" y="68" type="curve" smooth="yes"/>
      <point x="166.319" y="68"/>
      <point x="139.667" y="98.786"/>
      <point x="139.667" y="150" type="curve" smooth="yes"/>
      <point x="139.667" y="533" type="line"/>
      <point x="54" y="533" type="line"/>
    </contour>
  </outline>
</glyph>
<glyph name="paragraph" format="2">
  <advance width="543"/>
  <unicode hex="00B6"/>
  <outline>
    <contour>
      <point x="225" y="-158" type="line"/>
      <point x="308.333" y="-158" type="line"/>
      <point x="308.333" y="630" type="line"/>
      <point x="378.333" y="630" type="line"/>
      <point x="378.333" y="-158" type="line"/>
      <point x="460.667" y="-158" type="line"/>
      <point x="460.667" y="707" type="line"/>
      <point x="258.667" y="707" type="line" smooth="yes"/>
      <point x="140.542" y="707"/>
      <point x="55" y="616.004"/>
      <point x="55" y="490.333" type="curve" smooth="yes"/>
      <point x="55" y="370.394"/>
      <point x="125.104" y="280.477"/>
      <point x="225" y="272.333" type="curve"/>
    </contour>
  </outline>
</glyph>
<glyph name="cedilla" format="2">
  <advance width="431"/>
  <unicode hex="00B8"/>
  <outline>
    <contour>
      <point x="152.667" y="-158" type="line"/>
      <point x="239.333" y="-158" type="line"/>
      <point x="299.667" y="11.333" type="line"/>
      <point x="224.667" y="11.333" type="line"/>
    </contour>
  </outline>
</glyph>
<glyph name="ordmasculine" format="2">
  <advance width="307"/>
  <unicode hex="00BA"/>
  <outline>
    <contour>
      <point x="42.667" y="556" type="line" smooth="yes"/>
      <point x="42.667" y="474.385"/>
      <point x="79.06" y="435"/>
      <point x="154.667" y="435" type="curve" smooth="yes"/>
      <point x="228.971" y="435"/>
      <point x="264.333" y="474.002"/>
      <point x="264.333" y="556" type="curve" smooth="yes"/>
      <point x="264.333" y="645" type="line" smooth="yes"/>
      <point x="264.333" y="727.119"/>
      <point x="229.507" y="765.333"/>
      <point x="154.667" y="765.333" type="curve" smooth="yes"/>
      <point x="78.067" y="765.333"/>
      <point x="42.667" y="727.289"/>
      <point x="42.667" y="645" type="curve" smooth="yes"/>
    </contour>
    <contour>
      <point x="154.333" y="499.667" type="curve" smooth="yes"/>
      <point x="127.222" y="499.667"/>
      <point x="113.667" y="518.556"/>
      <point x="113.667" y="556.333" type="curve" smooth="yes"/>
      <point x="113.667" y="644.667" type="line" smooth="yes"/>
      <point x="113.667" y="682.527"/>
      <point x="127.493" y="702"/>
      <point x="154.333" y="702" type="curve" smooth="yes"/>
      <point x="180.741" y="702"/>
      <point x="194" y="682.823"/>
      <point x="194" y="644.667" type="curve" smooth="yes"/>
      <point x="194" y="556.333" type="line" smooth="yes"/>
      <point x="194" y="518.403"/>
      <point x="180.889" y="499.667"/>
    </contour>
  </outline>
</glyph>
<glyph name="guillemotright" format="2">
  <advance width="439"/>
  <unicode hex="00BB"/>
  <outline>
    <contour>
      <point x="54" y="78" type="line"/>
      <point x="243" y="270" type="line"/>
      <point x="54" y="463" type="line"/>
      <point x="54" y="373.333" type="line"/>
      <point x="154.667" y="270" type="line"/>
      <point x="54" y="167.333" type="line"/>
    </contour>
    <contour>
      <point x="232.667" y="78" type="line"/>
      <point x="420.667" y="270" type="line"/>
      <point x="232.667" y="463" type="line"/>
      <point x="232.667" y="373.333" type="line"/>
      <point x="333.333" y="270" type="line"/>
      <point x="232.667" y="167.333" type="line"/>
    </contour>
  </outline>
</glyph>
<glyph name="onequarter" format="2">
  <advance width="671"/>
  <unicode hex="00BC"/>
  <outline>
    <contour>
      <point x="140" y="0" type="line"/>
      <point x="211.333" y="0" type="line"/>
      <point x="469.333" y="709.667" type="line"/>
      <point x="398" y="709.667" type="line"/>
    </contour>
    <contour>
      <point x="86.667" y="280" type="line"/>
      <point x="163.667" y="280" type="line"/>
      <point x="163.667" y="707.667" type="line"/>
      <point x="86.667" y="707.667" type="line"/>
      <point x="23" y="659.667" type="line"/>
      <point x="23" y="573" type="line"/>
      <point x="86.667" y="621.667" type="line"/>
    </contour>
    <contour>
      <point x="402.333" y="72" type="line"/>
      <point x="541" y="72" type="line"/>
      <point x="541" y="-0.667" type="line"/>
      <point x="616.333" y="-0.667" type="line"/>
      <point x="616.333" y="72" type="line"/>
      <point x="647.333" y="72" type="line"/>
      <point x="647.333" y="140" type="line"/>
      <point x="616.333" y="140" type="line"/>
      <point x="616.333" y="233" type="line"/>
      <point x="541" y="233" type="line"/>
      <point x="541" y="140" type="line"/>
      <point x="478" y="140" type="line"/>
      <point x="571.667" y="427" type="line"/>
      <point x="496.333" y="427" type="line"/>
      <point x="402.333" y="140" type="line"/>
    </contour>
  </outline>
</glyph>
<glyph name="onehalf" format="2">
  <advance width="676"/>
  <unicode hex="00BD"/>
  <outline>
    <contour>
      <point x="140" y="0" type="line"/>
      <point x="211.333" y="0" type="line"/>
      <point x="469.333" y="709.667" type="line"/>
      <point x="398" y="709.667" type="line"/>
    </contour>
    <contour>
      <point x="86.667" y="280" type="line"/>
      <point x="163.667" y="280" type="line"/>
      <point x="163.667" y="707.667" type="line"/>
      <point x="86.667" y="707.667" type="line"/>
      <point x="23" y="659.667" type="line"/>
      <point x="23" y="573" type="line"/>
      <point x="86.667" y="621.667" type="line"/>
    </contour>
    <contour>
      <point x="427.333" y="0" type="line"/>
      <point x="643" y="0" type="line"/>
      <point x="643" y="68" type="line"/>
      <point x="513.333" y="68" type="line"/>
      <point x="609" y="212.333" type="line" smooth="yes"/>
      <point x="634.962" y="251.425"/>
      <point x="642.667" y="274.367"/>
      <point x="642.667" y="308.667" type="curve" smooth="yes"/>
      <point x="642.667" y="335" type="line" smooth="yes"/>
      <point x="642.667" y="395.799"/>
      <point x="601.198" y="435"/>
      <point x="536.667" y="435" type="curve" smooth="yes"/>
      <point x="471.621" y="435"/>
      <point x="429.667" y="396.168"/>
      <point x="429.667" y="336.333" type="curve" smooth="yes"/>
      <point x="429.667" y="302.333" type="line"/>
      <point x="502.333" y="302.333" type="line"/>
      <point x="502.333" y="328.333" type="line" smooth="yes"/>
      <point x="502.333" y="354.95"/>
      <point x="513.417" y="368"/>
      <point x="534.667" y="368" type="curve" smooth="yes"/>
      <point x="555.879" y="368"/>
      <point x="568" y="354.994"/>
      <point x="568" y="330.667" type="curve" smooth="yes"/>
      <point x="568" y="310" type="line" smooth="yes"/>
      <point x="568" y="285.707"/>
      <point x="563.395" y="271.395"/>
      <point x="546.333" y="245.667" type="curve" smooth="yes"/>
      <point x="427.333" y="64.667" type="line"/>
    </contour>
  </outline>
</glyph>
<glyph name="threequarters" format="2">
  <advance width="690"/>
  <unicode hex="00BE"/>
  <outline>
    <contour>
      <point x="196.333" y="0" type="line"/>
      <point x="267.667" y="0" type="line"/>
      <point x="525.667" y="709.667" type="line"/>
      <point x="454.333" y="709.667" type="line"/>
    </contour>
    <contour>
      <point x="30.333" y="400.333" type="line"/>
      <point x="30.333" y="373" type="line" smooth="yes"/>
      <point x="30.333" y="309.491"/>
      <point x="68.978" y="273"/>
      <point x="136.667" y="273" type="curve" smooth="yes"/>
      <point x="203.778" y="273"/>
      <point x="245.667" y="313.889"/>
      <point x="245.667" y="379.667" type="curve" smooth="yes"/>
      <point x="245.667" y="419.333" type="line" smooth="yes"/>
      <point x="245.667" y="466.357"/>
      <point x="232.982" y="489.242"/>
      <point x="198.667" y="503.333" type="curve"/>
      <point x="230.98" y="519.208"/>
      <point x="244.333" y="542.378"/>
      <point x="244.333" y="582.667" type="curve" smooth="yes"/>
      <point x="244.333" y="611" type="line" smooth="yes"/>
      <point x="244.333" y="675.556"/>
      <point x="204.222" y="714"/>
      <point x="136.667" y="714" type="curve" smooth="yes"/>
      <point x="71.282" y="714"/>
      <point x="30.333" y="675.496"/>
      <point x="30.333" y="613.667" type="curve" smooth="yes"/>
      <point x="30.333" y="586" type="line"/>
      <point x="103" y="586" type="line"/>
      <point x="103" y="610" type="line" smooth="yes"/>
      <point x="103" y="634.314"/>
      <point x="113.85" y="646.667"/>
      <point x="135.667" y="646.667" type="curve" smooth="yes"/>
      <point x="158.865" y="646.667"/>
      <point x="169" y="633.336"/>
      <point x="169" y="606" type="curve" smooth="yes"/>
      <point x="169" y="574.333" type="line" smooth="yes"/>
      <point x="169" y="546.542"/>
      <point x="157.563" y="532.667"/>
      <point x="132" y="532.667" type="curve" smooth="yes"/>
      <point x="114" y="532.667" type="line"/>
      <point x="114" y="466.333" type="line"/>
      <point x="131.333" y="466.333" type="line" smooth="yes"/>
      <point x="161.043" y="466.333"/>
      <point x="170.333" y="453.104"/>
      <point x="170.333" y="420.333" type="curve" smooth="yes"/>
      <point x="170.333" y="382.333" type="line" smooth="yes"/>
      <point x="170.333" y="353.657"/>
      <point x="160.238" y="340.333"/>
      <point x="135.667" y="340.333" type="curve" smooth="yes"/>
      <point x="114.363" y="340.333"/>
      <point x="102.333" y="353.617"/>
      <point x="102.333" y="377" type="curve" smooth="yes"/>
      <point x="102.333" y="400.333" type="line"/>
    </contour>
    <contour>
      <point x="422.667" y="72.667" type="line"/>
      <point x="561.333" y="72.667" type="line"/>
      <point x="561.333" y="0" type="line"/>
      <point x="636.667" y="0" type="line"/>
      <point x="636.667" y="72.667" type="line"/>
      <point x="667.667" y="72.667" type="line"/>
      <point x="667.667" y="140.667" type="line"/>
      <point x="636.667" y="140.667" type="line"/>
      <point x="636.667" y="233.667" type="line"/>
      <point x="561.333" y="233.667" type="line"/>
      <point x="561.333" y="140.667" type="line"/>
      <point x="498.333" y="140.667" type="line"/>
      <point x="592" y="427.667" type="line"/>
      <point x="516.667" y="427.667" type="line"/>
      <point x="422.667" y="140.667" type="line"/>
    </contour>
  </outline>
</glyph>
<glyph name="questiondown" format="2">
  <advance width="376"/>
  <unicode hex="00BF"/>
  <outline>
    <contour>
      <point x="145.333" y="423.667" type="line"/>
      <point x="236" y="423.667" type="line"/>
      <point x="236" y="533" type="line"/>
      <point x="145.333" y="533" type="line"/>
    </contour>
    <contour>
      <point x="259.333" y="28.667" type="line"/>
      <point x="259.333" y="-53.789"/>
      <point x="239.22" y="-89"/>
      <point x="191" y="-89" type="curve" smooth="yes"/>
      <point x="146.654" y="-89"/>
      <point x="124.333" y="-59.428"/>
      <point x="124.333" y="-0.667" type="curve" smooth="yes"/>
      <point x="124.333" y="40.784"/>
      <point x="132.263" y="67.139"/>
      <point x="156.667" y="106.667" type="curve" smooth="yes"/>
      <point x="196" y="170.333" type="line" smooth="yes"/>
      <point x="228.041" y="222.12"/>
      <point x="234.667" y="244.092"/>
      <point x="234.667" y="299" type="curve" smooth="yes"/>
      <point x="234.667" y="339.333" type="line"/>
      <point x="148" y="339.333" type="line"/>
      <point x="148" y="301.667" type="line" smooth="yes"/>
      <point x="148" y="258.413"/>
      <point x="142.855" y="240.384"/>
      <point x="120.333" y="204.667" type="curve" smooth="yes"/>
      <point x="83.333" y="146.333" type="line" smooth="yes"/>
      <point x="46.047" y="86.984"/>
      <point x="34.333" y="51.642"/>
      <point x="34.333" y="-1.333" type="curve" smooth="yes"/>
      <point x="34.333" y="-107.336"/>
      <point x="92.33" y="-169.333"/>
      <point x="191.333" y="-169.333" type="curve" smooth="yes"/>
      <point x="296.26" y="-169.333"/>
      <point x="348.111" y="-104.201"/>
      <point x="349" y="28.667" type="curve"/>
    </contour>
  </outline>
</glyph>
<glyph name="AE" format="2">
  <advance width="701"/>
  <unicode hex="00C6"/>
  <anchor x="430" y="763.333" name="top"/>
  <outline>
    <contour>
      <point x="8" y="0" type="line"/>
      <point x="103.667" y="0" type="line"/>
      <point x="171" y="162.667" type="line"/>
      <point x="359.333" y="162.667" type="line"/>
      <point x="359.333" y="0" type="line"/>
      <point x="668.667" y="0" type="line"/>
      <point x="668.667" y="82.333" type="line"/>
      <point x="450.667" y="82.333" type="line"/>
      <point x="450.667" y="318.333" type="line"/>
      <point x="637.333" y="318.333" type="line"/>
      <point x="637.333" y="400.667" type="line"/>
      <point x="450.667" y="400.667" type="line"/>
      <point x="450.667" y="624.333" type="line"/>
      <point x="668.667" y="624.333" type="line"/>
      <point x="668.667" y="707" type="line"/>
      <point x="302" y="707" type="line"/>
    </contour>
    <contour>
      <point x="202.667" y="244.333" type="line"/>
      <point x="359.333" y="626" type="line"/>
      <point x="359.333" y="244.333" type="line"/>
    </contour>
  </outline>
</glyph>
<glyph name="multiply" format="2">
  <advance width="430"/>
  <unicode hex="00D7"/>
  <outline>
    <contour>
      <point x="57.667" y="179" type="line"/>
      <point x="112.667" y="125" type="line"/>
      <point x="215.667" y="228.667" type="line"/>
      <point x="318.333" y="125" type="line"/>
      <point x="372.667" y="179" type="line"/>
      <point x="270" y="283" type="line"/>
      <point x="372.667" y="385.667" type="line"/>
      <point x="318.333" y="440" type="line"/>
      <point x="215.667" y="337.667" type="line"/>
      <point x="112.667" y="440" type="line"/>
      <point x="57.667" y="385.667" type="line"/>
      <point x="160.667" y="283" type="line"/>
    </contour>
  </outline>
</glyph>
<glyph name="Oslash" format="2">
  <advance width="487"/>
  <unicode hex="00D8"/>
  <anchor x="244.667" y="763.333" name="top"/>
  <outline>
    <component base="O"/>
    <contour>
      <point x="49" y="-20" type="line"/>
      <point x="105.667" y="-20" type="line"/>
      <point x="438.667" y="729.667" type="line"/>
      <point x="382.667" y="729.667" type="line"/>
    </contour>
  </outline>
</glyph>
<glyph name="Thorn" format="2">
  <advance width="448"/>
  <unicode hex="00DE"/>
  <outline>
    <contour>
      <point x="55" y="0" type="line"/>
      <point x="146" y="0" type="line"/>
      <point x="146" y="162.333" type="line"/>
      <point x="238.333" y="162.333" type="line" smooth="yes"/>
      <point x="363.556" y="162.333"/>
      <point x="424.333" y="230.556"/>
      <point x="424.333" y="371.667" type="curve" smooth="yes"/>
      <point x="424.333" y="515.704"/>
      <point x="364.942" y="583"/>
      <point x="238.333" y="583" type="curve" smooth="yes"/>
      <point x="146" y="583" type="line"/>
      <point x="146" y="707" type="line"/>
      <point x="55" y="707" type="line"/>
    </contour>
    <contour>
      <point x="146" y="244" type="line"/>
      <point x="146" y="500.333" type="line"/>
      <point x="234.333" y="500.333" type="line" smooth="yes"/>
      <point x="302.242" y="500.333"/>
      <point x="332.333" y="460.835"/>
      <point x="332.333" y="371.667" type="curve" smooth="yes"/>
      <point x="332.333" y="283.515"/>
      <point x="301.999" y="244"/>
      <point x="234.333" y="244" type="curve" smooth="yes"/>
    </contour>
  </outline>
</glyph>
<glyph name="germandbls" format="2">
  <advance width="425"/>
  <unicode hex="00DF"/>
  <outline>
    <contour>
      <point x="54" y="0" type="line"/>
      <point x="141" y="0" type="line"/>
      <point x="141" y="554.333" type="line" smooth="yes"/>
      <point x="141" y="609.778"/>
      <point x="166" y="638"/>
      <point x="215" y="638" type="curve" smooth="yes"/>
      <point x="266.379" y="638"/>
      <point x="286.333" y="605.54"/>
      <point x="286.333" y="548.333" type="curve" smooth="yes"/>
      <point x="286.333" y="476.495"/>
      <point x="272.472" y="450.667"/>
      <point x="232.333" y="450.667" type="curve" smooth="yes"/>
      <point x="213" y="450.667" type="line"/>
      <point x="213" y="376" type="line"/>
      <point x="233" y="376" type="line" smooth="yes"/>
      <point x="282.1" y="376"/>
      <point x="291.333" y="331.219"/>
      <point x="291.333" y="226.667" type="curve" smooth="yes"/>
      <point x="291.333" y="114.74"/>
      <point x="278.046" y="71"/>
      <point x="233.667" y="71" type="curve" smooth="yes"/>
      <point x="215.667" y="71" type="line"/>
      <point x="215.667" y="-4.333" type="line"/>
      <point x="243.333" y="-4.333" type="line" smooth="yes"/>
      <point x="361.038" y="-4.333"/>
      <point x="378.333" y="69.163"/>
      <point x="378.333" y="226.667" type="curve" smooth="yes"/>
      <point x="378.333" y="339.015"/>
      <point x="372.541" y="391.227"/>
      <point x="313.667" y="421" type="curve"/>
      <point x="358.993" y="447.339"/>
      <point x="373.333" y="479.796"/>
      <point x="373.333" y="555.333" type="curve" smooth="yes"/>
      <point x="373.333" y="655.311"/>
      <point x="313.765" y="716.333"/>
      <point x="215.667" y="716.333" type="curve" smooth="yes"/>
      <point x="106.351" y="716.333"/>
      <point x="54" y="657.023"/>
      <point x="54" y="533.667" type="curve" smooth="yes"/>
    </contour>
  </outline>
</glyph>
<glyph name="ae" format="2">
  <advance width="644"/>
  <unicode hex="00E6"/>
  <anchor x="317.333" y="594.667" name="top"/>
  <outline>
    <contour>
      <point x="51" y="387.667" type="line"/>
      <point x="131.667" y="387.667" type="line"/>
      <point x="131.667" y="395.667" type="line" smooth="yes"/>
      <point x="131.667" y="439.786"/>
      <point x="156.789" y="465.333"/>
      <point x="200.667" y="465.333" type="curve" smooth="yes"/>
      <point x="249.507" y="465.333"/>
      <point x="272" y="437.523"/>
      <point x="272" y="386.667" type="curve" smooth="yes"/>
      <point x="272" y="304.333" type="line"/>
      <point x="202.333" y="304.333" type="line" smooth="yes"/>
      <point x="96.759" y="304.333"/>
      <point x="37.667" y="249.262"/>
      <point x="37.667" y="151" type="curve" smooth="yes"/>
      <point x="37.667" y="51.299"/>
      <point x="93.871" y="-8"/>
      <point x="188.333" y="-8" type="curve" smooth="yes"/>
      <point x="240.192" y="-8"/>
      <point x="282.42" y="10.175"/>
      <point x="310.667" y="44.667" type="curve"/>
      <point x="338.333" y="9.444"/>
      <point x="380.222" y="-8"/>
      <point x="437" y="-8" type="curve" smooth="yes"/>
      <point x="539.462" y="-8"/>
      <point x="595.333" y="51.261"/>
      <point x="595.333" y="160.667" type="curve" smooth="yes"/>
      <point x="595.333" y="164.667" type="line"/>
      <point x="510.667" y="164.667" type="line"/>
      <point x="510.667" y="160.333" type="line" smooth="yes"/>
      <point x="510.667" y="98.276"/>
      <point x="485.801" y="66.667"/>
      <point x="436.667" y="66.667" type="curve" smooth="yes"/>
      <point x="383.257" y="66.667"/>
      <point x="357.667" y="103.469"/>
      <point x="357.667" y="180.333" type="curve" smooth="yes"/>
      <point x="357.667" y="239.333" type="line"/>
      <point x="597" y="239.333" type="line"/>
      <point x="597" y="346" type="line" smooth="yes"/>
      <point x="597" y="472.236"/>
      <point x="538.655" y="541.667"/>
      <point x="433" y="541.667" type="curve" smooth="yes"/>
      <point x="382.997" y="541.667"/>
      <point x="344.556" y="526.222"/>
      <point x="317.333" y="496.667" type="curve"/>
      <point x="291.556" y="526.667"/>
      <point x="252.889" y="541.667"/>
      <point x="201.667" y="541.667" type="curve" smooth="yes"/>
      <point x="108.197" y="541.667"/>
      <point x="51" y="486.008"/>
      <point x="51" y="395" type="curve" smooth="yes"/>
    </contour>
    <contour>
      <point x="357.667" y="303.333" type="line"/>
      <point x="357.667" y="409.338"/>
      <point x="364.905" y="464"/>
      <point x="434.667" y="464" type="curve" smooth="yes"/>
      <point x="486.244" y="464"/>
      <point x="510.667" y="428.04"/>
      <point x="510.667" y="352" type="curve" smooth="yes"/>
      <point x="510.667" y="303.333" type="line"/>
    </contour>
    <contour>
      <point x="272" y="242" type="line"/>
      <point x="272" y="156" type="line" smooth="yes"/>
      <point x="272" y="99.576"/>
      <point x="243.921" y="66.333"/>
      <point x="196" y="66.333" type="curve" smooth="yes"/>
      <point x="148.222" y="66.333"/>
      <point x="124" y="95.667"/>
      <point x="124" y="153.333" type="curve" smooth="yes"/>
      <point x="124" y="212.889"/>
      <point x="152.778" y="242"/>
      <point x="211.667" y="242" type="curve" smooth="yes"/>
    </contour>
  </outline>
</glyph>
<glyph name="eth" format="2">
  <advance width="413"/>
  <unicode hex="00F0"/>
  <outline>
    <contour>
      <point x="101" y="535.667" type="line"/>
      <point x="187" y="563" type="line"/>
      <point x="240.667" y="468.333" type="line"/>
      <point x="225.444" y="476"/>
      <point x="206.667" y="479.667"/>
      <point x="184" y="479.667" type="curve" smooth="yes"/>
      <point x="93.556" y="479.667"/>
      <point x="47" y="417.222"/>
      <point x="47" y="296" type="curve" smooth="yes"/>
      <point x="47" y="181.667" type="line" smooth="yes"/>
      <point x="47" y="55.444"/>
      <point x="100.667" y="-9.333"/>
      <point x="205.667" y="-9.333" type="curve" smooth="yes"/>
      <point x="312.224" y="-9.333"/>
      <point x="366.667" y="55.111"/>
      <point x="366.667" y="183" type="curve" smooth="yes"/>
      <point x="366.667" y="286.667" type="line" smooth="yes"/>
      <point x="366.667" y="374.04"/>
      <point x="350.68" y="429.951"/>
      <point x="298.333" y="524.333" type="curve" smooth="yes"/>
      <point x="263" y="587.667" type="line"/>
      <point x="331.667" y="609" type="line"/>
      <point x="312.667" y="670" type="line"/>
      <point x="232.333" y="643.667" type="line"/>
      <point x="194.667" y="711.667" type="line"/>
      <point x="105.333" y="711.667" type="line"/>
      <point x="156.333" y="619" type="line"/>
      <point x="82" y="595.667" type="line"/>
    </contour>
    <contour>
      <point x="207" y="70.667" type="curve" smooth="yes"/>
      <point x="158.333" y="70.667"/>
      <point x="133.333" y="104.444"/>
      <point x="133.333" y="169.667" type="curve" smooth="yes"/>
      <point x="133.333" y="305.667" type="line" smooth="yes"/>
      <point x="133.333" y="369"/>
      <point x="158" y="401"/>
      <point x="207" y="401" type="curve" smooth="yes"/>
      <point x="255.667" y="401"/>
      <point x="280.333" y="368.778"/>
      <point x="280.333" y="305" type="curve" smooth="yes"/>
      <point x="280.333" y="169.667" type="line" smooth="yes"/>
      <point x="280.333" y="107.736"/>
      <point x="258.22" y="70.667"/>
    </contour>
  </outline>
</glyph>
<glyph name="divide" format="2">
  <advance width="430"/>
  <unicode hex="00F7"/>
  <outline>
    <contour>
      <point x="215.333" y="377" type="curve" smooth="yes"/>
      <point x="245.374" y="377"/>
      <point x="269.333" y="401.25"/>
      <point x="269.333" y="431.667" type="curve" smooth="yes"/>
      <point x="269.333" y="461.444"/>
      <point x="245.444" y="485"/>
      <point x="215.333" y="485" type="curve" smooth="yes"/>
      <point x="185.37" y="485"/>
      <point x="161.333" y="461.263"/>
      <point x="161.333" y="431.667" type="curve" smooth="yes"/>
      <point x="161.333" y="401.629"/>
      <point x="185.629" y="377"/>
    </contour>
    <contour>
      <point x="38.333" y="241" type="line"/>
      <point x="392" y="241" type="line"/>
      <point x="392" y="323.667" type="line"/>
      <point x="38.333" y="323.667" type="line"/>
    </contour>
    <contour>
      <point x="215.333" y="83" type="curve" smooth="yes"/>
      <point x="245.707" y="83"/>
      <point x="269.333" y="106.583"/>
      <point x="269.333" y="137.333" type="curve" smooth="yes"/>
      <point x="269.333" y="168.074"/>
      <point x="245.698" y="191.667"/>
      <point x="215.333" y="191.667" type="curve" smooth="yes"/>
      <point x="185.556" y="191.667"/>
      <point x="161.333" y="167.111"/>
      <point x="161.333" y="137.333" type="curve" smooth="yes"/>
      <point x="161.333" y="108.057"/>
      <point x="186.057" y="83"/>
    </contour>
  </outline>
</glyph>
<glyph name="thorn" format="2">
  <advance width="420"/>
  <unicode hex="00FE"/>
  <outline>
    <contour>
      <point x="54" y="-158" type="line"/>
      <point x="139" y="-158" type="line"/>
      <point x="139" y="44.667" type="line"/>
      <point x="163.111" y="9.111"/>
      <point x="194.889" y="-8"/>
      <point x="237.333" y="-8" type="curve" smooth="yes"/>
      <point x="324.79" y="-8"/>
      <point x="374.333" y="56.556"/>
      <point x="374.333" y="170.333" type="curve" smooth="yes"/>
      <point x="374.333" y="362.667" type="line" smooth="yes"/>
      <point x="374.333" y="477.165"/>
      <point x="324.853" y="541.667"/>
      <point x="237.333" y="541.667" type="curve"/>
      <point x="194.778" y="541.222"/>
      <point x="161.556" y="521.556"/>
      <point x="140.333" y="484.667" type="curve"/>
      <point x="140.333" y="707" type="line"/>
      <point x="54" y="707" type="line"/>
    </contour>
    <contour>
      <point x="215.667" y="68.667" type="curve" smooth="yes"/>
      <point x="165.803" y="68.667"/>
      <point x="139.667" y="107.409"/>
      <point x="139.667" y="181.333" type="curve" smooth="yes"/>
      <point x="139.667" y="350" type="line" smooth="yes"/>
      <point x="139.667" y="424.914"/>
      <point x="165.821" y="464"/>
      <point x="215.667" y="464" type="curve" smooth="yes"/>
      <point x="263.889" y="464"/>
      <point x="288" y="426.333"/>
      <point x="288" y="350.667" type="curve" smooth="yes"/>
      <point x="288" y="182" type="line" smooth="yes"/>
      <point x="288" y="106.556"/>
      <point x="263.742" y="68.667"/>
    </contour>
  </outline>
</glyph>
<glyph name="dcaron" format="2">
  <advance width="497"/>
  <unicode hex="010F"/>
  <outline>
    <component base="d"/>
    <contour>
      <point x="421.333" y="547" type="line"/>
      <point x="497" y="612" type="line"/>
      <point x="497" y="707" type="line"/>
      <point x="421.333" y="707" type="line"/>
    </contour>
  </outline>
</glyph>
<glyph name="Dcroat" format="2">
  <advance width="509"/>
  <unicode hex="0110"/>
  <outline>
    <component base="D" xScale="1" xOffset="26.333"/>
    <contour>
      <point x="27.333" y="401.333" type="line"/>
      <point x="27.333" y="319.667" type="line"/>
      <point x="274.667" y="319.667" type="line"/>
      <point x="274.667" y="401.333" type="line"/>
    </contour>
  </outline>
</glyph>
<glyph name="dcroat" format="2">
  <advance width="420"/>
  <unicode hex="0111"/>
  <outline>
    <component base="d"/>
    <contour>
      <point x="184.667" y="583.667" type="line"/>
      <point x="423.667" y="583.667" type="line"/>
      <point x="423.667" y="648" type="line"/>
      <point x="184.667" y="648" type="line"/>
    </contour>
  </outline>
</glyph>
<glyph name="gcommaaccent" format="2">
  <advance width="420"/>
  <unicode hex="0123"/>
  <outline>
    <component base="g"/>
    <contour>
      <point x="162.667" y="570.667" type="line"/>
      <point x="238" y="570.667" type="line"/>
      <point x="238" y="707" type="line"/>
      <point x="162.667" y="642" type="line"/>
    </contour>
  </outline>
</glyph>
<glyph name="Hbar" format="2">
  <advance width="483"/>
  <unicode hex="0126"/>
  <outline>
    <contour>
      <point x="23.667" y="514.667" type="line"/>
      <point x="462.333" y="514.667" type="line"/>
      <point x="462.333" y="596.333" type="line"/>
      <point x="23.667" y="596.333" type="line"/>
    </contour>
    <contour>
      <point x="126.64" y="319" type="line"/>
      <point x="356.36" y="319" type="line"/>
      <point x="356.36" y="400.667" type="line"/>
      <point x="126.64" y="400.667" type="line"/>
    </contour>
    <contour>
      <point x="336" y="0" type="line"/>
      <point x="428" y="0" type="line"/>
      <point x="428" y="707" type="line"/>
      <point x="336" y="707" type="line"/>
    </contour>
    <contour>
      <point x="55" y="0" type="line"/>
      <point x="147" y="0" type="line"/>
      <point x="147" y="707" type="line"/>
      <point x="55" y="707" type="line"/>
    </contour>
  </outline>
</glyph>
<glyph name="hbar" format="2">
  <advance width="423"/>
  <unicode hex="0127"/>
  <outline>
    <component base="h"/>
    <contour>
      <point x="7.333" y="594.667" type="line"/>
      <point x="289.333" y="594.667" type="line"/>
      <point x="289.333" y="646.333" type="line"/>
      <point x="7.333" y="646.333" type="line"/>
    </contour>
  </outline>
</glyph>
<glyph name="IJ" format="2">
  <advance width="484"/>
  <unicode hex="0132"/>
  <outline>
    <contour>
      <point x="61" y="129.333" type="line"/>
      <point x="82.775" y="44.612"/>
      <point x="152.297" y="-8"/>
      <point x="242.667" y="-8" type="curve" smooth="yes"/>
      <point x="354.163" y="-8"/>
      <point x="429.333" y="68.24"/>
      <point x="429.333" y="181.667" type="curve" smooth="yes"/>
      <point x="429.333" y="707" type="line"/>
      <point x="337.333" y="707" type="line"/>
      <point x="337.333" y="185.333" type="line" smooth="yes"/>
      <point x="337.333" y="117.61"/>
      <point x="305.17" y="74.333"/>
      <point x="242.667" y="74.333" type="curve" smooth="yes"/>
      <point x="200.978" y="74.333"/>
      <point x="169.91" y="94.123"/>
      <point x="156.667" y="129.333" type="curve"/>
    </contour>
    <contour>
      <point x="55" y="266.333" type="line"/>
      <point x="147" y="266.333" type="line"/>
      <point x="147" y="707" type="line"/>
      <point x="55" y="707" type="line"/>
    </contour>
  </outline>
</glyph>
<glyph name="ij" format="2">
  <advance width="414"/>
  <unicode hex="0133"/>
  <outline>
    <contour>
      <point x="53.667" y="611" type="line"/>
      <point x="140" y="611" type="line"/>
      <point x="140" y="706.333" type="line"/>
      <point x="53.667" y="706.333" type="line"/>
    </contour>
    <contour>
      <point x="275.333" y="611" type="line"/>
      <point x="360" y="611" type="line"/>
      <point x="360" y="706.333" type="line"/>
      <point x="275.333" y="706.333" type="line"/>
    </contour>
    <contour>
      <point x="60.667" y="-27.333" type="line"/>
      <point x="62.649" y="-113.941"/>
      <point x="118.695" y="-168"/>
      <point x="207.333" y="-168" type="curve" smooth="yes"/>
      <point x="311.31" y="-168"/>
      <point x="360" y="-110.911"/>
      <point x="360" y="12.667" type="curve" smooth="yes"/>
      <point x="360" y="533" type="line"/>
      <point x="275.333" y="533" type="line"/>
      <point x="275.333" y="225.667" type="line" smooth="yes"/>
      <point x="275.333" y="150.162"/>
      <point x="255.544" y="119.333"/>
      <point x="206" y="119.333" type="curve" smooth="yes"/>
      <point x="156.957" y="119.333"/>
      <point x="140" y="146.644"/>
      <point x="140" y="225.667" type="curve" smooth="yes"/>
      <point x="140" y="533" type="line"/>
      <point x="53.667" y="533" type="line"/>
      <point x="53.667" y="213.667" type="line" smooth="yes"/>
      <point x="53.667" y="116.2"/>
      <point x="87.953" y="42.667"/>
      <point x="183.667" y="42.667" type="curve" smooth="yes"/>
      <point x="219.396" y="42.667"/>
      <point x="258.972" y="61.97"/>
      <point x="276" y="88" type="curve"/>
      <point x="276" y="5" type="line" smooth="yes"/>
      <point x="276" y="-65.092"/>
      <point x="256.07" y="-93.333"/>
      <point x="207.667" y="-93.333" type="curve" smooth="yes"/>
      <point x="165.205" y="-93.333"/>
      <point x="143.802" y="-71.716"/>
      <point x="142.333" y="-27.333" type="curve"/>
    </contour>
  </outline>
</glyph>
<glyph name="kgreenlandic" format="2">
  <advance width="422"/>
  <unicode hex="0138"/>
  <anchor x="203" y="763.333" name="top"/>
  <anchor x="221.333" y="-86" name="bottom"/>
  <outline>
    <contour>
      <point x="54" y="0" type="line"/>
      <point x="140.333" y="0" type="line"/>
      <point x="140.333" y="533" type="line"/>
      <point x="54" y="509.667" type="line"/>
    </contour>
    <contour>
      <point x="131.763" y="142.921" type="line"/>
      <point x="394" y="533" type="line"/>
      <point x="301.333" y="533" type="line"/>
      <point x="132.201" y="263.306" type="line"/>
    </contour>
    <contour>
      <point x="312" y="0" type="line"/>
      <point x="408.333" y="0" type="line"/>
      <point x="248.481" y="340.905" type="line"/>
      <point x="195.776" y="260.37" type="line"/>
    </contour>
  </outline>
</glyph>
<glyph name="Lcaron" format="2">
  <advance width="392"/>
  <unicode hex="013D"/>
  <outline>
    <component base="L"/>
    <contour>
      <point x="225.667" y="547" type="line"/>
      <point x="301.333" y="612" type="line"/>
      <point x="301.333" y="707" type="line"/>
      <point x="225.667" y="707" type="line"/>
    </contour>
  </outline>
</glyph>
<glyph name="lcaron" format="2">
  <advance width="284"/>
  <unicode hex="013E"/>
  <outline>
    <component base="l"/>
    <contour>
      <point x="208" y="547" type="line"/>
      <point x="283.667" y="612" type="line"/>
      <point x="283.667" y="707" type="line"/>
      <point x="208" y="707" type="line"/>
    </contour>
  </outline>
</glyph>
<glyph name="Lslash" format="2">
  <advance width="392"/>
  <unicode hex="0141"/>
  <outline>
    <component base="L"/>
    <contour>
      <point x="21.833" y="326.333" type="line"/>
      <point x="228.667" y="412" type="line"/>
      <point x="228.667" y="488.333" type="line"/>
      <point x="21.833" y="402.667" type="line"/>
    </contour>
  </outline>
</glyph>
<glyph name="lslash" format="2">
  <advance width="241"/>
  <unicode hex="0142"/>
  <outline>
    <component base="l"/>
    <contour>
      <point x="18.167" y="327.667" type="line"/>
      <point x="192.667" y="400" type="line"/>
      <point x="192.333" y="476" type="line"/>
      <point x="18.167" y="404" type="line"/>
    </contour>
  </outline>
</glyph>
<glyph name="Eng" format="2">
  <advance width="504"/>
  <unicode hex="014A"/>
  <outline>
    <contour>
      <point x="55" y="0" type="line"/>
      <point x="147" y="0" type="line"/>
      <point x="147" y="487.667" type="line"/>
      <point x="357.333" y="0" type="line"/>
      <point x="357.333" y="-22" type="line" smooth="yes"/>
      <point x="357.333" y="-74.507"/>
      <point x="338" y="-96.667"/>
      <point x="292" y="-96.667" type="curve" smooth="yes"/>
      <point x="280.333" y="-96.667" type="line"/>
      <point x="280.333" y="-173.333" type="line"/>
      <point x="293.667" y="-173.333" type="line" smooth="yes"/>
      <point x="395.45" y="-173.333"/>
      <point x="449.333" y="-121.589"/>
      <point x="449.333" y="-24" type="curve" smooth="yes"/>
      <point x="449.333" y="707" type="line"/>
      <point x="357.333" y="707" type="line"/>
      <point x="357.333" y="213" type="line"/>
      <point x="147" y="707" type="line"/>
      <point x="55" y="707" type="line"/>
    </contour>
  </outline>
</glyph>
<glyph name="eng" format="2">
  <advance width="423"/>
  <unicode hex="014B"/>
  <outline>
    <contour>
      <point x="54" y="0" type="line"/>
      <point x="140.333" y="0" type="line"/>
      <point x="140.333" y="381.667" type="line" smooth="yes"/>
      <point x="140.333" y="431.414"/>
      <point x="166.106" y="464"/>
      <point x="212" y="464" type="curve" smooth="yes"/>
      <point x="258.75" y="464"/>
      <point x="283.667" y="432.619"/>
      <point x="283.667" y="381.667" type="curve" smooth="yes"/>
      <point x="283.667" y="-22" type="line" smooth="yes"/>
      <point x="283.667" y="-72.196"/>
      <point x="261.111" y="-96.667"/>
      <point x="212.667" y="-96.667" type="curve" smooth="yes"/>
      <point x="201" y="-96.667" type="line"/>
      <point x="201" y="-173.333" type="line"/>
      <point x="214.333" y="-173.333" type="line" smooth="yes"/>
      <point x="316.117" y="-173.333"/>
      <point x="370" y="-121.589"/>
      <point x="370" y="-24" type="curve" smooth="yes"/>
      <point x="370" y="384" type="line" smooth="yes"/>
      <point x="370" y="485.356"/>
      <point x="322.213" y="541.667"/>
      <point x="236.667" y="541.667" type="curve" smooth="yes"/>
      <point x="195.38" y="541.667"/>
      <point x="159.76" y="522.292"/>
      <point x="137.333" y="487.667" type="curve"/>
      <point x="137.333" y="533" type="line"/>
      <point x="54" y="533" type="line"/>
    </contour>
  </outline>
</glyph>
<glyph name="OE" format="2">
  <advance width="685"/>
  <unicode hex="0152"/>
  <outline>
    <contour>
      <point x="356.667" y="0" type="line"/>
      <point x="652.333" y="0" type="line"/>
      <point x="652.333" y="82.333" type="line"/>
      <point x="436.667" y="82.333" type="line"/>
      <point x="437.333" y="318.333" type="line"/>
      <point x="620.667" y="318.333" type="line"/>
      <point x="620.667" y="400.667" type="line"/>
      <point x="437.333" y="400.667" type="line"/>
      <point x="436.667" y="624.333" type="line"/>
      <point x="652.333" y="624.333" type="line"/>
      <point x="652.333" y="707" type="line"/>
      <point x="356.667" y="707" type="line"/>
      <point x="356.667" y="673.667" type="line"/>
      <point x="324.333" y="702.444"/>
      <point x="283.778" y="717"/>
      <point x="234.667" y="717" type="curve" smooth="yes"/>
      <point x="113.868" y="717"/>
      <point x="48.333" y="642.626"/>
      <point x="48.333" y="505.667" type="curve" smooth="yes"/>
      <point x="48.333" y="202.333" type="line" smooth="yes"/>
      <point x="48.333" y="65.691"/>
      <point x="113.058" y="-8"/>
      <point x="232.667" y="-8" type="curve" smooth="yes"/>
      <point x="283.889" y="-8"/>
      <point x="325.111" y="7.333"/>
      <point x="356.667" y="38.333" type="curve"/>
    </contour>
    <contour>
      <point x="244.333" y="74.333" type="curve" smooth="yes"/>
      <point x="174.884" y="74.333"/>
      <point x="140.333" y="118.889"/>
      <point x="140.333" y="206.333" type="curve" smooth="yes"/>
      <point x="140.333" y="494.333" type="line" smooth="yes"/>
      <point x="140.333" y="587.889"/>
      <point x="174.548" y="633.667"/>
      <point x="244.333" y="633.667" type="curve" smooth="yes"/>
      <point x="311.11" y="633.667"/>
      <point x="345.333" y="586.329"/>
      <point x="345.333" y="494.333" type="curve" smooth="yes"/>
      <point x="345.333" y="206.333" type="line" smooth="yes"/>
      <point x="345.333" y="120.522"/>
      <point x="310" y="74.333"/>
    </contour>
  </outline>
</glyph>
<glyph name="oe" format="2">
  <advance width="658"/>
  <unicode hex="0153"/>
  <outline>
    <contour>
      <point x="372.667" y="239.333" type="line"/>
      <point x="611.333" y="239.333" type="line"/>
      <point x="611.333" y="346" type="line" smooth="yes"/>
      <point x="611.333" y="472.481"/>
      <point x="553.437" y="541.667"/>
      <point x="448" y="541.667" type="curve" smooth="yes"/>
      <point x="396.997" y="541.667"/>
      <point x="357.889" y="525.333"/>
      <point x="331" y="494" type="curve"/>
      <point x="304.778" y="525.778"/>
      <point x="264.778" y="541.667"/>
      <point x="211" y="541.667" type="curve" smooth="yes"/>
      <point x="101.684" y="541.667"/>
      <point x="47" y="479.544"/>
      <point x="47" y="355.667" type="curve" smooth="yes"/>
      <point x="47" y="177" type="line" smooth="yes"/>
      <point x="47" y="54"/>
      <point x="101.815" y="-8"/>
      <point x="211" y="-8" type="curve" smooth="yes"/>
      <point x="263.889" y="-8"/>
      <point x="303.889" y="7.444"/>
      <point x="331" y="38.333" type="curve"/>
      <point x="357.444" y="7.444"/>
      <point x="397.333" y="-8"/>
      <point x="450.333" y="-8" type="curve" smooth="yes"/>
      <point x="553.016" y="-8"/>
      <point x="609.333" y="51.488"/>
      <point x="609.333" y="160.667" type="curve" smooth="yes"/>
      <point x="609.333" y="164.667" type="line"/>
      <point x="525.667" y="164.667" type="line"/>
      <point x="525.667" y="160.333" type="line" smooth="yes"/>
      <point x="525.667" y="98.276"/>
      <point x="500.801" y="66.667"/>
      <point x="451.667" y="66.667" type="curve" smooth="yes"/>
      <point x="398.257" y="66.667"/>
      <point x="372.667" y="103.469"/>
      <point x="372.667" y="180.333" type="curve" smooth="yes"/>
    </contour>
    <contour>
      <point x="210" y="68.667" type="curve" smooth="yes"/>
      <point x="157.894" y="68.667"/>
      <point x="133.333" y="104.944"/>
      <point x="133.333" y="182" type="curve" smooth="yes"/>
      <point x="133.333" y="350.667" type="line" smooth="yes"/>
      <point x="133.333" y="427.723"/>
      <point x="157.894" y="464"/>
      <point x="210" y="464" type="curve" smooth="yes"/>
      <point x="261.885" y="464"/>
      <point x="286.333" y="427.586"/>
      <point x="286.333" y="350.667" type="curve" smooth="yes"/>
      <point x="286.333" y="182" type="line" smooth="yes"/>
      <point x="286.333" y="106.45"/>
      <point x="260.929" y="68.667"/>
    </contour>
    <contour>
      <point x="372.667" y="303.333" type="line"/>
      <point x="372.667" y="350.667" type="line" smooth="yes"/>
      <point x="372.667" y="427.078"/>
      <point x="397.683" y="464"/>
      <point x="449.333" y="464" type="curve" smooth="yes"/>
      <point x="501.244" y="464"/>
      <point x="525.667" y="428.04"/>
      <point x="525.667" y="352" type="curve" smooth="yes"/>
      <point x="525.667" y="303.333" type="line"/>
    </contour>
  </outline>
</glyph>
<glyph name="Rcommaaccent" format="2">
  <advance width="475"/>
  <unicode hex="0156"/>
  <outline>
    <contour>
      <point x="55" y="0" type="line"/>
      <point x="147" y="0" type="line"/>
      <point x="147" y="300.667" type="line"/>
      <point x="243" y="300.667" type="line"/>
      <point x="350.667" y="0" type="line"/>
      <point x="447.333" y="0" type="line"/>
      <point x="329.333" y="316.333" type="line"/>
      <point x="394.556" y="341.778"/>
      <point x="426.333" y="403.111"/>
      <point x="426.333" y="503.333" type="curve" smooth="yes"/>
      <point x="426.333" y="644.664"/>
      <point x="370.618" y="707"/>
      <point x="244" y="707" type="curve" smooth="yes"/>
      <point x="55" y="707" type="line"/>
    </contour>
    <contour>
      <point x="147" y="382" type="line"/>
      <point x="147" y="624.667" type="line"/>
      <point x="242.667" y="624.667" type="line" smooth="yes"/>
      <point x="306.84" y="624.667"/>
      <point x="334.333" y="588.274"/>
      <point x="334.333" y="503.333" type="curve" smooth="yes"/>
      <point x="334.333" y="419.872"/>
      <point x="305.444" y="382"/>
      <point x="242.667" y="382" type="curve" smooth="yes"/>
    </contour>
    <contour>
      <point x="199.333" y="-173" type="line"/>
      <point x="275" y="-108" type="line"/>
      <point x="275" y="-36.667" type="line"/>
      <point x="199.333" y="-36.667" type="line"/>
    </contour>
  </outline>
</glyph>
<glyph name="rcommaaccent" format="2">
  <advance width="302"/>
  <unicode hex="0157"/>
  <outline>
    <contour>
      <point x="54" y="0" type="line"/>
      <point x="140.333" y="0" type="line"/>
      <point x="140.333" y="364" type="line" smooth="yes"/>
      <point x="140.333" y="422.897"/>
      <point x="176.048" y="460.667"/>
      <point x="231.667" y="460.667" type="curve" smooth="yes"/>
      <point x="248.222" y="460.667"/>
      <point x="265.556" y="457.667"/>
      <point x="283.667" y="451.333" type="curve"/>
      <point x="283.667" y="538.333" type="line"/>
      <point x="274" y="541.111"/>
      <point x="261.778" y="542.333"/>
      <point x="246.667" y="542.333" type="curve" smooth="yes"/>
      <point x="197.151" y="542.333"/>
      <point x="159.791" y="521.363"/>
      <point x="137.333" y="481.333" type="curve"/>
      <point x="137.333" y="533" type="line"/>
      <point x="54" y="533" type="line"/>
    </contour>
    <contour>
      <point x="59.333" y="-173" type="line"/>
      <point x="135" y="-108" type="line"/>
      <point x="135" y="-36.667" type="line"/>
      <point x="59.333" y="-36.667" type="line"/>
    </contour>
  </outline>
</glyph>
<glyph name="tcaron" format="2">
  <advance width="316"/>
  <unicode hex="0165"/>
  <outline>
    <component base="t"/>
    <contour>
      <point x="234.667" y="563.667" type="line"/>
      <point x="310.333" y="628.667" type="line"/>
      <point x="310.333" y="723.667" type="line"/>
      <point x="234.667" y="723.667" type="line"/>
    </contour>
  </outline>
</glyph>
<glyph name="Tbar" format="2">
  <advance width="376"/>
  <unicode hex="0166"/>
  <outline>
    <component base="T"/>
    <contour>
      <point x="69" y="320" type="line"/>
      <point x="308" y="320" type="line"/>
      <point x="308" y="397.667" type="line"/>
      <point x="69" y="397.667" type="line"/>
    </contour>
  </outline>
</glyph>
<glyph name="tbar" format="2">
  <advance width="304"/>
  <unicode hex="0167"/>
  <outline>
    <component base="t"/>
    <contour>
      <point x="25" y="324.667" type="line"/>
      <point x="270.667" y="324.667" type="line"/>
      <point x="270.667" y="391" type="line"/>
      <point x="25" y="391" type="line"/>
    </contour>
  </outline>
</glyph>
<glyph name="longs" format="2">
  <advance width="252"/>
  <unicode hex="017F"/>
  <anchor x="112.333" y="763.333" name="top"/>
  <outline>
    <contour>
      <point x="54" y="0" type="line"/>
      <point x="140" y="0" type="line"/>
      <point x="140" y="469.333" type="line"/>
      <point x="224.667" y="469.333" type="line"/>
      <point x="224.667" y="533" type="line"/>
      <point x="140" y="533" type="line"/>
      <point x="140" y="573" type="line" smooth="yes"/>
      <point x="140" y="621.374"/>
      <point x="158.716" y="641.667"/>
      <point x="206.333" y="641.667" type="curve" smooth="yes"/>
      <point x="224.667" y="641.667" type="line"/>
      <point x="224.667" y="707" type="line"/>
      <point x="190.333" y="707" type="line" smooth="yes"/>
      <point x="100.646" y="707"/>
      <point x="54" y="659.425"/>
      <point x="54" y="569" type="curve" smooth="yes"/>
    </contour>
  </outline>
</glyph>
<glyph name="Schwa" format="2">
  <advance width="486"/>
  <unicode hex="018F"/>
  <outline>
    <contour>
      <point x="140.334" y="498.666" type="line"/>
      <point x="140.334" y="510.666" type="line" smooth="yes"/>
      <point x="140.334" y="590.625"/>
      <point x="175.744" y="634"/>
      <point x="240.667" y="634" type="curve" smooth="yes"/>
      <point x="310.561" y="634"/>
      <point x="345.334" y="589.444"/>
      <point x="345.334" y="502" type="curve" smooth="yes"/>
      <point x="345.334" y="214.666" type="line" smooth="yes"/>
      <point x="345.334" y="120.954"/>
      <point x="311.021" y="75.3333"/>
      <point x="240.667" y="75.3333" type="curve" smooth="yes"/>
      <point x="175.804" y="75.3333"/>
      <point x="140.334" y="119.506"/>
      <point x="140.334" y="200" type="curve" smooth="yes"/>
      <point x="140.334" y="386.003" type="line"/>
      <point x="48.3337" y="386.003" type="line"/>
      <point x="48.3337" y="198.333" type="line" smooth="yes"/>
      <point x="48.3337" y="68.0783"/>
      <point x="119.111" y="-7.99967"/>
      <point x="240.334" y="-7.99967" type="curve" smooth="yes"/>
      <point x="364.755" y="-7.99967"/>
      <point x="437.334" y="69.5923"/>
      <point x="437.334" y="203.333" type="curve" smooth="yes"/>
      <point x="437.334" y="506" type="line" smooth="yes"/>
      <point x="437.334" y="638.967"/>
      <point x="365.257" y="716.333"/>
      <point x="242" y="716.333" type="curve" smooth="yes"/>
      <point x="121.223" y="716.333"/>
      <point x="49.9997" y="640.242"/>
      <point x="49.9997" y="511.666" type="curve" smooth="yes"/>
      <point x="49.9997" y="498.666" type="line"/>
    </contour>
    <contour>
      <point x="75.5257" y="386" type="line"/>
      <point x="75.5257" y="304.333" type="line"/>
      <point x="390.256" y="304.333" type="line"/>
      <point x="390.256" y="386" type="line"/>
    </contour>
  </outline>
</glyph>
<glyph name="florin" format="2">
  <advance width="394"/>
  <unicode hex="0192"/>
  <outline>
    <contour>
      <point x="9" y="-158" type="line"/>
      <point x="34.333" y="-158" type="line" smooth="yes"/>
      <point x="136.333" y="-158"/>
      <point x="184.158" y="-110.374"/>
      <point x="200" y="3.667" type="curve" smooth="yes"/>
      <point x="248" y="345.333" type="line"/>
      <point x="342.667" y="345.333" type="line"/>
      <point x="342.667" y="425" type="line"/>
      <point x="259.333" y="425" type="line"/>
      <point x="275" y="542" type="line" smooth="yes"/>
      <point x="284.025" y="608.932"/>
      <point x="302.132" y="626.333"/>
      <point x="355.667" y="626.333" type="curve" smooth="yes"/>
      <point x="385.333" y="626.333" type="line"/>
      <point x="385.333" y="707" type="line"/>
      <point x="351" y="707" type="line" smooth="yes"/>
      <point x="249.311" y="707"/>
      <point x="199.759" y="660.065"/>
      <point x="184.667" y="546" type="curve" smooth="yes"/>
      <point x="168.667" y="425" type="line"/>
      <point x="83.333" y="425" type="line"/>
      <point x="83.333" y="345.333" type="line"/>
      <point x="157.667" y="345.333" type="line"/>
      <point x="111" y="8.333" type="line" smooth="yes"/>
      <point x="101.608" y="-59.393"/>
      <point x="84.377" y="-77.333"/>
      <point x="30.667" y="-77.333" type="curve" smooth="yes"/>
      <point x="9" y="-77.333" type="line"/>
    </contour>
  </outline>
</glyph>
<glyph name="lbar" format="2">
  <advance width="241"/>
  <unicode hex="019A"/>
  <outline>
    <component base="l"/>
    <contour>
      <point x="10.333" y="328" type="line"/>
      <point x="219" y="328" type="line"/>
      <point x="219" y="409.667" type="line"/>
      <point x="10.333" y="409.667" type="line"/>
    </contour>
  </outline>
</glyph>
<glyph name="Ocenteredtilde" format="2">
  <advance width="486"/>
  <unicode hex="019F"/>
  <outline>
    <component base="O"/>
    <contour>
      <point x="123.88" y="314.667" type="line"/>
      <point x="371.787" y="314.667" type="line"/>
      <point x="371.787" y="396.333" type="line"/>
      <point x="123.88" y="396.333" type="line"/>
    </contour>
  </outline>
</glyph>
<glyph name="kcaron" format="2">
  <advance width="422"/>
  <unicode hex="01E9"/>
  <outline>
    <contour>
      <point x="54" y="0" type="line"/>
      <point x="140.333" y="0" type="line"/>
      <point x="140.333" y="155.667" type="line"/>
      <point x="202" y="246.333" type="line"/>
      <point x="312" y="0" type="line"/>
      <point x="408.333" y="0" type="line"/>
      <point x="255" y="327" type="line"/>
      <point x="394" y="533" type="line"/>
      <point x="301.333" y="533" type="line"/>
      <point x="140.333" y="276.333" type="line"/>
      <point x="140.333" y="707" type="line"/>
      <point x="54" y="707" type="line"/>
    </contour>
    <contour>
      <point x="60.667" y="777.667" type="line"/>
      <point x="133" y="777.667" type="line"/>
      <point x="236" y="925.333" type="line"/>
      <point x="161" y="925.333" type="line"/>
      <point x="98.667" y="837.333" type="line"/>
      <point x="36" y="925.333" type="line"/>
      <point x="-39.667" y="925.333" type="line"/>
    </contour>
  </outline>
</glyph>
<glyph name="dotlessj" format="2">
  <advance width="203"/>
  <unicode hex="0237"/>
  <anchor x="100.333" y="594.667" name="top"/>
  <outline>
    <contour>
      <point x="-25.667" y="-158" type="line"/>
      <point x="-11.333" y="-158" type="line" smooth="yes"/>
      <point x="90.222" y="-158"/>
      <point x="143.667" y="-106.222"/>
      <point x="143.667" y="-8" type="curve" smooth="yes"/>
      <point x="143.667" y="533" type="line"/>
      <point x="56.667" y="533" type="line"/>
      <point x="56.667" y="-3.667" type="line" smooth="yes"/>
      <point x="56.667" y="-55.003"/>
      <point x="34.111" y="-80.333"/>
      <point x="-13" y="-80.333" type="curve" smooth="yes"/>
      <point x="-25.667" y="-80.333" type="line"/>
    </contour>
  </outline>
</glyph>
<glyph name="Lbar" format="2">
  <advance width="392"/>
  <unicode hex="023D"/>
  <outline>
    <component base="L"/>
    <contour>
      <point x="10.333" y="354.667" type="line"/>
      <point x="292.333" y="354.667" type="line"/>
      <point x="292.333" y="436.333" type="line"/>
      <point x="10.333" y="436.333" type="line"/>
    </contour>
  </outline>
</glyph>
<glyph name="obarred" format="2">
  <advance width="419"/>
  <unicode hex="0275"/>
  <outline>
    <component base="o"/>
    <contour>
      <point x="92.213" y="228" type="line"/>
      <point x="325.453" y="228" type="line"/>
      <point x="325.453" y="309.667" type="line"/>
      <point x="92.213" y="309.667" type="line"/>
    </contour>
  </outline>
</glyph>
<glyph name="apostrophemod" format="2">
  <unicode hex="02BC"/>
  <anchor x="42.333" y="707" name="_dot"/>
  <outline>
    <contour>
      <point x="-42.667" y="447" type="line"/>
      <point x="42.333" y="518" type="line"/>
      <point x="42.333" y="707" type="line"/>
      <point x="-42.667" y="707" type="line"/>
    </contour>
  </outline>
</glyph>
<glyph name="caron" format="2">
  <advance width="525"/>
  <unicode hex="02C7"/>
  <outline>
    <contour>
      <point x="225.333" y="591.667" type="line"/>
      <point x="297.667" y="591.667" type="line"/>
      <point x="400.667" y="739.333" type="line"/>
      <point x="325.667" y="739.333" type="line"/>
      <point x="263.333" y="651.333" type="line"/>
      <point x="200.667" y="739.333" type="line"/>
      <point x="125" y="739.333" type="line"/>
    </contour>
  </outline>
</glyph>
<glyph name="breve" format="2">
  <advance width="400"/>
  <unicode hex="02D8"/>
  <outline>
    <contour>
      <point x="72.667" y="734.667" type="line"/>
      <point x="72.667" y="716.667" type="line" smooth="yes"/>
      <point x="72.667" y="629.808"/>
      <point x="117.498" y="582.667"/>
      <point x="199.667" y="582.667" type="curve" smooth="yes"/>
      <point x="281.836" y="582.667"/>
      <point x="326.667" y="629.808"/>
      <point x="326.667" y="716.667" type="curve" smooth="yes"/>
      <point x="326.667" y="734.667" type="line"/>
      <point x="258.667" y="734.667" type="line"/>
      <point x="258.667" y="717.333" type="line" smooth="yes"/>
      <point x="258.667" y="667.087"/>
      <point x="240.405" y="644.333"/>
      <point x="199.667" y="644.333" type="curve" smooth="yes"/>
      <point x="158.928" y="644.333"/>
      <point x="140.667" y="667.087"/>
      <point x="140.667" y="717.333" type="curve" smooth="yes"/>
      <point x="140.667" y="734.667" type="line"/>
    </contour>
  </outline>
</glyph>
<glyph name="dotaccent" format="2">
  <advance width="513"/>
  <unicode hex="02D9"/>
  <outline>
    <contour>
      <point x="213" y="611" type="line"/>
      <point x="301.667" y="611" type="line"/>
      <point x="301.667" y="705.667" type="line"/>
      <point x="213" y="705.667" type="line"/>
    </contour>
  </outline>
</glyph>
<glyph name="ring" format="2">
  <advance width="520"/>
  <unicode hex="02DA"/>
  <outline>
    <contour>
      <point x="227.333" y="607" type="curve"/>
      <point x="262.635" y="588.916"/>
      <point x="302.582" y="600.749"/>
      <point x="320.667" y="635.667" type="curve" smooth="yes"/>
      <point x="339" y="670.778"/>
      <point x="326.444" y="710.667"/>
      <point x="291.333" y="729" type="curve" smooth="yes"/>
      <point x="257.043" y="747.914"/>
      <point x="218.053" y="735.052"/>
      <point x="199.333" y="700" type="curve" smooth="yes"/>
      <point x="180.93" y="666.004"/>
      <point x="193.711" y="625.595"/>
    </contour>
    <contour>
      <point x="259.333" y="618.333" type="curve" smooth="yes"/>
      <point x="232.179" y="618.333"/>
      <point x="211.333" y="639.73"/>
      <point x="211.333" y="667.667" type="curve" smooth="yes"/>
      <point x="211.333" y="697.563"/>
      <point x="231.201" y="718.667"/>
      <point x="259.333" y="718.667" type="curve" smooth="yes"/>
      <point x="287.841" y="718.667"/>
      <point x="307.667" y="697.75"/>
      <point x="307.667" y="667.667" type="curve" smooth="yes"/>
      <point x="307.667" y="639.014"/>
      <point x="287.407" y="618.333"/>
    </contour>
  </outline>
</glyph>
<glyph name="ogonek" format="2">
  <advance width="249"/>
  <unicode hex="02DB"/>
  <outline>
    <contour>
      <point x="60" y="-56" type="line"/>
      <point x="77.1" y="-152.258"/>
      <point x="119.318" y="-215.128"/>
      <point x="188.667" y="-217.333" type="curve"/>
      <point x="188.667" y="-120.667" type="line"/>
      <point x="159.837" y="-119.1"/>
      <point x="134.208" y="-104.936"/>
      <point x="120.333" y="-75.333" type="curve"/>
      <point x="188.667" y="0.333" type="line"/>
      <point x="188.667" y="16.333" type="line"/>
      <point x="146" y="16.333" type="line"/>
    </contour>
  </outline>
</glyph>
<glyph name="tilde" format="2">
  <advance width="513"/>
  <unicode hex="02DC"/>
  <outline>
    <contour>
      <point x="144" y="589.667" type="line"/>
      <point x="169.313" y="619.437"/>
      <point x="184.395" y="629"/>
      <point x="206" y="629" type="curve" smooth="yes"/>
      <point x="239.998" y="629"/>
      <point x="258.493" y="593"/>
      <point x="304" y="593" type="curve" smooth="yes"/>
      <point x="330.087" y="593"/>
      <point x="344.515" y="601.066"/>
      <point x="368.333" y="629" type="curve"/>
      <point x="368.333" y="707.667" type="line"/>
      <point x="343.129" y="680.548"/>
      <point x="331.017" y="669"/>
      <point x="309.333" y="669" type="curve" smooth="yes"/>
      <point x="270.065" y="669"/>
      <point x="254.27" y="705.667"/>
      <point x="209.333" y="705.667" type="curve" smooth="yes"/>
      <point x="184.038" y="705.667"/>
      <point x="168.683" y="697.285"/>
      <point x="144" y="670" type="curve"/>
    </contour>
  </outline>
</glyph>
<glyph name="hungarumlaut" format="2">
  <advance width="512"/>
  <unicode hex="02DD"/>
  <outline>
    <contour>
      <point x="143.333" y="594.667" type="line"/>
      <point x="216" y="594.667" type="line"/>
      <point x="332" y="729" type="line"/>
      <point x="239.333" y="729" type="line"/>
    </contour>
    <contour>
      <point x="293.333" y="594.667" type="line"/>
      <point x="366" y="594.667" type="line"/>
      <point x="482" y="729" type="line"/>
      <point x="389.333" y="729" type="line"/>
    </contour>
  </outline>
</glyph>
<glyph name="uni0300" format="2">
  <unicode hex="0300"/>
  <anchor x="0" y="594.667" name="_top"/>
  <outline>
    <contour>
      <point x="-21.333" y="594.667" type="line"/>
      <point x="51.333" y="594.667" type="line"/>
      <point x="-44.667" y="729" type="line"/>
      <point x="-137.333" y="729" type="line"/>
    </contour>
  </outline>
</glyph>
<glyph name="uni0301" format="2">
  <unicode hex="0301"/>
  <anchor x="0" y="594.667" name="_top"/>
  <outline>
    <contour>
      <point x="-72.333" y="594.667" type="line"/>
      <point x="0.333" y="594.667" type="line"/>
      <point x="116.333" y="729" type="line"/>
      <point x="23.667" y="729" type="line"/>
    </contour>
  </outline>
</glyph>
<glyph name="uni0302" format="2">
  <unicode hex="0302"/>
  <anchor x="0" y="594.667" name="_top"/>
  <outline>
    <contour>
      <point x="-137.833" y="587.333" type="line"/>
      <point x="-62.833" y="587.333" type="line"/>
      <point x="0.5" y="676" type="line"/>
      <point x="62.833" y="587.333" type="line"/>
      <point x="137.833" y="587.333" type="line"/>
      <point x="34.833" y="735.333" type="line"/>
      <point x="-37.5" y="735.333" type="line"/>
    </contour>
  </outline>
</glyph>
<glyph name="uni0303" format="2">
  <unicode hex="0303"/>
  <anchor x="0" y="594.667" name="_top"/>
  <outline>
    <contour>
      <point x="-112.167" y="589.667" type="line"/>
      <point x="-86.854" y="619.437"/>
      <point x="-71.771" y="629"/>
      <point x="-50.167" y="629" type="curve" smooth="yes"/>
      <point x="-16.169" y="629"/>
      <point x="2.326" y="593"/>
      <point x="47.833" y="593" type="curve" smooth="yes"/>
      <point x="73.921" y="593"/>
      <point x="88.348" y="601.066"/>
      <point x="112.167" y="629" type="curve"/>
      <point x="112.167" y="707.667" type="line"/>
      <point x="86.962" y="680.548"/>
      <point x="74.851" y="669"/>
      <point x="53.167" y="669" type="curve" smooth="yes"/>
      <point x="13.899" y="669"/>
      <point x="-1.896" y="705.667"/>
      <point x="-46.833" y="705.667" type="curve" smooth="yes"/>
      <point x="-72.129" y="705.667"/>
      <point x="-87.483" y="697.285"/>
      <point x="-112.167" y="670" type="curve"/>
    </contour>
  </outline>
</glyph>
<glyph name="uni0304" format="2">
  <unicode hex="0304"/>
  <anchor x="0" y="594.667" name="_top"/>
  <outline>
    <contour>
      <point x="-119.5" y="606" type="line"/>
      <point x="119.5" y="606" type="line"/>
      <point x="119.5" y="683.667" type="line"/>
      <point x="-119.5" y="683.667" type="line"/>
    </contour>
  </outline>
</glyph>
<glyph name="uni0307" format="2">
  <unicode hex="0307"/>
  <anchor x="0" y="594.667" name="_top"/>
  <outline>
    <contour>
      <point x="-44.333" y="611" type="line"/>
      <point x="44.333" y="611" type="line"/>
      <point x="44.333" y="705.667" type="line"/>
      <point x="-44.333" y="705.667" type="line"/>
    </contour>
  </outline>
</glyph>
<glyph name="uni030B" format="2">
  <unicode hex="030B"/>
  <anchor x="0" y="594.667" name="_top"/>
  <outline>
    <contour>
      <point x="-112.667" y="594.667" type="line"/>
      <point x="-40" y="594.667" type="line"/>
      <point x="76" y="729" type="line"/>
      <point x="-16.667" y="729" type="line"/>
    </contour>
    <contour>
      <point x="37.333" y="594.667" type="line"/>
      <point x="110" y="594.667" type="line"/>
      <point x="226" y="729" type="line"/>
      <point x="133.333" y="729" type="line"/>
    </contour>
  </outline>
</glyph>
<glyph name="uni030C" format="2">
  <unicode hex="030C"/>
  <anchor x="0" y="594.667" name="_top"/>
  <outline>
    <contour>
      <point x="-37.5" y="591.667" type="line"/>
      <point x="34.833" y="591.667" type="line"/>
      <point x="137.833" y="739.333" type="line"/>
      <point x="62.833" y="739.333" type="line"/>
      <point x="0.5" y="651.333" type="line"/>
      <point x="-62.167" y="739.333" type="line"/>
      <point x="-137.833" y="739.333" type="line"/>
    </contour>
  </outline>
</glyph>
<glyph name="uni030F" format="2">
  <unicode hex="030F"/>
  <anchor x="0" y="593.333" name="_top"/>
  <outline>
    <contour>
      <point x="-74.9468" y="594.667" type="line"/>
      <point x="-2.28077" y="594.667" type="line"/>
      <point x="-98.2808" y="729" type="line"/>
      <point x="-190.947" y="729" type="line"/>
    </contour>
    <contour>
      <point x="80.4082" y="594.667" type="line"/>
      <point x="153.074" y="594.667" type="line"/>
      <point x="57.0742" y="729" type="line"/>
      <point x="-35.5918" y="729" type="line"/>
    </contour>
  </outline>
</glyph>
<glyph name="uni0312" format="2">
  <unicode hex="0312"/>
  <outline>
    <contour>
      <point x="-71.667" y="594.667" type="line"/>
      <point x="20.333" y="594.667" type="line"/>
      <point x="116.667" y="729" type="line"/>
      <point x="44.333" y="729" type="line"/>
    </contour>
  </outline>
</glyph>
<glyph name="uni0323" format="2">
  <unicode hex="0323"/>
  <anchor x="0" y="-86" name="_bottom"/>
  <anchor x="0" y="-133.333" name="_dot"/>
  <outline>
    <contour>
      <point x="-43.667" y="-180.667" type="line"/>
      <point x="45.667" y="-180.667" type="line"/>
      <point x="45.667" y="-86" type="line"/>
      <point x="-43.667" y="-86" type="line"/>
    </contour>
  </outline>
</glyph>
<glyph name="alpha" format="2">
  <advance width="498"/>
  <unicode hex="03B1"/>
  <outline>
    <contour>
      <point x="450.667" y="88.333" type="line"/>
      <point x="407.644" y="89.668"/>
      <point x="377.667" y="131.43"/>
      <point x="377.667" y="190" type="curve" smooth="yes"/>
      <point x="377.667" y="342.667" type="line" smooth="yes"/>
      <point x="377.667" y="402.077"/>
      <point x="406.992" y="442.972"/>
      <point x="450.667" y="444.333" type="curve"/>
      <point x="450.667" y="519.667" type="line"/>
      <point x="405.273" y="519.667"/>
      <point x="374.53" y="507.53"/>
      <point x="343.667" y="479.333" type="curve"/>
      <point x="317.624" y="519.401"/>
      <point x="270.217" y="541.667"/>
      <point x="211" y="541.667" type="curve" smooth="yes"/>
      <point x="101.819" y="541.667"/>
      <point x="47" y="479.393"/>
      <point x="47" y="355.667" type="curve" smooth="yes"/>
      <point x="47" y="177" type="line" smooth="yes"/>
      <point x="47" y="54.537"/>
      <point x="102.292" y="-8"/>
      <point x="211" y="-8" type="curve" smooth="yes"/>
      <point x="269.78" y="-8"/>
      <point x="318.401" y="14.724"/>
      <point x="343.667" y="54.333" type="curve"/>
      <point x="375.751" y="24.915"/>
      <point x="405.276" y="14"/>
      <point x="450.667" y="14" type="curve"/>
    </contour>
    <contour>
      <point x="210" y="68.667" type="curve" smooth="yes"/>
      <point x="158.902" y="68.667"/>
      <point x="133.333" y="106.371"/>
      <point x="133.333" y="182" type="curve" smooth="yes"/>
      <point x="133.333" y="350.667" type="line" smooth="yes"/>
      <point x="133.333" y="427.18"/>
      <point x="158.278" y="464"/>
      <point x="210" y="464" type="curve" smooth="yes"/>
      <point x="261.534" y="464"/>
      <point x="286.333" y="427.082"/>
      <point x="286.333" y="350.667" type="curve" smooth="yes"/>
      <point x="286.333" y="182" type="line" smooth="yes"/>
      <point x="286.333" y="106.21"/>
      <point x="261.097" y="68.667"/>
    </contour>
  </outline>
</glyph>
<glyph name="Djecyr" format="2">
  <advance width="554"/>
  <unicode hex="0402"/>
  <anchor x="188.333" y="-86" name="bottom"/>
  <anchor x="175.833" y="763.333" name="top"/>
  <anchor x="156" y="0" name="b.cedilla"/>
  <outline>
    <contour>
      <point x="143.667" y="0" type="line"/>
      <point x="234" y="0" type="line"/>
      <point x="234" y="624.333" type="line"/>
      <point x="372" y="624.333" type="line"/>
      <point x="372" y="707" type="line"/>
      <point x="5.333" y="707" type="line"/>
      <point x="5.333" y="624.333" type="line"/>
      <point x="143.667" y="624.333" type="line"/>
    </contour>
    <contour>
      <point x="288.95" y="0" type="line"/>
      <point x="321" y="0" type="line" smooth="yes"/>
      <point x="447.772" y="0"/>
      <point x="506.333" y="66.872"/>
      <point x="506.333" y="211.667" type="curve" smooth="yes"/>
      <point x="506.333" y="352.783"/>
      <point x="446.107" y="420.667"/>
      <point x="321" y="420.667" type="curve" smooth="yes"/>
      <point x="206.487" y="420.667" type="line"/>
      <point x="206.487" y="338" type="line"/>
      <point x="317" y="338" type="line" smooth="yes"/>
      <point x="384.647" y="338"/>
      <point x="415" y="298.911"/>
      <point x="415" y="211.667" type="curve" smooth="yes"/>
      <point x="415" y="121.679"/>
      <point x="385.243" y="82.815"/>
      <point x="317" y="82.39" type="curve" smooth="yes"/>
      <point x="288.95" y="82.204" type="line"/>
    </contour>
  </outline>
</glyph>
<glyph name="Eukrcyr" format="2">
  <advance width="486"/>
  <unicode hex="0404"/>
  <anchor x="244.667" y="763.333" name="top"/>
  <outline>
    <contour>
      <point x="345.333" y="209.667" type="line"/>
      <point x="345.333" y="197.667" type="line" smooth="yes"/>
      <point x="345.333" y="117.708"/>
      <point x="309.923" y="74.333"/>
      <point x="245" y="74.333" type="curve" smooth="yes"/>
      <point x="175.106" y="74.333"/>
      <point x="140.333" y="118.889"/>
      <point x="140.333" y="206.333" type="curve" smooth="yes"/>
      <point x="140.333" y="493.667" type="line" smooth="yes"/>
      <point x="140.333" y="587.379"/>
      <point x="174.646" y="633"/>
      <point x="245" y="633" type="curve" smooth="yes"/>
      <point x="309.863" y="633"/>
      <point x="345.333" y="588.827"/>
      <point x="345.333" y="508.333" type="curve" smooth="yes"/>
      <point x="345.333" y="496.667" type="line"/>
      <point x="437.333" y="496.667" type="line"/>
      <point x="437.333" y="510" type="line" smooth="yes"/>
      <point x="437.333" y="640.255"/>
      <point x="366.556" y="716.333"/>
      <point x="245.333" y="716.333" type="curve" smooth="yes"/>
      <point x="120.912" y="716.333"/>
      <point x="48.333" y="638.741"/>
      <point x="48.333" y="505" type="curve" smooth="yes"/>
      <point x="48.333" y="202.333" type="line" smooth="yes"/>
      <point x="48.333" y="69.366"/>
      <point x="120.41" y="-8"/>
      <point x="243.667" y="-8" type="curve" smooth="yes"/>
      <point x="364.444" y="-8"/>
      <point x="435.667" y="68.091"/>
      <point x="435.667" y="196.667" type="curve" smooth="yes"/>
      <point x="435.667" y="209.667" type="line"/>
    </contour>
    <contour>
      <point x="325.132" y="319" type="line"/>
      <point x="95.4117" y="319" type="line"/>
      <point x="95.4117" y="400.667" type="line"/>
      <point x="325.132" y="400.667" type="line"/>
    </contour>
  </outline>
</glyph>
<glyph name="Ljecyr" format="2">
  <advance width="774"/>
  <unicode hex="0409"/>
  <outline>
    <component base="Elcyr"/>
    <contour>
      <point x="426.487" y="0" type="line"/>
      <point x="541" y="0" type="line" smooth="yes"/>
      <point x="667.772" y="0"/>
      <point x="726.333" y="66.872"/>
      <point x="726.333" y="211.667" type="curve" smooth="yes"/>
      <point x="726.333" y="352.783"/>
      <point x="666.107" y="420.667"/>
      <point x="541" y="420.667" type="curve" smooth="yes"/>
      <point x="426.487" y="420.667" type="line"/>
      <point x="426.487" y="338" type="line"/>
      <point x="537" y="338" type="line" smooth="yes"/>
      <point x="604.647" y="338"/>
      <point x="635" y="298.911"/>
      <point x="635" y="211.667" type="curve" smooth="yes"/>
      <point x="635" y="121.679"/>
      <point x="605.244" y="82.379"/>
      <point x="537" y="82.333" type="curve" smooth="yes"/>
      <point x="426.487" y="82.261" type="line"/>
    </contour>
  </outline>
</glyph>
<glyph name="Njecyr" format="2">
  <advance width="751"/>
  <unicode hex="040A"/>
  <outline>
    <component base="H"/>
    <contour>
      <point x="403.154" y="0" type="line"/>
      <point x="517.667" y="0" type="line" smooth="yes"/>
      <point x="644.439" y="0"/>
      <point x="703" y="66.872"/>
      <point x="703" y="211.667" type="curve" smooth="yes"/>
      <point x="703" y="352.783"/>
      <point x="642.774" y="420.667"/>
      <point x="517.667" y="420.667" type="curve" smooth="yes"/>
      <point x="403.154" y="420.667" type="line"/>
      <point x="403.154" y="338" type="line"/>
      <point x="513.667" y="338" type="line" smooth="yes"/>
      <point x="581.314" y="338"/>
      <point x="611.667" y="298.911"/>
      <point x="611.667" y="211.667" type="curve" smooth="yes"/>
      <point x="611.667" y="121.679"/>
      <point x="581.911" y="82.379"/>
      <point x="513.667" y="82.333" type="curve" smooth="yes"/>
      <point x="403.154" y="82.261" type="line"/>
    </contour>
  </outline>
</glyph>
<glyph name="Tshecyr" format="2">
  <advance width="564"/>
  <unicode hex="040B"/>
  <outline>
    <contour>
      <point x="143.667" y="0" type="line"/>
      <point x="234" y="0" type="line"/>
      <point x="234" y="624.333" type="line"/>
      <point x="372" y="624.333" type="line"/>
      <point x="372" y="707" type="line"/>
      <point x="5.333" y="707" type="line"/>
      <point x="5.333" y="624.333" type="line"/>
      <point x="143.667" y="624.333" type="line"/>
    </contour>
    <contour>
      <point x="516.333" y="0" type="line"/>
      <point x="516.333" y="211.667" type="line" smooth="yes"/>
      <point x="516.333" y="352.783"/>
      <point x="456.107" y="440.667"/>
      <point x="331" y="440.667" type="curve" smooth="yes"/>
      <point x="299.045" y="440.667"/>
      <point x="266.122" y="434.667"/>
      <point x="234.167" y="420.667" type="curve"/>
      <point x="216.487" y="420.667" type="line"/>
      <point x="216.487" y="338" type="line"/>
      <point x="234.167" y="338" type="line"/>
      <point x="264.802" y="352"/>
      <point x="296.365" y="358"/>
      <point x="327" y="358" type="curve" smooth="yes"/>
      <point x="394.647" y="358"/>
      <point x="425" y="298.911"/>
      <point x="425" y="211.667" type="curve" smooth="yes"/>
      <point x="425" y="-0.088" type="line"/>
    </contour>
  </outline>
</glyph>
